<?xml version="1.0" encoding="UTF-8" standalone="no"?>
<!-- Created with Inkscape (http://www.inkscape.org/) -->

<svg
   version="1.1"
   id="svg274"
   width="251.52"
   height="183.36"
   viewBox="0 0 251.52 183.36"
   sodipodi:docname="bg1.jpg.svg"
   inkscape:version="1.1.1 (3bf5ae0, 2021-09-20)"
   xmlns:inkscape="http://www.inkscape.org/namespaces/inkscape"
   xmlns:sodipodi="http://sodipodi.sourceforge.net/DTD/sodipodi-0.dtd"
   xmlns:xlink="http://www.w3.org/1999/xlink"
   xmlns="http://www.w3.org/2000/svg"
   xmlns:svg="http://www.w3.org/2000/svg">
  <defs
     id="defs278" />
  <sodipodi:namedview
     id="namedview276"
     pagecolor="#ffffff"
     bordercolor="#666666"
     borderopacity="1.0"
     inkscape:pageshadow="2"
     inkscape:pageopacity="0.0"
     inkscape:pagecheckerboard="0"
     showgrid="false"
     inkscape:zoom="11.800539"
     inkscape:cx="69.954435"
     inkscape:cy="141.39185"
     inkscape:window-width="1920"
     inkscape:window-height="966"
     inkscape:window-x="0"
     inkscape:window-y="27"
     inkscape:window-maximized="1"
     inkscape:current-layer="g280" />
  <g
     inkscape:groupmode="layer"
     inkscape:label="Image"
     id="g280">
    <image
       width="251.52"
       height="183.36"
       preserveAspectRatio="none"
       xlink:href="../../../%D0%94%D0%BE%D0%BA%D1%83%D0%BC%D0%B5%D0%BD%D1%82%D1%8B/%D0%91%D0%B5%D0%B7%20%D0%B8%D0%BC%D0%B5%D0%BD%D0%B82.jpg"
       id="image282" />
    <path
       id="path454"
       style="fill:#000000;stroke-width:0.32"
       d="m 250.96094,0.00585938 c -0.47858,0.00418761 -0.49025,0.04935688 -0.0801,0.31445312 0.6039,0.39027536 0.63867,0.39027536 0.63867,0 0,-0.176 -0.25059,-0.31714819 -0.55859,-0.31445312 z M 244.59375,4.386719 c -0.0448,0.022903 -0.0581,0.072065 -0.043,0.1445312 0.0739,0.3535516 -2.2566,0.4307535 -13.1914,0.4414062 l -13.2793,0.013672 0.11719,2.2011719 c 0.0921,1.7372928 0.31199,2.5183197 1.04101,3.7031247 0.83468,1.356525 1.06573,1.52134 2.40625,1.705078 1.68459,0.230899 2.38387,0.930781 2.14258,2.142578 -0.18331,0.920649 0.28683,1.446358 1.49219,1.667969 1.87348,0.344447 2.79076,0.208516 3.84375,-0.568359 1.0096,-0.744858 1.26092,-0.787971 3.51953,-0.59961 1.95799,0.16329 2.63933,0.09634 3.49414,-0.345703 0.67642,-0.34979 1.42474,-0.481909 2.0625,-0.365234 1.8622,0.340677 3.08176,-0.343957 6.54297,-3.669922 0.47129,-0.452871 1.24747,-1.0777975 1.72461,-1.3886717 0.47714,-0.3108739 0.9587,-0.8478378 1.06836,-1.1933594 0.16177,-0.5096947 0.28708,-0.5566694 0.66601,-0.2421875 0.27724,0.2300925 0.16742,-0.1831339 -0.26953,-1.0175781 -0.4917,-0.9390058 -1.18989,-1.6561881 -2.10352,-2.1601562 -0.69246,-0.3819861 -1.09989,-0.5374583 -1.23437,-0.46875 z M 16.060547,8.9355469 c -0.628549,0.2842014 -1.57485,1.5463871 -3.628906,4.6640621 -1.159563,1.76 -2.6665995,4.042825 -3.3496098,5.072266 -2.6243026,3.955381 -2.999797,4.550976 -3.3164062,5.269531 -0.4509037,1.02334 -0.4068224,1.8314 0.1210938,2.269532 0.7015542,0.582238 0.4853291,0.865116 6.9843752,-9.09961 2.382223,-3.652569 2.933158,-4.232991 3.541015,-3.728516 0.664016,0.551086 8.867188,13.208344 8.867188,13.681641 0,0.07136 0.486808,0.76709 1.082031,1.546875 0.595223,0.779784 1.557938,2.257465 2.138672,3.283203 0.580734,1.025738 2.182552,3.570646 3.558594,5.654297 1.376045,2.083648 2.501953,3.840757 2.501953,3.904297 0,0.250857 4.927312,7.711289 5.539062,8.386719 0.733389,0.809731 1.193905,0.897892 1.75586,0.335937 0.61425,-0.61425 0.453545,-1.435947 -0.59961,-3.058593 -2.50392,-3.857912 -4.445961,-6.899359 -6.1875,-9.6875 C 32.478157,33.282868 29.932907,29.269642 28.705078,27.394531 25.879171,23.078873 21.670107,16.490207 18.699219,11.732422 17.83782,10.352918 16.899053,9.0982527 16.613281,8.9453125 16.445234,8.8553761 16.270063,8.8408131 16.060547,8.9355469 Z M 246.27344,12.666016 c -0.59986,-0.07707 -1.15231,0.356835 -1.32617,1.148437 -0.11465,0.521994 -0.44688,1.032432 -0.73829,1.134766 -0.2914,0.102334 -0.81792,0.427699 -1.16992,0.722656 -1.12011,0.938588 -3.19772,1.432823 -4.22851,1.005859 -0.75074,-0.310968 -1.22403,-0.25984 -2.81641,0.304688 -2.69092,0.953973 -3.77463,1.072162 -4.81445,0.527344 -0.83457,-0.437272 -1.04627,-0.40385 -2.98242,0.464843 -1.14582,0.514092 -2.67685,1.015795 -3.40235,1.115235 -1.18785,0.162813 -1.40193,0.08201 -2.15625,-0.814453 -0.63821,-0.758471 -1.09944,-0.996094 -1.9375,-0.996094 -0.8597,0 -1.56794,-0.384208 -3.24609,-1.759766 -1.18095,-0.968 -2.26431,-1.759765 -2.40625,-1.759765 -0.14194,0 -0.58439,0.263632 -0.98242,0.585937 -0.55106,0.446188 -0.67349,0.783143 -0.51563,1.412109 0.24631,0.981374 2.91407,3.036306 4.51563,3.478516 0.61228,0.16906 1.574,0.698545 2.13671,1.175781 0.56273,0.477237 1.97212,1.323986 3.13086,1.88086 1.2276,0.589966 2.6522,1.023032 3.41407,1.039062 1.14169,0.02401 1.45607,-0.137747 2.48437,-1.283203 1.10472,-1.230587 1.26223,-1.301228 2.5332,-1.138672 5.14563,0.658124 4.86507,0.674411 6.72657,-0.390625 1.44579,-0.8272 1.89711,-0.947788 2.66406,-0.705078 1.1741,0.371552 4.99327,0.695397 4.12305,0.349609 -0.50811,-0.201899 -0.3756,-0.27764 0.64062,-0.36914 l 1.2793,-0.115234 0.0937,-3.195313 c 0.0759,-2.620999 1.8e-4,-3.262077 -0.41602,-3.566406 -0.19825,-0.144965 -0.40356,-0.226264 -0.60351,-0.251953 z M 30.925781,22.421875 c -1.329983,0.05913 -2.645589,0.309653 -2.892578,0.707031 -0.273516,0.440057 -0.244201,0.638397 0.126953,0.875 0.812917,0.518219 5.299561,0.390452 5.759766,-0.164062 0.318266,-0.383489 0.316622,-0.579466 -0.0098,-0.972656 -0.309269,-0.372649 -1.654391,-0.504444 -2.984375,-0.445313 z m 1.0625,3.556641 c -1.522703,0.111031 -1.886895,0.556465 -1.099609,1.34375 0.780167,0.780168 2.615384,0.682139 2.880859,-0.154297 0.305546,-0.96269 -0.204544,-1.304421 -1.78125,-1.189453 z m 0.996094,3.529296 c -0.151739,0.0171 -0.294832,0.07413 -0.402344,0.181641 -0.184033,0.184035 -0.231697,0.500092 -0.107422,0.701172 0.282736,0.457477 1.187123,0.304471 1.365235,-0.230469 0.131222,-0.394111 -0.400252,-0.703637 -0.855469,-0.652344 z M 245.00327,60.742115 c -2.992,0.01335 -11.48405,0.21802 -12.16929,0.408276 -0.68522,0.190259 -2.45222,1.123603 -3.92578,2.074218 -10.7384,5.808921 -21.90038,12.865045 -31.91601,18.082032 -2.78844,1.398839 -3.30838,2.361654 -1.73242,3.205078 0.49617,0.265543 1.1254,0.08942 3.08203,-0.859375 2.56575,-1.214533 4.57182,-2.145417 6.99038,-2.977055 l 0.10727,6.654789 c 0.0681,4.225685 0.11349,6.093954 0.38477,6.365234 0.5284,0.528404 0.80424,0.484743 1.45508,-0.232421 1.48103,-1.631952 1.43956,-1.365865 1.31054,-8.208985 -0.0678,-3.594038 -0.0224,-6.533203 0.10157,-6.533203 9.13531,-5.303482 20.40604,-15.296333 28.42773,-15.376953 1.496,-0.13005 3.89278,-0.158149 5.32422,-0.06445 2.86318,0.187399 3.71491,-0.132532 3.90039,-1.458985 0,0 -0.31873,-1.056322 -1.34048,-1.0782 z M 14,60.267578 c -0.22,0.08877 -0.03961,0.162108 0.400391,0.16211 0.44,0 0.62039,-0.07334 0.40039,-0.16211 -0.22,-0.08877 -0.580781,-0.08877 -0.800781,0 z m -0.822266,0.533203 c -6.2832835,0 -7.0976559,0.09218 -7.0976559,0.810547 0,0.841619 0.9945371,1.427734 2.421875,1.427734 0.8526099,0 1.4179688,0.146333 1.4179688,0.367188 0,0.266237 1.0768511,0.316259 3.9199221,0.181641 l 3.919922,-0.185547 2.296875,1.253906 c 1.263187,0.689706 3.063187,1.554704 4,1.921875 0.936813,0.367171 2.063906,1.005559 2.503906,1.417969 0.44,0.412412 2.112415,1.445972 3.716797,2.296875 8.044577,4.266525 11.638543,6.313622 12.554687,7.15039 l 1.007813,0.919922 v 6.759766 6.759765 l 0.849609,1.113282 c 0.577347,0.756941 1.066353,1.084541 1.521485,1.019531 0.6462,-0.0923 0.675207,-0.312079 0.839843,-6.175781 -0.02605,-8.639407 -0.937177,-8.354092 5.773438,-4.882813 3.088903,1.606411 3.935916,1.924472 4.382812,1.642578 0.893719,-0.563744 0.690652,-1.784082 -0.390625,-2.347656 C 49.795488,78.504676 42.69527,73.795628 36.279297,70.585938 35.728545,70.320633 34.864623,69.75837 34.359375,69.335938 33.854127,68.913505 33.07995,68.454099 32.640625,68.316406 32.2013,68.17871 31.69816,67.887505 31.521484,67.667969 31.344809,67.448433 28.926889,66.106963 26.148438,64.6875 23.369986,63.268038 20.684404,61.812514 20.179688,61.453125 19.333092,60.850298 18.790937,60.800781 13.177734,60.800781 Z M 204.98047,87.041016 c -0.0463,-0.05606 -0.0781,0.421296 -0.0781,1.279296 0,1.144002 0.0579,1.611063 0.12891,1.039063 0.071,-0.572 0.071,-1.508078 0,-2.080078 -0.0177,-0.143 -0.0353,-0.219594 -0.0508,-0.238281 z m 29.29101,13.548784 c -0.68196,0.0117 -1.20341,0.29369 -2.49804,1.15821 -3.16848,1.67197 -6.15834,3.68334 -9.05274,5.16211 -2.2,1.11861 -4.6494,2.48492 -5.4414,3.03515 -4.15295,2.68752 -9.05144,5.0052 -12.74219,7.32031 -1.23661,0.79999 -2.36848,1.45476 -2.51367,1.45508 -0.14518,3.6e-4 -1.25082,0.64854 -2.45703,1.44141 -1.20622,0.79286 -2.58146,1.42546 -2.96485,1.63672 -2.62151,1.44455 -1.93814,1.87657 -1.93814,2.72202 0,1.10689 1.68428,0.39195 5.07291,-1.46616 6.20929,-3.28226 5.69792,-4.43175 5.70312,4.13867 0,3.23122 0.0885,6.10246 0.19532,6.38086 0.27254,0.71023 1.19461,0.62906 1.91601,-0.16797 0.55779,-0.61629 0.61219,-1.27449 0.65039,-7.74414 l 0.043,-7.07031 c 4.99306,-3.31189 10.58277,-6.30296 14.94727,-8.83203 4.10437,-2.38156 7.89096,-4.45698 10.02343,-5.49415 1.97016,-0.9582 2.13111,-0.98059 7.30078,-1.05859 3.08574,-0.0465 5.621,0.0254 5.81323,-0.16681 0.18116,-0.18113 0.0437,-1.48989 -0.0188,-1.81658 -0.10271,-0.53677 -0.42376,-0.39216 -4.87769,-0.5833 -2.71078,-0.11634 -4.83747,-0.0252 -5.57112,-0.13525 -0.29763,-0.0446 -1.36246,0.0809 -1.58979,0.0848 z m -216.638668,0.31452 c -0.535042,-0.0843 -1.165123,-0.0432 -2.273437,0.0605 -1.32,0.12349 -4.690981,-0.0327 -6.5371837,0.0804 -2.8822473,0.17647 -2.5912847,0.63653 -2.6854725,1.13057 -0.251416,1.31875 0.4113112,1.50391 5.3652342,1.50391 4.879979,0 6.868517,0.37078 8.658203,1.61133 0.44,0.305 1.807685,1.00911 3.039063,1.5664 1.231378,0.55728 2.59844,1.34963 3.039062,1.75977 0.440622,0.41014 1.378031,0.92678 2.082031,1.14843 0.704002,0.22166 1.640079,0.6511 2.080079,0.95508 0.44,0.30399 1.807062,1.09555 3.039062,1.75782 6.069645,3.26275 9.763563,5.38059 10.107422,5.79492 0.271391,0.327 0.367571,2.4476 0.332031,7.41211 -0.02738,3.82483 0.06392,7.12624 0.203125,7.33593 0.139212,0.2097 0.664134,0.59314 1.166016,0.85352 1.704714,0.88442 1.786388,0.65002 1.861328,-5.34961 -0.242304,-10.18704 -0.569043,-8.37668 5.314454,-5.0918 1.053097,0.68429 2.510121,1.43937 3.238281,1.67969 1.164627,0.38436 1.384772,0.37693 1.832032,-0.0703 0.7576,-0.7576 -0.779297,-2.36719 -0.779297,-2.36719 -3.983712,-2.40039 -5.279998,-3.04471 -9.833985,-5.56836 -3.303112,-1.86025 -6.863977,-4.13643 -10.201171,-5.72656 -1.562126,-0.7403 -3.524023,-1.80359 -4.359376,-2.36328 -1.526319,-1.02266 -2.483863,-1.61855 -4.978515,-3.09766 -0.742101,-0.44 -1.978086,-1.22304 -2.746094,-1.74023 -0.768007,-0.51718 -1.910145,-1.12061 -2.539062,-1.33985 -0.628918,-0.21924 -1.853623,-0.77993 -2.720703,-1.24804 -0.728032,-0.39304 -1.168082,-0.6032 -1.703127,-0.6875 z m 218.207028,7.43945 v 3.88086 c 0,2.80556 0.11125,3.9263 0.40039,4.04297 0.80904,0.32645 1.20333,0.19117 2.38868,-0.82617 0.66613,-0.5717 1.31601,-1.18503 1.44531,-1.36133 0.12931,-0.1763 0.23633,-1.75953 0.23633,-3.51953 0,-3.36504 -0.0816,-3.6739 -1.11133,-4.25782 -1.31752,0.34444 -1.70476,0.72004 -3.35938,2.04102 z M 13.111328,105.69336 c -0.329236,-0.004 -0.640326,0.0599 -0.904297,0.20117 -0.625623,0.33482 -0.685589,0.61733 -0.662109,3.15625 0.0299,3.232 0.695772,4.8443 2.501953,6.0586 2.11145,1.41948 2.362134,1.06963 2.433594,-3.4043 0.04696,-2.93998 -0.03369,-3.52269 -0.613281,-4.42969 -0.608517,-0.95227 -1.768151,-1.57065 -2.75586,-1.58203 z m -6.8710936,0.38672 -0.091797,3.66015 c -0.050075,2.01323 -0.018237,3.84931 0.070312,4.08008 0.1816404,0.47334 0.7806741,0.5367 1.3925781,0.14844 0.305354,-0.19376 0.3857524,-1.23764 0.3183594,-4.07422 l -0.089844,-3.81445 H 7.0390625 Z m 239.3476556,0.16015 c -1.69259,0 -1.751,0.1297 -1.7168,3.95313 0.0343,1.80029 -0.13628,2.69396 0.82686,4.42214 2.55437,0.91089 2.1933,-0.41743 2.27266,-3.68968 0.0967,-4.05798 -0.0879,-4.68555 -1.38281,-4.68555 z m -225.009765,3.57615 c -0.500072,0.0957 -0.588237,0.50075 -0.654297,2.98632 -0.08412,3.16468 0.04882,3.49771 1.841797,4.60157 0.612888,0.37733 1.401906,0.64856 1.753906,0.60156 0.593015,-0.0793 0.634331,-0.295 0.556641,-2.9375 -0.06229,-2.48988 -0.214669,-3.4732 -0.865234,-4.33594 -0.728269,-0.7452 -1.659484,-0.86447 -2.632813,-0.91601 z m 210.457035,0.26367 c -0.651,0 -2.09398,1.49348 -2.51172,2.59961 -0.39929,1.0573 -0.58046,5.11105 -0.25196,5.64258 0.3473,0.56194 0.84442,0.49625 2.12305,-0.28321 1.72962,-1.05439 1.90492,-1.4615 1.91602,-4.45508 0.0104,-2.78484 -0.25254,-3.5039 -1.27539,-3.5039 z m -201.742191,3.71889 c -0.185133,0.009 -0.36515,0.0695 -0.560547,0.16992 -0.463136,0.23796 -0.53631,0.70745 -0.46875,3.04297 l 0.08008,2.76172 1.242188,1.07422 c 2.152902,1.86104 2.863889,1.422 3.185546,-1.96875 l 0.210938,-2.24219 -1.371094,-1.32031 c -1.165925,-1.12177 -1.762961,-1.54535 -2.318359,-1.51758 z m 194.068361,0.28121 c -0.68666,-0.21794 -3.20117,1.0016 -3.20117,1.55273 0,0.17373 -0.23422,0.57538 -0.51954,0.89063 -0.71019,0.78477 -0.34623,5.23254 0.4668,5.70703 0.68204,0.39805 0.57598,0.40602 1.64063,-0.14453 1.8279,-0.94524 2.25195,-1.88553 2.25195,-4.98828 0,-2.53242 -0.0641,-2.83521 -0.63867,-3.01758 z M 36.992188,117.5625 c -0.822956,0.20654 -0.832032,0.24204 -0.832032,3.25 v 3.04102 l 1.501953,0.95312 c 1.730352,1.09736 1.705875,1.09269 2.484375,0.52344 0.45336,-0.33151 0.533938,-0.64292 0.351563,-1.35938 -0.130169,-0.51138 -0.25927,-1.68434 -0.287109,-2.60547 -0.04438,-1.46809 -0.194961,-1.818 -1.21875,-2.84179 -0.950708,-0.95112 -1.322778,-1.13092 -2,-0.96094 z m 178.199222,0.42383 c -0.21609,-10e-4 -0.48534,0.0953 -0.82227,0.26953 -3.48439,1.53203 -3.1733,3.1369 -3.12693,4.84961 -0.0232,0.91572 0.12582,2.03023 0.33008,2.47851 0.43435,0.95332 0.92459,1.01861 2.11914,0.27735 2.19056,-1.3593 2.30859,-1.59294 2.30859,-4.57227 0,-2.40177 -0.16034,-3.2985 -0.80859,-3.30273 z m -202.125004,1.02148 c -1.121168,-0.0123 -2.250597,0.21665 -3.015625,0.68946 -0.7741215,0.4784 -1.4814672,0.63144 -2.597656,0.56054 l -1.5332031,-0.0977 v 10.07617 c 0,9.37415 0.038957,10.08239 0.5644531,10.18359 0.3106503,0.0598 1.0060685,-0.26142 1.5449219,-0.71484 1.321402,-1.11188 2.3922681,-1.03838 4.2675781,0.29492 0.866418,0.616 1.84193,1.11914 2.167969,1.11914 0.32604,0 1.443498,-0.42867 2.482422,-0.95312 1.818065,-0.91776 1.937914,-0.93526 3.199218,-0.49024 0.835605,0.29482 1.567848,0.36404 2.021485,0.19336 0.391292,-0.14719 1.160114,-0.20084 1.707031,-0.11914 1.403566,0.20955 1.655411,-0.6324 0.632812,-2.11914 -1.657533,-2.40985 -1.846773,-3.95062 -0.748046,-6.11328 0.494101,-0.97256 1.121652,-1.62103 1.998046,-2.06836 0.927673,-0.4735 1.321103,-0.90014 1.439454,-1.56055 0.124252,-0.69334 0.505329,-1.07369 1.603515,-1.59961 1.649595,-0.78998 1.767187,-1.50185 0.445313,-2.68945 -0.980687,-0.88107 -1.710866,-0.90368 -3.279297,-0.10352 -1.417058,0.72293 -1.725248,0.59183 -2.394531,-1.01562 -0.656957,-1.57783 -1.713804,-2.06704 -3.384766,-1.56641 -1.376071,0.41228 -2.113299,0.20876 -4.152344,-1.15039 -0.733945,-0.48922 -1.847582,-0.74359 -2.96875,-0.75586 z m 226.199214,0.0117 c -1.12808,0.0307 -2.17842,0.32096 -2.98046,0.86524 -1.86184,1.26348 -2.85963,1.53363 -3.96875,1.07421 -1.50623,-0.62389 -2.50059,-0.18192 -3.18555,1.41602 -0.73034,1.70381 -1.11639,1.86521 -2.63867,1.10156 -1.64365,-0.82453 -2.38783,-0.74889 -3.49219,0.35547 -0.78215,0.78215 -0.89309,1.06259 -0.61719,1.57813 0.18457,0.34487 0.66045,0.72913 1.05664,0.85351 0.78214,0.24554 1.95038,1.36679 2.25782,2.16797 0.10579,0.27568 0.77112,0.86594 1.47851,1.3125 0.7074,0.44656 1.50638,1.23759 1.77539,1.75781 0.98223,1.89942 0.46904,4.82415 -1.1582,6.60743 -0.89241,0.97795 -0.46823,1.83356 0.8125,1.63867 0.54691,-0.0832 1.26579,-0.01 1.59765,0.16406 0.40898,0.21428 1.20888,0.18777 2.48047,-0.082 1.81665,-0.38551 1.91506,-0.36958 3.09375,0.44726 1.68553,1.16806 2.75655,1.07558 4.96094,-0.42187 2.03776,-1.3843 2.3458,-1.3801 3.99219,0.0391 0.57812,0.49831 1.38564,0.90625 1.79297,0.90625 0.16662,0 0.29105,0.0127 0.39453,0.0625 0.005,5e-5 0.0101,-3.5e-4 0.0156,0 0.59002,0.0377 1.9299,0.0702 2.50066,0.13692 -0.0968,-7.02454 -0.20575,-15.26601 -0.18987,-21.86706 -0.0814,0.31255 -2.10256,0.85594 -2.30878,0.82194 -0.20622,-0.0339 -0.90099,0.048 -1.54297,0.18164 -0.88297,0.18378 -1.53483,0.0787 -2.67969,-0.42774 -1.11261,-0.49216 -2.31915,-0.72016 -3.44727,-0.68945 z M 34.818359,126.7285 c -0.854964,0.0288 -1.613695,0.17642 -1.822265,0.42773 -0.199465,0.24034 -1.015317,0.52745 -1.8125,0.63672 -2.377853,0.32592 -2.71979,0.63416 -2.498047,2.25195 0.218987,1.59768 -0.0092,1.84192 -1.964844,2.10352 l -1.28125,0.17187 -0.0918,1.59961 c -0.07661,1.33795 0.08156,1.88326 0.960938,3.33008 1.542774,2.53829 2.018119,2.75897 3.84375,1.78711 l 1.486328,-0.79102 1.03125,0.86719 c 0.635539,0.53478 1.594256,0.94764 2.5,1.07422 C 38.3198,140.62771 40,139.87806 40,138.03125 c 0,-0.58872 0.12772,-1.07031 0.283203,-1.07031 0.155485,0 0.360761,-0.32471 0.457031,-0.72071 0.09627,-0.396 0.320843,-1.28725 0.498047,-1.98046 0.4732,-1.85117 0.145103,-2.93528 -1.113281,-3.67774 -0.684448,-0.40384 -1.27331,-1.12005 -1.607422,-1.95508 -0.324486,-0.81097 -0.824839,-1.42963 -1.302734,-1.61133 -0.590323,-0.22441 -1.541521,-0.31586 -2.396485,-0.2871 z m 183.121091,0 c -0.86531,-0.0181 -1.81331,0.0944 -2.36914,0.34765 -0.44044,0.20067 -0.99302,0.89478 -1.26758,1.59375 -0.31138,0.79269 -0.9001,1.48256 -1.63476,1.91602 -1.09579,0.64655 -1.14844,0.75752 -1.14844,2.43554 0,1.27337 0.17704,1.98096 0.64063,2.57032 0.40982,0.52101 0.64062,1.2994 0.64062,2.16211 0,1.7964 0.80373,2.55427 2.4707,2.32617 0.66449,-0.091 1.56782,-0.0617 2.00782,0.0664 0.88944,0.25892 1.63488,-0.0299 2.99804,-1.16406 l 0.91602,-0.76172 1.10156,0.64844 c 1.25925,0.74297 2.30602,0.82807 3.07422,0.25 0.51241,-0.38559 2.79102,-4.98556 2.79102,-5.63476 0,-0.57434 -1.66887,-1.64454 -2.56446,-1.64454 -1.14177,0 -1.63747,-0.63369 -1.54687,-1.97851 0.10363,-1.53874 -0.15744,-1.78933 -2.125,-2.03516 -0.95996,-0.11994 -1.91046,-0.41773 -2.11328,-0.66211 -0.22371,-0.26955 -1.00578,-0.41744 -1.8711,-0.43554 z m -112.64453,24.31054 c -0.66604,0 -1.16645,0.31739 -1.85351,1.17383 -0.91955,1.14625 -0.95859,1.16095 -1.70703,0.63672 -0.73087,-0.51191 -0.79129,-0.50425 -1.29688,0.16601 -0.511782,0.6785 -0.55791,0.68322 -1.371094,0.1504 -0.763645,-0.50035 -0.907094,-0.50535 -1.544922,-0.0586 -1.070262,0.74964 -1.767882,0.59844 -2.830078,-0.61133 -1.094163,-1.24619 -1.603175,-1.20695 -2.792968,0.20703 -0.95352,1.13321 -1.23856,1.12212 -2.708985,-0.0898 l -1.195312,-0.98437 -0.966797,0.8125 c -1.406678,1.18365 -3.054459,1.42256 -3.859375,0.55859 -0.70727,-0.75917 -1.025052,-0.82207 -1.875,-0.36719 -0.432884,0.23167 -0.779577,0.16027 -1.337891,-0.27734 -0.547971,-0.42951 -1.25887,-0.58475 -2.599609,-0.56445 l -1.845703,0.0293 0.0625,0.96875 c 0.0345,0.53362 -0.110666,1.29165 -0.322266,1.6836 -0.746339,1.38245 0.412385,2.31326 2.890625,2.32226 0.649612,0.002 1.262078,0.13629 1.361328,0.29688 0.09925,0.16061 -0.180227,0.25345 -0.621094,0.20508 -0.440868,-0.0484 -0.800781,0.0357 -0.800781,0.1875 0,0.1518 0.647453,0.27539 1.439453,0.27539 0.792,0 1.439453,-0.14007 1.439453,-0.31055 0,-0.1705 -0.250593,-0.21971 -0.558593,-0.11133 -0.457139,0.16086 -0.486685,0.11754 -0.160157,-0.23437 0.31111,-0.3353 0.484536,-0.34551 0.783204,-0.0469 0.462918,0.46289 1.441552,0.50612 1.589843,0.0703 0.0652,-0.19163 0.717463,-0.12928 1.677735,0.16016 2.605638,0.78536 4.382084,0.6317 5.808593,-0.50195 1.495862,-1.18874 2.741642,-1.18307 3.021485,0.0137 0.253869,1.08562 0.911035,1.13491 3.130859,0.23828 1.705891,-0.68904 2.242301,-0.74847 5.570317,-0.62109 3.57782,0.13695 3.68892,0.12111 3.86718,-0.56055 0.1011,-0.38592 0.10346,-1.18548 0.008,-1.77735 -0.096,-0.59184 -0.0201,-1.51726 0.16796,-2.05664 0.32938,-0.94488 0.30869,-0.98242 -0.57031,-0.98242 z m 40.77539,0 c -0.66343,0 -0.7002,0.13087 -0.6582,2.32032 0.0245,1.276 0.16351,2.51011 0.30859,2.74218 0.19899,0.31828 1.18014,0.40159 3.99219,0.33789 3.50003,-0.0793 3.82383,-0.0322 5.32617,0.76367 1.95291,1.0346 3.04102,1.12893 3.04102,0.26368 0,-1.96971 1.3275,-2.1586 3.21094,-0.45703 l 1.29492,1.16796 2.30664,-0.39453 c 1.2689,-0.21739 2.75408,-0.58767 3.30078,-0.82226 0.68648,-0.29461 1.78162,-0.37228 3.53711,-0.25196 1.99441,0.1367 2.76293,0.06 3.56641,-0.35546 1.17716,-0.60875 1.16571,-0.55994 0.54492,-2.3418 -0.25835,-0.74161 -0.39825,-1.5352 -0.31055,-1.76367 0.24796,-0.64619 -2.68351,-0.51497 -3.96094,0.17773 -0.9744,0.52842 -1.11816,0.53688 -1.625,0.0781 -0.74952,-0.6783 -0.96559,-0.642 -1.98633,0.33593 -0.73485,0.70407 -1.05878,0.805 -2.00781,0.62696 -0.62246,-0.11677 -1.5488,-0.56096 -2.05664,-0.98828 l -0.92187,-0.77735 -0.74219,0.78906 c -1.01389,1.07923 -2.21079,1.01876 -3.34961,-0.16992 -1.1896,-1.24168 -1.6528,-1.21078 -2.30469,0.15625 -0.68329,1.43288 -1.43056,1.65916 -2.60742,0.78906 -0.90857,-0.67171 -0.95728,-0.67432 -1.81055,-0.11523 -0.82225,0.53879 -0.90098,0.54069 -1.27343,0.0312 -0.28891,-0.39509 -0.66208,-0.49102 -1.36915,-0.34961 -0.81161,0.16232 -1.11611,0.031 -1.85546,-0.79883 -0.48688,-0.54644 -1.20323,-0.99414 -1.58985,-0.99414 z M 9.4960938,153.32812 c -0.4457271,0.098 -0.8772688,0.50585 -1.3359376,1.23243 -0.4815791,0.76287 -1.0545243,1.27929 -1.4179687,1.27929 -1.3401783,0 -1.6230469,0.33813 -1.6230469,1.94336 0,1.25514 0.1313146,1.62362 0.6777344,1.91602 0.7421878,0.3972 1.8100517,0.2815 3.3945312,-0.36914 0.8871248,-0.36428 1.2420698,-0.34688 2.5585938,0.125 2.102943,0.75375 2.694693,0.69271 4.089844,-0.41602 0.664402,-0.528 1.342316,-0.95898 1.505859,-0.95898 0.163542,0 0.761618,0.35547 1.330078,0.78906 0.943872,0.71992 1.303498,0.78461 4.146485,0.75391 1.712228,-0.0185 3.18887,0.0424 3.28125,0.13476 0.09238,0.0924 0.660914,0.0574 1.261718,-0.0781 0.600805,-0.13547 1.734474,-0.11072 2.519532,0.0566 1.138323,0.24278 1.632307,0.19776 2.445312,-0.22266 0.560698,-0.28995 0.924398,-0.37023 0.806641,-0.17969 -0.140387,0.22715 0.239461,0.34571 1.103515,0.34571 0.724774,0 1.242851,-0.1219 1.150391,-0.27149 -0.09245,-0.14954 0.581933,-0.20298 1.5,-0.11718 0.918067,0.0858 1.717624,0.28448 1.777344,0.43945 0.05971,0.15496 0.298617,0.47049 0.53125,0.70312 0.6416,0.6416 3.931224,0.28589 5.121093,-0.55468 0.57931,-0.40925 1.656686,-0.74325 2.71875,-0.83985 l 1.761719,-0.1582 0.09375,-2.3125 0.09375,-2.31055 -1.470703,0.14844 c -0.808679,0.0818 -1.766114,0.30689 -2.126953,0.5 -0.545798,0.29211 -0.804699,0.20935 -1.541016,-0.49609 -0.857657,-0.82169 -0.889577,-0.82831 -1.05664,-0.18946 -0.127405,0.4872 -0.451506,0.67143 -1.242188,0.70313 -2.434617,0.0978 -3.948301,-0.13995 -4.773437,-0.75 -1.07489,-0.7947 -1.8925,-0.57103 -2.660156,0.72851 -0.41983,0.71074 -0.726943,0.91868 -1.109376,0.75391 -0.290818,-0.12529 -1.175968,-0.31974 -1.96875,-0.43359 -1.676922,-0.2408 -2.238281,-0.52799 -2.238281,-1.14258 0,-0.80766 -0.720253,-0.90521 -1.273437,-0.17188 -0.479003,0.63503 -0.623229,0.67148 -1.216797,0.30078 -0.575888,-0.35964 -0.764459,-0.33981 -1.291016,0.13672 -0.517393,0.46823 -0.751799,0.49711 -1.457031,0.17578 -0.680971,-0.31023 -0.945461,-0.29441 -1.400391,0.082 -0.308715,0.25551 -0.960084,0.66435 -1.447265,0.9082 -0.834025,0.41746 -0.947416,0.38351 -1.935547,-0.57422 -1.152847,-1.11738 -1.850894,-1.26981 -2.458985,-0.53711 -0.557835,0.67215 -1.105136,0.59936 -2.128906,-0.28125 l -0.884765,-0.75976 -0.857422,0.63476 -0.859375,0.63477 -0.675782,-0.67383 C 10.401041,153.442 9.9418207,153.2301 9.4960938,153.32806 Z m 207.4492162,0.2168 -1.09375,0.64649 c -1.55381,0.91676 -5.78297,1.21262 -6.22461,0.43554 -0.25471,-0.44819 -0.42234,-0.4782 -0.92968,-0.16797 -0.38266,0.23403 -1.47819,0.329 -2.86915,0.25 l -2.25,-0.12695 -0.13476,1.82813 c -0.17187,2.34228 0.38461,2.94921 2.70508,2.94922 1.23241,-3e-5 1.81359,0.18222 2.53711,0.79101 1.0654,0.89648 2.13628,0.84788 4.20312,-0.18555 0.66453,-0.33228 1.67277,-0.58269 2.24024,-0.55859 0.56747,0.0241 1.49652,-0.15103 2.06445,-0.38867 0.92917,-0.3888 1.1771,-0.36063 2.49023,0.27734 1.27954,0.62164 1.6311,0.66523 2.85352,0.35742 0.94793,-0.23869 1.58826,-0.24858 1.99805,-0.0293 0.36671,0.19628 2.13478,0.25227 4.51562,0.14257 3.4442,-0.15869 4.03545,-0.27096 4.9336,-0.93359 0.5612,-0.41407 1.13189,-0.75195 1.26757,-0.75195 0.13569,0 0.75575,0.44701 1.37891,0.99414 1.22094,1.07201 1.69703,1.10122 4.59766,0.27148 1.18629,-0.33934 1.5474,-0.3207 2.49023,0.12891 0.60666,0.28929 1.66268,0.52539 2.3457,0.52539 h 1.16602 c 0.0174,-0.006 0.0369,-0.0103 0.0606,-0.0117 0.17906,-0.011 0.35851,-0.0165 0.5371,-0.0332 0.22872,-0.0214 0.45503,-0.0592 0.6836,-0.082 0.12555,-0.0125 0.23702,-0.0226 0.3418,-0.0312 -0.0427,-1.80758 -0.12556,-3.95158 -0.1836,-5.94922 -0.61893,0.25175 -0.72973,0.32665 -1.33984,0.66406 -0.051,0.18232 -0.0865,0.48381 -0.14844,0.57227 -0.7267,1.0375 -1.93364,0.92698 -2.5332,-0.23243 -0.7359,-1.42309 -1.38078,-1.65425 -2.68164,-0.95703 -1.04349,0.55927 -1.16407,0.56395 -2.00977,0.0645 -0.86044,-0.50828 -0.93172,-0.50145 -1.64844,0.17187 -0.88535,0.83174 -1.72416,0.89744 -2.5,0.19531 -0.562,-0.5086 -1.88867,-0.37693 -1.88867,0.1875 0,0.42031 -0.95276,1.28125 -1.41797,1.28125 -0.22687,0 -0.95971,-0.37205 -1.6289,-0.82617 -0.93989,-0.63783 -1.36878,-0.75729 -1.88477,-0.52539 -0.43014,0.19331 -0.93318,0.18175 -1.41211,-0.0352 -0.5453,-0.2469 -0.91627,-0.22981 -1.39062,0.0664 -0.53579,0.33464 -0.74192,0.31806 -1.20117,-0.0977 -0.60705,-0.54939 -1.30469,-0.66648 -1.30469,-0.21876 0,0.52888 -2.08863,1.27843 -3.52735,1.26563 -1.1692,-0.0104 -1.59597,-0.18836 -2.32031,-0.96875 z m -88.42773,5.81446 c -0.74266,0 -0.76835,0.0758 -0.71485,2.20312 0.0822,3.2658 0.22612,3.36515 4.51368,3.15039 3.23735,-0.16215 3.65302,-0.11491 5.12304,0.57617 1.91916,0.90216 3.14903,0.89856 3.30469,-0.01 0.14468,-0.84384 0.94627,-1.44315 1.60742,-1.20313 0.2909,0.10561 1.01521,0.61286 1.61133,1.12695 0.92429,0.79714 1.27801,0.91112 2.40039,0.77149 1.95394,-0.24307 4.40665,-0.75722 5.34375,-1.11914 0.49627,-0.19169 1.0072,-0.20358 1.2793,-0.0312 0.24931,0.15781 1.2732,0.28801 2.27539,0.29101 1.46053,0.004 1.99768,-0.14542 2.70508,-0.7539 0.85515,-0.73557 0.86994,-0.79955 0.45508,-2.05664 -0.23546,-0.71355 -0.35126,-1.59602 -0.25586,-1.96094 0.17792,-0.68037 -0.21204,-0.91714 -0.56641,-0.34375 -0.27158,0.43947 -1.66899,0.40453 -1.94922,-0.0488 -0.13628,-0.22048 -0.0901,-0.28437 0.11719,-0.15625 0.19104,0.11806 0.43829,0.0695 0.54883,-0.10937 0.37535,-0.60733 -0.59663,-0.32865 -1.82618,0.52343 l -1.22461,0.84766 -0.76367,-0.71484 -0.76172,-0.7168 -1.09765,1.19531 c -0.9396,1.02534 -1.2245,1.16339 -2,0.96875 -0.49754,-0.12487 -1.37201,-0.69426 -1.94336,-1.26562 l -1.03906,-1.03906 -0.84375,1.05859 c -1.04641,1.31143 -1.89744,1.33849 -3.05664,0.0977 -1.13033,-1.21003 -1.80416,-1.21447 -2.49219,-0.0156 -0.6837,1.19128 -1.84549,1.52232 -2.68164,0.76562 -0.5249,-0.47502 -0.76886,-0.50185 -1.61719,-0.18164 -0.71129,0.26848 -1.11735,0.27808 -1.41016,0.0352 -0.22628,-0.18785 -0.82408,-0.25089 -1.32617,-0.14062 -0.73509,0.16146 -1.11051,0.0114 -1.92969,-0.77149 -0.55952,-0.53471 -1.36227,-0.97267 -1.78515,-0.97265 z m -11.15039,0.19335 c -0.29685,-0.10382 -0.64414,0.15704 -1.57422,1.00586 -1.23607,1.12809 -1.49236,1.23524 -2.2832,0.96485 -0.61674,-0.21088 -1.02912,-0.18961 -1.33985,0.0684 -0.33305,0.27639 -0.62096,0.28018 -1.11523,0.0156 -0.5187,-0.27761 -0.82156,-0.24625 -1.3711,0.13867 -1.17718,0.82452 -2.43394,0.63292 -3.05859,-0.46484 -0.66532,-1.1692 -1.31553,-1.21503 -2.30469,-0.16211 -1.04627,1.1137 -2.20963,1.03615 -3.3125,-0.2207 l -0.89648,-1.01953 -0.79883,1.01953 c -0.675933,0.86368 -1.00912,1.02148 -2.166016,1.02148 -0.960813,0 -1.540235,-0.19086 -1.947265,-0.64062 -0.702646,-0.77642 -1.053614,-0.79867 -1.806641,-0.11719 -0.533808,0.48314 -0.636468,0.48238 -1.390625,-0.0117 -0.448343,-0.29377 -1.604192,-0.57204 -2.568359,-0.61914 l -1.753906,-0.0859 v 1.04102 c 0,0.57344 -0.169741,1.41631 -0.376954,1.87109 -0.313958,0.68907 -0.285021,0.91818 0.171875,1.375 0.441194,0.44112 1.186279,0.55448 3.816407,0.58008 1.797661,0.0175 3.628359,0.1493 4.068359,0.29297 0.44,0.14366 1.736859,0.42417 2.880859,0.62305 2.422556,0.42115 2.690686,0.36587 4.091796,-0.8418 1.42937,-1.23203 2.18791,-1.17444 2.76758,0.21289 0.25738,0.616 0.55201,1.12109 0.6543,1.12109 0.10228,0 1.08109,-0.38516 2.17578,-0.85547 1.7728,-0.76165 2.40982,-0.85866 5.83008,-0.88085 l 3.83984,-0.0234 0.27539,-2.35547 c 0.22508,-1.93233 0.18661,-2.44035 -0.20898,-2.83594 -0.10733,-0.10733 -0.19988,-0.18219 -0.29883,-0.2168 z m -71.527346,0.22657 c -0.308,0.0804 -0.05545,0.14648 0.560547,0.14648 0.616,0 0.868544,-0.066 0.560547,-0.14648 -0.308,-0.0805 -0.813094,-0.0805 -1.121094,0 z m 203.019536,0.27539 c -0.0992,0.008 -0.20364,0.0175 -0.32227,0.0293 -0.2327,0.0232 -0.46443,0.0603 -0.69727,0.082 -0.17025,0.0159 -0.341,0.0193 -0.51172,0.0293 h -0.002 c 1.66605,18.03771 1.81032,11.75595 1.53321,-0.14062 z m -226.052739,0.043 c -0.31135,0.0812 -0.135422,0.15315 0.392578,0.16015 0.528,0.007 0.783056,-0.0608 0.566406,-0.14843 -0.21665,-0.0877 -0.647634,-0.0928 -0.958984,-0.0117 z m 18.027343,0.93945 c -0.213767,-0.0139 -0.383544,0.007 -0.451172,0.0742 -0.08544,0.0854 0.189777,0.29232 0.611329,0.46094 0.992292,0.39691 1.17108,0.40583 1.380859,0.0664 0.136292,-0.22052 -0.899715,-0.56 -1.541016,-0.60156 z m 70.046876,4.72266 c -0.264,0 -0.48047,0.14431 -0.48047,0.32031 0,0.176 0.21647,0.32031 0.48047,0.32031 0.264,0 0.4785,-0.14431 0.47852,-0.32031 -3e-5,-0.176 -0.21452,-0.32031 -0.47852,-0.32031 z M 0.125,182.40039 c -0.06916997,0 -0.125,0.21647 -0.125,0.48047 0,0.264 0.14007058,0.47852 0.31054688,0.47852 0.17047628,0 0.22630627,-0.21452 0.125,-0.47852 C 0.33424055,182.61686 0.19417,182.40039 0.125,182.40039 Z"
       sodipodi:nodetypes="ssssssccccsssssssssssssssssssssssssssssssssssscssssssssssssssssssssssssccscccssscccssssssssscsccsccssssccsccsssssssscccssscccccsccsccssssssssscsssccccssssccsscccscsssssscssssssssscssssccsccccssssscccssssscscsscsscccsscccccccccccssccccsssscsscccccccsssscssscssccssscssccsssscccccsssssssccsssssssssscccssssssssssssccsssscccccsscssssscccscccssssssscssssssssscscccssssssccssssssscccssscccscssssssscssssssccccccssssscccsscscscsscccsssscsscccssscsssssssscsssssssscccccssscssssssssccssscccccccccsscccsssssssssssssssccssccccsscsssssscscssccccsccssssccsscsssscccccsscccssscsscccssccssscccsscsccsssssssssscccscscssccsscccssscssscssscssscsssss" />
  </g>
</svg>
