<?xml version="1.0" encoding="UTF-8" standalone="no"?>
<!-- Created with Inkscape (http://www.inkscape.org/) -->

<svg
   width="7.0957942mm"
   height="5.74577mm"
   viewBox="0 0 7.0957943 5.7457699"
   version="1.1"
   id="svg13810"
   sodipodi:docname="cart-right-down.svg"
   inkscape:version="1.1.1 (3bf5ae0, 2021-09-20)"
   xmlns:inkscape="http://www.inkscape.org/namespaces/inkscape"
   xmlns:sodipodi="http://sodipodi.sourceforge.net/DTD/sodipodi-0.dtd"
   xmlns="http://www.w3.org/2000/svg"
   xmlns:svg="http://www.w3.org/2000/svg">
  <sodipodi:namedview
     id="namedview13812"
     pagecolor="#ffffff"
     bordercolor="#666666"
     borderopacity="1.0"
     inkscape:pageshadow="2"
     inkscape:pageopacity="0.0"
     inkscape:pagecheckerboard="0"
     inkscape:document-units="mm"
     showgrid="false"
     inkscape:zoom="7.8312671"
     inkscape:cx="-10.279307"
     inkscape:cy="-6.4485095"
     inkscape:window-width="1920"
     inkscape:window-height="966"
     inkscape:window-x="0"
     inkscape:window-y="27"
     inkscape:window-maximized="1"
     inkscape:current-layer="layer1" />
  <defs
     id="defs13807" />
  <g
     inkscape:label="Слой 1"
     inkscape:groupmode="layer"
     id="layer1"
     transform="translate(31.214338,-44.851056)">
    <path
       d="m -28.087063,44.853711 c -0.122307,0.01148 -0.270661,0.06068 -0.534853,0.156578 -0.690957,0.250803 -0.7703,0.252436 -1.650029,0.02997 -1.002286,-0.253458 -1.195548,-0.132118 -0.625284,0.392742 0.174625,0.160721 0.39366,0.31573 0.486794,0.34468 0.324204,0.100778 2.230648,1.417638 2.312518,1.597319 0.108249,0.23758 -0.02138,0.466664 -0.263548,0.465606 -0.272132,-0.0011 -0.964692,-0.432578 -1.498619,-0.933278 -0.256117,-0.240176 -0.60942,-0.510294 -0.784963,-0.60048 -0.294767,-0.151426 -0.323117,-0.152781 -0.37362,-0.02119 -0.09782,0.254923 0.603945,1.477208 1.327049,2.311485 0.429408,0.495427 0.677994,0.855064 0.677994,0.979786 0,0.337656 0.710137,0.836361 1.382345,0.971 1.325062,0.265401 2.781877,-0.573813 3.349667,-1.929599 0.265139,-0.633113 0.222817,-0.794617 -0.24443,-0.928108 -0.20955,-0.05987 -0.473016,-0.136234 -0.585493,-0.1695 -0.16092,-0.04759 -0.291497,-0.258826 -0.612884,-0.991669 -0.484246,-1.104209 -0.819547,-1.481261 -1.319297,-1.483114 -0.175313,-7.93e-4 -0.47398,-0.0552 -0.664043,-0.121441 -0.160608,-0.05597 -0.257001,-0.08229 -0.379304,-0.07079 z m -0.01913,0.232026 c 0.08348,-0.0082 0.153567,0.01429 0.255799,0.06305 0.353859,0.168767 0.369147,0.583086 0.03049,0.824241 -0.222078,0.15813 -0.244858,0.209857 -0.174148,0.39584 0.04471,0.117599 0.08113,0.24947 0.08113,0.293005 0,0.09484 -0.374613,0.09169 -0.698148,-0.0057 -0.299878,-0.09024 -1.33377,-0.910971 -1.33377,-1.058852 0,-0.07771 0.178406,-0.129913 0.571543,-0.166915 0.314325,-0.02959 0.733009,-0.130323 0.930174,-0.223758 0.156496,-0.07416 0.253447,-0.112725 0.336931,-0.120922 z m 1.16427,0.482665 c 0.04663,-0.0028 0.09178,0.0058 0.129191,0.02894 0.04698,0.02904 0.08527,0.126656 0.08527,0.217043 0,0.126151 -0.05875,0.16433 -0.253733,0.16433 -0.194603,0 -0.254246,-0.03845 -0.254246,-0.163814 0,-0.12722 0.153628,-0.237993 0.293521,-0.246496 z m 0.632002,0.322962 0.140044,0.213942 c 0.191942,0.292936 0.365533,0.799434 0.370004,1.080037 0.0033,0.206772 -0.02693,0.233035 -0.271301,0.234093 -0.151342,5.29e-4 -0.360831,0.02413 -0.465606,0.0522 -0.104775,0.02807 -0.194524,0.01762 -0.199472,-0.02273 -0.03673,-0.299487 -0.01979,-0.441899 0.07752,-0.650605 0.07371,-0.15811 0.08317,-0.272984 0.02842,-0.338998 -0.05675,-0.06842 -0.01939,-0.173159 0.118854,-0.33383 z m -0.989086,0.357087 c 0.229285,0.02212 0.279977,0.06541 0.302307,0.259416 0.02257,0.196176 -0.0043,0.231979 -0.1695,0.226343 -0.315912,-0.01077 -0.407725,-0.07906 -0.407725,-0.302307 0,-0.185828 0.03131,-0.206947 0.274918,-0.183452 z m -0.11317,0.697635 c 0.05046,-0.0013 0.106934,0.0061 0.168465,0.02223 0.172188,0.04503 0.259628,0.365353 0.09974,0.365353 -0.04276,0 -0.128151,0.01606 -0.19017,0.03566 -0.177609,0.05612 -0.324527,-0.03586 -0.324527,-0.203088 0,-0.136298 0.09512,-0.216099 0.246497,-0.220142 z m -2.340944,0.46301 c 0.13612,0.02635 0.361101,0.168516 0.713653,0.438732 0.299254,0.229365 0.570404,0.415518 0.602546,0.41393 0.03214,-0.0016 0.306065,-0.06301 0.608748,-0.136427 0.855959,-0.207616 1.439706,-0.242813 1.439706,-0.08681 0,0.07046 -0.105002,0.152199 -0.23306,0.181383 -0.682133,0.155466 -0.645277,0.517543 0.04961,0.487309 0.435001,-0.01892 0.761418,0.137007 0.65319,0.312127 -0.03502,0.05666 -0.164399,0.09685 -0.287837,0.08888 -0.123442,-0.008 -0.3961,-0.0093 -0.605648,-0.0026 -0.368937,0.01196 -0.373951,0.01603 -0.168984,0.125058 0.116417,0.06192 0.4113,0.162835 0.655775,0.224274 0.446408,0.112186 0.577758,0.280358 0.290423,0.371555 -0.0848,0.02691 -0.398772,0.01482 -0.698151,-0.02687 -0.299381,-0.04157 -0.560747,-0.06099 -0.580326,-0.04289 -0.01958,0.0181 0.04724,0.120819 0.148312,0.228409 0.101079,0.107593 0.183967,0.221809 0.183967,0.253731 0,0.125626 -0.823232,-0.05251 -1.251085,-0.270786 -0.237603,-0.121216 -0.386926,-0.280476 -0.511598,-0.545703 -0.0968,-0.205922 -0.228026,-0.426889 -0.29197,-0.490924 -0.347898,-0.348382 -0.91367,-1.224137 -0.891419,-1.379762 0.0093,-0.06476 0.03011,-0.108834 0.06615,-0.130741 0.02703,-0.01643 0.06263,-0.02066 0.108003,-0.01188 z"
       style="fill:#000000;stroke-width:0.0846667"
       id="path13805"
       sodipodi:nodetypes="scsssscsccsssssssccsscccsscscsccccsssccccccsccscccccscccscscccscssccscccsccsssscccscc" />
  </g>
</svg>
