<?xml version="1.0" encoding="UTF-8" standalone="no"?>
<!-- Created with Inkscape (http://www.inkscape.org/) -->

<svg
   width="6.434751mm"
   height="6.4995513mm"
   viewBox="0 0 6.4347511 6.4995512"
   version="1.1"
   id="svg13810"
   sodipodi:docname="cart-right-up.svg"
   inkscape:version="1.1.1 (3bf5ae0, 2021-09-20)"
   xmlns:inkscape="http://www.inkscape.org/namespaces/inkscape"
   xmlns:sodipodi="http://sodipodi.sourceforge.net/DTD/sodipodi-0.dtd"
   xmlns="http://www.w3.org/2000/svg"
   xmlns:svg="http://www.w3.org/2000/svg">
  <sodipodi:namedview
     id="namedview13812"
     pagecolor="#ffffff"
     bordercolor="#666666"
     borderopacity="1.0"
     inkscape:pageshadow="2"
     inkscape:pageopacity="0.0"
     inkscape:pagecheckerboard="0"
     inkscape:document-units="mm"
     showgrid="false"
     inkscape:zoom="7.8312671"
     inkscape:cx="24.197872"
     inkscape:cy="34.030253"
     inkscape:window-width="1920"
     inkscape:window-height="966"
     inkscape:window-x="0"
     inkscape:window-y="27"
     inkscape:window-maximized="1"
     inkscape:current-layer="layer1" />
  <defs
     id="defs13807" />
  <g
     inkscape:label="Слой 1"
     inkscape:groupmode="layer"
     id="layer1"
     transform="translate(29.860081,-35.654143)">
    <path
       d="m -26.051526,35.654323 c -0.138501,-0.0031 -0.263593,0.03384 -0.328146,0.111619 -0.05305,0.06392 -0.333992,0.142209 -0.62425,0.174149 -0.395859,0.04356 -0.787689,0.184081 -1.568382,0.563274 -0.572428,0.278038 -1.062834,0.562412 -1.089339,0.631487 -0.08387,0.218567 0.127415,0.354118 0.642339,0.412377 0.351917,0.03981 0.587862,0.123997 0.799952,0.285771 0.165457,0.126206 0.397198,0.297706 0.515212,0.381373 0.118015,0.08367 0.212969,0.198212 0.210323,0.254246 -0.0026,0.05603 -0.183893,0.216352 -0.402558,0.356052 -0.294127,0.187913 -0.404209,0.31518 -0.424265,0.489892 -0.03688,0.321318 0.261535,0.908 0.634587,1.247468 0.307105,0.279458 0.307168,0.280273 0.131258,0.422714 -0.09695,0.0785 -0.455322,0.230535 -0.796333,0.337963 -0.341013,0.107429 -0.657783,0.222809 -0.70435,0.256315 -0.04657,0.03351 -0.180205,0.08953 -0.296621,0.124024 -0.238782,0.07074 -0.507982,0.283199 -0.507982,0.40101 0,0.129376 3.892505,-0.01926 4.168222,-0.159162 0.127011,-0.06444 0.45053,-0.140357 0.719336,-0.168466 0.606769,-0.06345 0.795531,-0.214291 0.773597,-0.618051 -0.01117,-0.205626 0.05366,-0.403516 0.202054,-0.620117 0.254426,-0.371358 0.571542,-1.26093 0.571542,-1.603002 0,-0.314581 -0.255032,-0.555662 -0.651639,-0.615984 -0.177223,-0.02695 -0.455586,-0.07673 -0.618567,-0.110588 l -0.296108,-0.06149 -0.04961,-0.762227 c -0.05346,-0.823146 -0.255056,-1.35925 -0.603062,-1.603002 -0.116811,-0.08182 -0.268713,-0.124561 -0.40721,-0.12764 z m -0.350885,0.518845 c 0.04691,-0.01638 0.0921,-0.0037 0.151413,0.03256 0.177888,0.10872 0.21979,0.214593 0.135909,0.34313 -0.03417,0.05236 -0.185589,0.122198 -0.336931,0.15503 -0.327832,0.07113 -0.369332,-0.07394 -0.111104,-0.388606 0.06554,-0.07986 0.113811,-0.125722 0.160713,-0.142111 z m -0.580842,0.02532 c 0.121851,0.07531 0.110794,0.720884 -0.01241,0.720884 -0.05454,0 -0.169318,-0.06323 -0.254767,-0.140557 -0.190895,-0.17276 -0.20532,-0.158086 -0.278019,0.282151 -0.05371,0.32524 -0.04278,0.355164 0.138493,0.380855 0.226878,0.03214 0.320363,0.420986 0.150379,0.625803 -0.154058,0.185628 -0.257008,0.147552 -0.699182,-0.259417 -0.244673,-0.225192 -0.523584,-0.396586 -0.698664,-0.429432 -0.525087,-0.09851 -0.364466,-0.295259 0.639755,-0.782896 0.510365,-0.247825 0.966864,-0.426773 1.014407,-0.397391 z m 1.213363,0.0181 c 0.0528,-0.03147 0.107961,0.02209 0.189651,0.146759 0.102854,0.156964 0.159282,0.464363 0.188621,1.025261 l 0.04186,0.800986 h -0.264583 c -0.218797,0 -0.263864,-0.03316 -0.261482,-0.190688 0.0016,-0.104775 -0.03608,-0.399581 -0.08372,-0.655256 -0.063,-0.338204 -0.05938,-0.546053 0.01344,-0.762228 0.07305,-0.216908 0.12342,-0.333367 0.176217,-0.364834 z m -0.610817,0.872297 c 0.223708,0 0.379767,0.190281 0.283705,0.345715 -0.153199,0.247883 -0.715201,0.251204 -0.715201,0.0041 0,-0.212119 0.169942,-0.34985 0.431496,-0.34985 z m 0.01085,0.710555 c 0.04896,0.01312 0.07765,0.0454 0.0987,0.100251 0.02999,0.07816 0.01122,0.194437 -0.04186,0.258384 -0.109683,0.132159 -0.20666,0.138004 -0.478006,0.02894 -0.329584,-0.132477 -0.252331,-0.275966 0.201022,-0.373105 0.102071,-0.02188 0.171183,-0.02757 0.220141,-0.01447 z m -0.289388,1.505268 c 0.306004,-0.04338 0.439767,0.130609 0.439767,0.571542 0,0.363032 0.105545,0.599445 0.267684,0.599445 0.09564,0 0.400098,-0.337301 0.635103,-0.703831 0.256953,-0.400759 0.562388,-0.414094 0.606682,-0.02635 0.02151,0.188309 -0.04461,0.317727 -0.290939,0.569989 -0.411697,0.421616 -0.300675,0.544502 0.120407,0.133326 0.379566,-0.370639 0.692981,-0.418068 0.692981,-0.104904 0,0.154625 -0.123148,0.296428 -0.486794,0.560173 l -0.486791,0.352951 0.402042,-0.05736 c 0.36126,-0.05146 0.402564,-0.04057 0.402559,0.106971 0,0.196909 -0.41679,0.394708 -0.665591,0.315744 -0.09354,-0.02969 -0.372621,0.0016 -0.620118,0.06976 -0.247496,0.06807 -0.952611,0.143182 -1.566828,0.166915 -0.936482,0.03618 -1.134419,0.02201 -1.224732,-0.08682 -0.147971,-0.178292 -0.0042,-0.272248 0.873331,-0.57154 0.934538,-0.318754 0.941883,-0.326707 0.782381,-0.870749 -0.178559,-0.609049 -0.134638,-0.989327 0.118856,-1.02526 z"
       style="fill:#000000;stroke-width:0.0846667"
       id="path13805"
       sodipodi:nodetypes="csssccsscscscsscscsscsccccsccscscssscscscsssscccsccsccccccssccsccccssssssssssccccsccccsss" />
  </g>
</svg>
