<?xml version="1.0" encoding="UTF-8" standalone="no"?>
<!-- Created with Inkscape (http://www.inkscape.org/) -->

<svg
   width="8.3563776mm"
   height="7.5526819mm"
   viewBox="0 0 8.3563777 7.5526817"
   version="1.1"
   id="svg13223"
   sodipodi:docname="cart-left-down.svg"
   inkscape:version="1.1.1 (3bf5ae0, 2021-09-20)"
   xmlns:inkscape="http://www.inkscape.org/namespaces/inkscape"
   xmlns:sodipodi="http://sodipodi.sourceforge.net/DTD/sodipodi-0.dtd"
   xmlns="http://www.w3.org/2000/svg"
   xmlns:svg="http://www.w3.org/2000/svg">
  <sodipodi:namedview
     id="namedview13225"
     pagecolor="#ffffff"
     bordercolor="#666666"
     borderopacity="1.0"
     inkscape:pageshadow="2"
     inkscape:pageopacity="0.0"
     inkscape:pagecheckerboard="0"
     inkscape:document-units="mm"
     showgrid="false"
     inkscape:zoom="7.8312671"
     inkscape:cx="36.201038"
     inkscape:cy="2.8730983"
     inkscape:window-width="1920"
     inkscape:window-height="966"
     inkscape:window-x="0"
     inkscape:window-y="27"
     inkscape:window-maximized="1"
     inkscape:current-layer="layer1" />
  <defs
     id="defs13220" />
  <g
     inkscape:label="Слой 1"
     inkscape:groupmode="layer"
     id="layer1"
     transform="translate(-3.1134169,-100.49491)">
    <path
       d="m 10.065243,100.49499 c -0.418021,0.001 -0.9655736,0.0526 -1.633493,0.154 -3.0676849,0.46585 -3.7981889,1.01443 -3.0463251,2.28875 0.1750853,0.29675 0.1614381,0.50476 -0.075964,1.15962 -0.1081908,0.29844 -0.1360699,0.31594 -0.5849779,0.36897 -0.5415703,0.064 -1.1449102,0.30338 -1.4226513,0.56431 -0.2473272,0.23235 -0.2512007,0.66222 -0.011377,1.30328 0.2934203,0.78423 0.8589539,1.26293 1.8939404,1.603 0.4583641,0.1506 0.8309794,0.14786 1.3916474,-0.0104 0.5629539,-0.15882 1.0371534,-0.46919 1.3942298,-0.91209 0.2295684,-0.28474 0.2625143,-0.3899 0.2625143,-0.84646 0,-0.2868 -0.03066,-0.60583 -0.068212,-0.709 -0.058661,-0.16115 -0.023363,-0.2092 0.2506319,-0.339 0.2619851,-0.1241 0.3806375,-0.27282 0.6650752,-0.83302 0.4823089,-0.94992 0.7120361,-1.22221 1.5642463,-1.85674 0.677013,-0.50408 0.914096,-0.79907 0.796332,-0.9896 -0.08192,-0.13255 -0.369192,-0.0692 -0.838189,0.18449 -0.40704,0.22021 -1.7357573,0.59221 -2.1151168,0.59221 -0.1939502,0 -0.1539426,-0.31994 0.067696,-0.54157 0.150913,-0.15092 0.424897,-0.23907 1.1994091,-0.38551 0.9945427,-0.18804 1.3988817,-0.31303 1.3988817,-0.4315 0,-0.0337 -0.104488,-0.13119 -0.232545,-0.21652 -0.149098,-0.0994 -0.43774,-0.14834 -0.855761,-0.14728 z m -1.8081603,0.39222 c 0.2752698,-0.019 0.4084372,0.005 0.4495852,0.0703 0.1163585,0.18371 0.093488,0.23098 -0.1803505,0.37259 -0.1411896,0.073 -0.3922422,0.32155 -0.5581068,0.55242 -0.165862,0.23087 -0.3512132,0.41961 -0.4113424,0.41961 -0.060124,0 -0.172347,-0.0966 -0.2495974,-0.21445 -0.1706668,-0.26047 -0.3023076,-0.20163 -0.3023076,0.13487 0,0.31203 -0.21776,0.3365 -0.3529489,0.0398 -0.1302676,-0.28591 -0.2397786,-0.18822 -0.2397786,0.21394 0,0.40497 -0.136234,0.43252 -0.2935235,0.0589 l -0.1157552,-0.27543 -0.027906,0.28991 c -0.015531,0.15939 -0.072742,0.30426 -0.1266058,0.32194 -0.1637929,0.0537 -0.3674215,-0.33271 -0.3674215,-0.6966 0,-0.636 0.3454241,-0.89311 1.4722633,-1.09606 0.6106584,-0.10998 1.028528,-0.1727 1.3037953,-0.19172 z m 1.6004116,1.39061 c 0.2005937,0.077 0.116213,0.34104 -0.2557991,0.79995 -0.2016416,0.24874 -0.5056347,0.66166 -0.6754099,0.91777 -0.1697751,0.25612 -0.3660616,0.54781 -0.4361497,0.64854 -0.080433,0.1156 -0.285713,0.21735 -0.5565537,0.27544 -0.6487081,0.13912 -0.843878,0.12159 -0.843878,-0.0755 0,-0.0921 0.094824,-0.22939 0.2108412,-0.30541 0.2533915,-0.16603 0.2190538,-0.2494 -0.1307412,-0.31936 -0.3667972,-0.0734 -0.3232706,-0.39671 0.068212,-0.5085 0.3304223,-0.0944 0.344096,-0.17396 0.063045,-0.35811 -0.2408238,-0.1578 -0.2784846,-0.41358 -0.072864,-0.49248 0.076102,-0.0293 0.266499,-0.0294 0.4232302,0 0.2628477,0.0493 0.2847366,0.0369 0.2847366,-0.16175 0,-0.13093 0.058571,-0.23387 0.1488282,-0.26251 0.2463112,-0.0782 1.6536088,-0.20376 1.7725019,-0.15813 z m -3.5765264,0.99791 c 0.042198,0.005 0.085246,0.0176 0.1286749,0.0408 0.13707,0.0734 0.1521962,0.1273 0.085267,0.30334 -0.06096,0.16034 -0.047202,0.26605 0.054777,0.42168 0.074869,0.11427 0.165825,0.20774 0.2020544,0.20774 0.036227,0 0.090096,0.064 0.119888,0.14159 0.07103,0.1851 -0.046416,0.29584 -0.2061872,0.19483 -0.069458,-0.0439 -0.3069431,-0.0803 -0.5281348,-0.0811 -0.3995208,-0.001 -0.4025582,-0.003 -0.4025582,-0.28474 0,-0.56962 0.2508382,-0.97595 0.5462189,-0.94413 z"
       style="fill:#000000;stroke-width:0.0846667"
       id="path13218"
       sodipodi:nodetypes="cssccccccsccccccscssccccccsscscsccccsccccccscsccccccscccccscscccsccc" />
  </g>
</svg>
