<?xml version="1.0" encoding="UTF-8" standalone="no"?>
<!-- Created with Inkscape (http://www.inkscape.org/) -->

<svg
   width="8.2755547mm"
   height="7.3561664mm"
   viewBox="0 0 8.2755547 7.3561662"
   version="1.1"
   id="svg13223"
   inkscape:version="1.1.1 (3bf5ae0, 2021-09-20)"
   sodipodi:docname="cart-left-up.svg"
   xmlns:inkscape="http://www.inkscape.org/namespaces/inkscape"
   xmlns:sodipodi="http://sodipodi.sourceforge.net/DTD/sodipodi-0.dtd"
   xmlns="http://www.w3.org/2000/svg"
   xmlns:svg="http://www.w3.org/2000/svg">
  <sodipodi:namedview
     id="namedview13225"
     pagecolor="#ffffff"
     bordercolor="#666666"
     borderopacity="1.0"
     inkscape:pageshadow="2"
     inkscape:pageopacity="0.0"
     inkscape:pagecheckerboard="0"
     inkscape:document-units="mm"
     showgrid="false"
     inkscape:zoom="7.8312671"
     inkscape:cx="37.350278"
     inkscape:cy="36.967198"
     inkscape:window-width="1920"
     inkscape:window-height="966"
     inkscape:window-x="0"
     inkscape:window-y="27"
     inkscape:window-maximized="1"
     inkscape:current-layer="layer1" />
  <defs
     id="defs13220" />
  <g
     inkscape:label="Слой 1"
     inkscape:groupmode="layer"
     id="layer1"
     transform="translate(-3.9680977,-91.457902)">
    <path
       d="m 6.0308581,91.462549 c -0.1627373,0.01304 -0.3194209,0.05399 -0.4578535,0.125574 -0.5266689,0.272351 -0.7218494,1.319784 -0.4826581,2.592607 0.075068,0.399444 0.1364271,0.751668 0.1364271,0.782381 0,0.03071 -0.2682901,0.190844 -0.596347,0.35605 -0.3280569,0.165208 -0.6179106,0.356766 -0.644406,0.425815 -0.1716669,0.447355 0.925113,1.862254 1.7812887,2.297533 0.4769406,0.242488 0.9186386,0.239623 1.8303769,-0.01188 0.8009202,-0.220948 1.4686571,-0.140128 3.0478788,0.36897 1.462831,0.471574 1.634646,0.502197 1.592667,0.28422 -0.02492,-0.129444 -1.082916,-0.946949 -1.42317,-1.099674 -0.17589,-0.07895 -1.4662707,-0.869387 -1.5497758,-0.949296 -0.052996,-0.05071 0.1151175,-0.550524 0.2557991,-0.760161 0.013018,-0.01939 0.1702118,0.123272 0.3493321,0.317293 0.1882356,0.203894 0.4025896,0.352949 0.5079786,0.352949 0.370041,0 0.215572,-0.629245 -0.6816114,-2.771407 C 9.0473992,92.223012 8.9194969,92.098779 8.0524388,92.172072 7.4704296,92.221271 7.439558,92.214347 7.3051999,92.009292 7.0591216,91.633727 6.5190673,91.423391 6.0308581,91.462554 Z m 0.2857712,0.387056 c 0.3602461,0 0.6706129,0.189236 0.4449339,0.271301 -0.4149116,0.150879 -0.5566198,0.646028 -0.2614824,0.913123 0.094774,0.08577 0.1510374,0.211346 0.1250553,0.279053 -0.025982,0.06771 0.01315,0.215201 0.086818,0.327628 0.073665,0.112427 0.1218803,0.326136 0.107487,0.474906 -0.023416,0.241967 -0.070895,0.28539 -0.4495856,0.411861 C 6.1370222,94.605233 5.91886,94.671543 5.8851309,94.675273 5.7715797,94.687841 5.5798891,94.213292 5.4830886,93.679469 5.2865668,92.595714 5.6265139,91.849605 6.3166293,91.849605 Z m 0.8283734,0.476982 c 0.191979,0.02021 0.2018956,0.156938 0.022225,0.399976 -0.2207155,0.298535 -0.4543875,0.3384 -0.5823929,0.09922 -0.1314689,-0.24565 -0.020796,-0.418489 0.3074749,-0.480073 0.1041876,-0.01955 0.1887035,-0.02585 0.2526982,-0.01913 z m 1.1477334,0.08217 c 0.1052062,0.0013 0.2106638,0.01408 0.3126422,0.03927 0.2505869,0.06193 0.3431381,0.150577 0.5214144,0.498676 0.4271883,0.834126 1.1779223,2.840617 1.1797743,3.153815 7.94e-4,0.118544 -0.08191,0.134012 -0.216008,0.04082 C 10.041328,96.10714 9.7558184,95.755302 9.4564873,95.359486 9.1571642,94.963672 8.8165396,94.557462 8.6994297,94.456701 8.5195581,94.301944 8.4865222,94.200418 8.4865222,93.803511 c 0,-0.585729 -0.172347,-0.813626 -0.5017797,-0.663527 -0.1425839,0.06496 -0.2290233,0.0682 -0.2650992,0.0098 C 7.690174,93.102114 7.5646424,93.024469 7.4411084,92.977201 L 7.2168317,92.891418 7.4498926,92.68988 C 7.6633373,92.505521 7.9771119,92.405011 8.2927361,92.40876 Z M 7.224584,93.088832 c 0.178099,-0.0064 0.371266,0.07701 0.4661218,0.254248 0.080867,0.151101 0.07089,0.202568 -0.056327,0.29559 -0.3121503,0.228248 -0.8484395,0.04759 -0.7870324,-0.265099 0.035729,-0.181941 0.1991387,-0.278326 0.3772376,-0.284739 z m 0.7074509,0.61805 c 0.246081,-0.03117 0.2524786,0.09801 0.042373,0.40721 -0.2216679,0.326215 -0.5003615,0.410694 -0.698664,0.212392 -0.2168975,-0.216898 -0.1102969,-0.389742 0.3296946,-0.535885 0.1361334,-0.04522 0.2445676,-0.07333 0.3265964,-0.08372 z m -0.00103,1.059818 c 0.2506556,0 0.5978974,0.474342 0.5978974,0.816488 0,0.16242 0.078835,0.478319 0.1751833,0.702281 0.1675527,0.389485 0.2282243,0.437923 1.3947464,1.105361 0.67079,0.383802 1.264698,0.752141 1.319816,0.818554 0.276087,0.332664 -0.428742,0.231397 -1.5347906,-0.22066 -0.690708,-0.282302 -1.5806076,-0.319132 -2.3693649,-0.09767 -0.7877334,0.221171 -1.1502893,0.223573 -1.6453776,0.01138 -0.612087,-0.262371 -0.4560119,-0.576421 0.1684655,-0.338997 0.4004813,0.152265 0.3226276,0.01701 -0.1188561,-0.206706 -0.4296569,-0.217723 -0.5704575,-0.418433 -0.4728395,-0.672827 0.076756,-0.200023 0.345813,-0.171649 0.7797985,0.08268 0.2082085,0.12201 0.354539,0.183118 0.3250432,0.135393 -0.0295,-0.04772 -0.2632384,-0.205303 -0.5193524,-0.349847 -0.4427776,-0.249883 -0.4656032,-0.279152 -0.4656032,-0.60048 0,-0.315135 0.016166,-0.337966 0.2413291,-0.337966 0.14342,0 0.4748001,0.153157 0.8159697,0.377238 0.5456026,0.358354 0.5860309,0.37093 0.8066696,0.256834 0.3084089,-0.159486 0.3556238,-0.315289 0.2051553,-0.675413 -0.1111912,-0.266136 -0.1105271,-0.327713 0.00569,-0.552421 0.075025,-0.145081 0.1988423,-0.253214 0.2904226,-0.253214 z"
       style="fill:#000000;stroke-width:0.0846667"
       id="path13218"
       sodipodi:nodetypes="cccsccccccsccssccccccscccccssccsccccccccccsccccccccccccccscccccccsscccsccccssscccccc" />
  </g>
</svg>
