<?xml version="1.0" encoding="UTF-8" standalone="no"?>
<!-- Created with Inkscape (http://www.inkscape.org/) -->

<svg
   width="7.0760322mm"
   height="7.7384262mm"
   viewBox="0 0 7.0760322 7.7384262"
   version="1.1"
   id="svg23083"
   inkscape:version="1.1.1 (3bf5ae0, 2021-09-20)"
   sodipodi:docname="chicken2.svg"
   xmlns:inkscape="http://www.inkscape.org/namespaces/inkscape"
   xmlns:sodipodi="http://sodipodi.sourceforge.net/DTD/sodipodi-0.dtd"
   xmlns="http://www.w3.org/2000/svg"
   xmlns:svg="http://www.w3.org/2000/svg">
  <sodipodi:namedview
     id="namedview23085"
     pagecolor="#ffffff"
     bordercolor="#666666"
     borderopacity="1.0"
     inkscape:pageshadow="2"
     inkscape:pageopacity="0.0"
     inkscape:pagecheckerboard="0"
     inkscape:document-units="mm"
     showgrid="false"
     inkscape:zoom="11.075084"
     inkscape:cx="-5.5530052"
     inkscape:cy="0.045146384"
     inkscape:window-width="1920"
     inkscape:window-height="966"
     inkscape:window-x="0"
     inkscape:window-y="27"
     inkscape:window-maximized="1"
     inkscape:current-layer="layer1" />
  <defs
     id="defs23080" />
  <g
     inkscape:label="Слой 1"
     inkscape:groupmode="layer"
     id="layer1"
     transform="translate(-13.280517,-44.675188)">
    <path
       d="m 15.133427,52.323334 c 1.438088,-0.299946 1.77507,-0.630485 2.153236,-2.112073 0.322538,-1.263645 0.973154,-2.339715 1.53818,-2.544031 0.158355,-0.05726 0.287918,-0.131137 0.287918,-0.164167 0,-0.142429 -0.710299,-0.94134 -1.017928,-1.14492 -0.562899,-0.372509 -0.829405,-0.271808 -1.691406,0.639111 -0.805122,0.850813 -1.197369,1.085187 -1.947343,1.163575 -0.418945,0.04379 -0.539599,0.02661 -0.675222,-0.09613 -0.09082,-0.08219 -0.223698,-0.126964 -0.295282,-0.0995 -0.133156,0.0511 -0.13132,0.07286 -0.167783,-1.98868 -0.0068,-0.381571 0.216213,-0.500763 0.516854,-0.276302 0.339594,0.253544 0.397054,0.58028 0.196375,1.116645 -0.22405,0.598825 -0.215747,0.695596 0.05968,0.695596 0.787013,0 1.679683,-0.515116 2.004484,-1.15669 0.418054,-0.659018 1.164032,-0.999139 1.925828,-0.680995 0.351497,0.162553 1.052819,0.754386 1.251876,1.056433 0.107177,0.16263 0.374534,0.371216 0.647247,0.504967 0.255553,0.125335 0.451523,0.267236 0.43549,0.315336 -0.01603,0.0481 -0.311763,0.183583 -0.657177,0.301073 -0.742001,0.288888 -1.441589,1.124857 -1.669788,1.776554 -0.05131,0.162984 -0.151536,0.611208 -0.222718,0.996055 -0.265615,1.436044 -0.726332,1.80618 -2.22529,1.787778 -0.744164,-0.0092 -0.789551,-0.01826 -0.447218,-0.08966 z m -1.623226,-0.46104 c -0.150796,-0.04442 -0.296662,-0.632744 -0.1969,-0.794163 0.03101,-0.05017 0.129624,-0.06797 0.21915,-0.03956 0.08953,0.02841 0.381595,0.0063 0.649042,-0.04916 0.958374,-0.198708 1.55323,-1.149476 0.994267,-1.589155 -0.264708,-0.20822 -0.269261,-0.379023 -0.01375,-0.51577 0.312327,-0.167153 0.6725,-0.08602 0.799445,0.180092 0.26409,0.553595 0.05136,1.655432 -0.415571,2.152457 -0.367427,0.391109 -1.593075,0.785624 -2.035686,0.655253 z m -0.154774,-1.862742 v -0.391584 l 0.267097,0.05342 c 0.30916,0.06183 0.494903,0.194809 0.494903,0.354313 0,0.154134 -0.3355,0.375434 -0.569173,0.375434 -0.172864,0 -0.192827,-0.04054 -0.192827,-0.391583 z m 5.132917,-0.465667 c -0.07796,-0.389794 -0.0687,-0.568753 0.02201,-0.425611 0.05732,0.09045 0.109163,0.07461 0.249776,-0.07632 0.09759,-0.104754 0.157617,-0.222538 0.133388,-0.261743 -0.02423,-0.0392 0.04836,-0.06363 0.161314,-0.05428 0.180281,0.01492 0.197447,0.04462 0.140519,0.243114 -0.228371,0.796286 -0.601967,1.100044 -0.707007,0.574845 z m -5.005917,-0.06136 c -0.138252,-0.04495 -0.167553,-0.124994 -0.159632,-0.436061 0.01604,-0.630015 0.0055,-0.611081 0.265465,-0.476349 0.29184,0.151247 1.037167,0.802946 1.037167,0.906878 0,0.08673 -0.880171,0.09099 -1.143,0.0055 z m 3.773812,-1.929141 c -0.223038,-0.283547 -0.220336,-0.332421 0.03234,-0.585097 0.268528,-0.268528 0.66494,-0.277737 0.845714,-0.01965 0.182,0.25984 0.165215,0.428252 -0.06416,0.643736 -0.268735,0.252463 -0.597009,0.236736 -0.813898,-0.03899 z m 1.074262,-1.831666 c -0.238511,-0.213652 -0.280403,-0.227658 -0.734032,-0.245433 -0.313055,-0.01227 -0.324053,-0.02243 -0.261223,-0.241509 0.03608,-0.125786 0.11053,-0.312673 0.165457,-0.415303 0.08164,-0.152547 0.122669,-0.167677 0.224814,-0.0829 0.06872,0.05703 0.106571,0.15159 0.08411,0.210126 -0.02246,0.05853 0.0139,0.127435 0.08081,0.153111 0.06691,0.02568 0.121654,0.105029 0.121654,0.176341 0,0.202895 0.119492,0.154528 0.411782,-0.166677 0.148312,-0.162983 0.305304,-0.296333 0.348871,-0.296333 0.157765,0 0.281325,0.640761 0.190043,0.985523 -0.08192,0.360173 -0.453685,0.0339 -0.632286,-0.07695 z"
       style="fill:#000000;stroke-width:0.0224014"
       id="path23078"
       sodipodi:nodetypes="cscscsccccccsccsscccccccccscsccsccsccsssssccccsscccscccscccccccccccsssccc" />
  </g>
</svg>
