<?xml version="1.0" encoding="UTF-8" standalone="no"?>
<!-- Created with Inkscape (http://www.inkscape.org/) -->

<svg
   width="4.9054103mm"
   height="7.8151908mm"
   viewBox="0 0 4.9054103 7.8151908"
   version="1.1"
   id="svg19934"
   inkscape:version="1.1.1 (3bf5ae0, 2021-09-20)"
   sodipodi:docname="chicken1.svg"
   xmlns:inkscape="http://www.inkscape.org/namespaces/inkscape"
   xmlns:sodipodi="http://sodipodi.sourceforge.net/DTD/sodipodi-0.dtd"
   xmlns="http://www.w3.org/2000/svg"
   xmlns:svg="http://www.w3.org/2000/svg">
  <sodipodi:namedview
     id="namedview19936"
     pagecolor="#ffffff"
     bordercolor="#666666"
     borderopacity="1.0"
     inkscape:pageshadow="2"
     inkscape:pageopacity="0.0"
     inkscape:pagecheckerboard="0"
     inkscape:document-units="mm"
     showgrid="false"
     inkscape:zoom="15.662534"
     inkscape:cx="23.974409"
     inkscape:cy="21.165157"
     inkscape:window-width="1920"
     inkscape:window-height="966"
     inkscape:window-x="0"
     inkscape:window-y="27"
     inkscape:window-maximized="1"
     inkscape:current-layer="layer1" />
  <defs
     id="defs19931" />
  <g
     inkscape:label="Слой 1"
     inkscape:groupmode="layer"
     id="layer1"
     transform="translate(4.6825484,-3.9644281)">
    <path
       d="m -1.3434715,11.715456 -0.4233342,-0.0502 0.3602731,-0.234173 c 0.71940706,-0.467605 1.18383306,-1.4486804 1.09559006,-2.3143735 -0.0793901,-0.778818 -0.84544006,-2.0553129 -1.74116306,-2.9013519 -0.4459349,-0.4212 -0.6530867,-0.5191021 -1.0983725,-0.5191021 -0.5712157,0 -0.9450271,0.4436411 -0.7669067,0.9101669 0.087235,0.2284813 0.091315,0.2296682 0.218328,0.0635 0.1263989,-0.165365 0.1280552,-0.1647249 0.070684,0.02732 -0.046229,0.1547439 0.024075,0.3020711 0.3299101,0.6913491 0.2137616,0.272085 0.3882466,0.545542 0.3877447,0.6076839 -0.00122,0.151371 -0.6254172,0.796494 -1.0291912,1.0637001 -0.4741495,0.3137768 -0.4142026,0.3878048 0.2592714,0.3201699 0.640192,-0.06429 0.940166,0.02726 0.940166,0.2869229 0,0.1080352 -0.1215877,0.1984851 -0.4021667,0.2991742 -0.2211917,0.079382 -0.4974168,0.1889135 -0.6138335,0.2434165 -0.1991797,0.09325 -0.1879414,0.10067 0.1905,0.125819 0.2211918,0.0147 0.4021668,0.05742 0.4021668,0.09494 0,0.03752 -0.094983,0.208177 -0.2110732,0.379246 -0.1748231,0.257617 -0.1893312,0.319377 -0.084477,0.359613 0.3781232,0.1451 1.0490038,-0.309842 1.3548428,-0.918753 0.264889,-0.5273834 0.264708,-0.7418364 -9.525e-4,-1.1333184 C -2.3017592,8.8279507 -2.379195,8.5749275 -2.271426,8.5749275 c 0.120264,0 0.691774,0.3403452 0.83214,0.4955551 0.087,0.0962 0.1768941,0.3409392 0.199767,0.543869 0.07008,0.6217774 -0.347786,1.2857444 -1.1622802,1.8467884 -0.2710492,0.186705 -0.3794067,0.204121 -1.2699992,0.204121 H -4.645472 L -4.668633,10.15234 c -0.023758,-1.5519064 0.010771,-1.7467463 0.3095602,-1.7467463 0.076266,0 0.2430505,-0.09679 0.370633,-0.2150931 C -3.6786613,7.9032547 -3.6834423,7.5759037 -4.0018718,7.2708285 -4.136842,7.1415195 -4.3119114,6.8664645 -4.390915,6.6595977 -4.5289881,6.2980574 -4.5279624,6.2694424 -4.36446,5.9216066 c 0.2365409,-0.5032192 0.3683876,-0.58669 1.014619,-0.6423411 0.4805717,-0.04139 0.5690208,-0.07404 0.590592,-0.218009 0.062466,-0.4169161 0.1137809,-0.550141 0.2108909,-0.547516 0.18151,0.0049 0.4386662,0.2814251 0.6015782,0.6468771 0.09965,0.223542 0.1990389,0.3374308 0.2705279,0.309998 0.223405,-0.08573 0.2843411,0.05233 0.1682851,0.381262 l -0.1131001,0.3205599 0.426534,0.41754 c 0.23459406,0.2296462 0.58013916,0.6273311 0.76787896,0.883742 0.1877391,0.2564122 0.29386673,0.4103688 0.43741609,0.7375351 0.13913189,0.3467921 0.21210001,0.633281 0.21210001,1.2136299 0,1.0112125 -0.3557241,1.9368975 -0.858429,2.2338525 -0.1243171,0.07344 -0.2392031,0.127534 -0.2553009,0.120219 -0.0161,-0.0073 -0.21977006,-0.03589 -0.45260366,-0.0635 z M -4.6534708,7.9496335 c -0.070902,-0.1847689 -8.758e-4,-0.8563528 0.089293,-0.8563528 0.1312797,0 0.4690392,0.5577398 0.4690392,0.7745209 0,0.165287 -0.043637,0.199146 -0.2566573,0.199146 -0.1411614,0 -0.2769151,-0.05279 -0.3016749,-0.1173141 z m 1.7013323,-0.912227 C -3.2250356,6.8874716 -3.502472,6.5628466 -3.502472,6.3934675 c 0,-0.2515021 0.206671,-0.4643779 0.4508422,-0.4643779 0.294743,0 0.403261,0.09805 0.6884472,0.6220288 0.1919459,0.3526682 0.2145501,0.4483262 0.120084,0.5081641 -0.1595098,0.1010381 -0.504707,0.09039 -0.7090399,-0.021881 z m 2.07433276,-0.301117 C -1.0873557,6.5197235 -1.1958356,6.3892106 -1.1188715,6.4462616 c 0.28007741,0.032869 0.41369868,0.028797 0.62381376,0.1030029 0.27694144,0.09933 0.6276503,0.2726563 0.6112432,0.3560503 -0.07387,0.3754681 -0.544607,0.2954361 -0.9939912,-0.1689949 z M -4.4775105,5.1801365 c -0.081001,-0.479438 0.048481,-0.5907911 0.3918139,-0.336953 0.3038206,0.2246241 0.3649279,0.1772639 0.4489082,-0.3479199 0.029109,-0.1820371 0.085987,-0.3105431 0.1263948,-0.2855691 0.040408,0.024971 0.068246,-0.019939 0.061862,-0.09981 -0.014923,-0.1866889 0.2114936,-0.196052 0.3455091,-0.01429 0.056714,0.07692 0.1279625,0.295234 0.1583298,0.48514 0.074819,0.467891 -0.068035,0.5982719 -0.6773161,0.618181 -0.261338,0.0085 -0.3615234,0.022414 -0.4331277,0.05756 -0.084284,0.082332 -0.2087206,0.2629947 -0.3077272,0.2677498 -0.030832,0.00151 -0.082423,-0.1533609 -0.1146472,-0.344094 z"
       style="fill:#000000;stroke-width:0.0224014"
       id="path20383"
       sodipodi:nodetypes="scscsssscccccscsssscscsscsscsscsccccccccccccsccsssssscsscscccccsccccsccssccccc" />
  </g>
</svg>
