<?xml version="1.0" encoding="UTF-8" standalone="no"?>
<!-- Created with Inkscape (http://www.inkscape.org/) -->

<svg
   width="7.0940862mm"
   height="6.4938006mm"
   viewBox="0 0 7.0940862 6.4938006"
   version="1.1"
   id="svg23603"
   inkscape:version="1.1.1 (3bf5ae0, 2021-09-20)"
   sodipodi:docname="chicken3.svg"
   xmlns:inkscape="http://www.inkscape.org/namespaces/inkscape"
   xmlns:sodipodi="http://sodipodi.sourceforge.net/DTD/sodipodi-0.dtd"
   xmlns="http://www.w3.org/2000/svg"
   xmlns:svg="http://www.w3.org/2000/svg">
  <sodipodi:namedview
     id="namedview23605"
     pagecolor="#ffffff"
     bordercolor="#666666"
     borderopacity="1.0"
     inkscape:pageshadow="2"
     inkscape:pageopacity="0.0"
     inkscape:pagecheckerboard="0"
     inkscape:document-units="mm"
     showgrid="false"
     inkscape:zoom="22.150168"
     inkscape:cx="19.751543"
     inkscape:cy="13.882513"
     inkscape:window-width="1920"
     inkscape:window-height="966"
     inkscape:window-x="0"
     inkscape:window-y="27"
     inkscape:window-maximized="1"
     inkscape:current-layer="layer1" />
  <defs
     id="defs23600" />
  <g
     inkscape:label="Слой 1"
     inkscape:groupmode="layer"
     id="layer1"
     transform="translate(13.867511,-82.75696)">
    <path
       d="m -8.4878779,89.171947 c -0.569079,-0.171274 -1.7773221,-1.298053 -2.0464911,-1.90851 -0.41394,-0.624346 -1.113605,-0.437179 -1.692807,-0.869987 l -0.288639,-0.170302 -0.170048,0.394846 -0.17005,0.394847 -0.008,-0.465667 c -0.01283,-0.7454 -0.06198,-0.845735 -0.417737,-0.852618 -0.169196,-0.0033 -0.383826,-0.03718 -0.476959,-0.07534 -0.157337,-0.06448 -0.15245,-0.07605 0.06901,-0.163383 0.13109,-0.05169 0.289988,-0.09399 0.353107,-0.09399 0.06312,0 0.139219,-0.123825 0.169114,-0.275167 0.08921,-0.451616 0.209283,-0.689789 0.42886,-0.850662 0.298752,-0.218881 0.926391,-0.263611 1.477574,-0.105301 0.390509,0.112161 1.3382465,0.270101 3.0640548,0.510626 0.1718151,0.02395 0.3338618,0.0088 0.3601059,-0.03366 0.026247,-0.04246 -0.028612,-0.255251 -0.1218909,-0.472869 -0.2159821,-0.503869 -0.2151089,-0.822201 0.0028,-1.019406 0.1522148,-0.137753 0.2072297,-0.143427 0.4698551,-0.04846 0.2539153,0.09182 0.3278187,0.08766 0.5049308,-0.02839 l 0.2074757,-0.135947 v 0.726616 c 0,0.711643 -0.098589,0.892791 -0.2099522,0.385763 -0.029498,-0.134337 -0.1231582,-0.307157 -0.2081186,-0.384044 -0.1423458,-0.128824 -0.165227,-0.129038 -0.2915338,-0.0027 -0.1874943,0.187496 -0.1726644,0.279556 0.112903,0.700906 0.1357842,0.200349 0.26407,0.409899 0.285078,0.465667 0.025109,0.06667 0.084098,0.0434 0.1722146,-0.06794 0.1241928,-0.156913 0.1342205,-0.09271 0.1367155,0.875277 l 0.0027,1.044609 -0.359836,-0.05849 c -0.4675358,-0.076 -0.5546208,-0.16449 -0.3664729,-0.372393 0.1950402,-0.215517 0.1164378,-0.331646 -0.1995779,-0.294852 -0.1386179,0.01614 -0.2788973,-0.01412 -0.3117321,-0.06725 -0.061479,-0.09948 0.3572351,-0.490716 0.5259943,-0.491481 0.1150197,-5.02e-4 0.4161393,-0.324126 0.3568118,-0.383455 -0.023839,-0.02383 -0.1537732,0.01427 -0.2887583,0.08467 -0.3070119,0.160107 -0.4531968,0.160031 -1.4626087,-7.67e-4 -1.6088811,-0.256269 -2.3425681,-0.404066 -2.5674501,-0.517197 -0.376505,-0.189407 -0.889839,-0.147245 -1.129887,0.0928 -0.27812,0.27812 -0.26353,0.399287 0.107984,0.89692 0.406689,0.544741 0.853652,0.764904 1.593678,0.785006 l 0.561594,0.01526 0.195363,0.480488 c 0.10745,0.264268 0.3186957,0.664318 0.4694341,0.889 0.3149891,0.469498 1.1499612,1.297512 1.3084122,1.297512 0.058841,0 0.1544135,0.05715 0.2123837,0.127 0.1224703,0.147569 0.027099,0.158826 -0.3595952,0.04244 z m 0.1039839,-0.75784 c -0.7210689,-0.381369 -0.9515978,-0.895788 -0.564433,-1.25951 0.282247,-0.265157 0.354375,-0.230137 0.354375,0.172065 0,0.326636 0.02826,0.372744 0.3386667,0.552521 0.2790058,0.161591 0.4393829,0.192051 0.9103571,0.172901 0.5665656,-0.02304 0.5716905,-0.02125 0.5715,0.199005 -1.666e-4,0.181126 -0.049149,0.232041 -0.2647738,0.275166 -0.4770093,0.0954 -1.0423525,0.04829 -1.345692,-0.112148 z m -3.464238,-0.846677 c -0.172572,-0.50647 -0.329332,-0.899319 -0.01304,-0.834629 0.471905,0.09652 0.921243,0.18979 0.740066,0.431796 -0.268557,0.264069 -0.624295,0.704339 -0.72703,0.402833 z m 4.820516,-0.313023 c -0.3837861,-0.125093 -0.762,-0.320126 -0.762,-0.392937 0,-0.05041 0.155149,-0.06205 0.3928163,-0.02948 0.2160482,0.02961 0.4446482,0.05384 0.508,0.05384 0.066418,0 0.1151837,0.08961 0.1151837,0.211666 0,0.214582 -0.026612,0.23102 -0.254,0.156904 z m -5.065244,-1.749862 c -0.466397,-0.496459 0.05122,-0.78456 0.559239,-0.311267 0.151852,0.141474 0.172006,0.209583 0.101169,0.341943 -0.119481,0.223251 -0.435652,0.208564 -0.660408,-0.03068 z m 0.493601,-1.590134 c -0.871401,0.105049 -1.389269,-0.388029 -0.48833,-1.141255 0.209309,-0.06643 0.352427,0.06477 0.565782,0.518663 0.199774,0.424999 0.254413,0.448377 0.475906,0.20363 0.08614,-0.09518 0.35479,-0.296221 0.450493,-0.28253 1.0058644,1.456368 -0.162266,0.810352 -1.003851,0.701492 z"
       style="fill:#000000;stroke-width:0.0224014"
       id="path23598"
       sodipodi:nodetypes="ccccccccccsccscccscccscccscccccssscccccccccscsscccssscccccccccccssccccsccccccccc" />
  </g>
</svg>
