<?xml version="1.0" encoding="UTF-8" standalone="no"?>
<!-- Created with Inkscape (http://www.inkscape.org/) -->

<svg
   width="6.1277332mm"
   height="7.8333006mm"
   viewBox="0 0 6.1277332 7.8333006"
   version="1.1"
   id="svg25719"
   inkscape:version="1.1.1 (3bf5ae0, 2021-09-20)"
   sodipodi:docname="chicken4.svg"
   xmlns:inkscape="http://www.inkscape.org/namespaces/inkscape"
   xmlns:sodipodi="http://sodipodi.sourceforge.net/DTD/sodipodi-0.dtd"
   xmlns="http://www.w3.org/2000/svg"
   xmlns:svg="http://www.w3.org/2000/svg">
  <sodipodi:namedview
     id="namedview25721"
     pagecolor="#ffffff"
     bordercolor="#666666"
     borderopacity="1.0"
     inkscape:pageshadow="2"
     inkscape:pageopacity="0.0"
     inkscape:pagecheckerboard="0"
     inkscape:document-units="mm"
     showgrid="false"
     inkscape:zoom="11.075084"
     inkscape:cx="-4.2889065"
     inkscape:cy="14.221111"
     inkscape:window-width="1920"
     inkscape:window-height="966"
     inkscape:window-x="0"
     inkscape:window-y="27"
     inkscape:window-maximized="1"
     inkscape:current-layer="layer1" />
  <defs
     id="defs25716" />
  <g
     inkscape:label="Слой 1"
     inkscape:groupmode="layer"
     id="layer1"
     transform="translate(47.403637,-67.562114)">
    <path
       d="m -44.208012,75.210276 c -1.019755,-0.559595 -1.720372,-1.637527 -2.027354,-3.119186 -0.14717,-0.7103 -0.27526,-0.923648 -0.554549,-0.923648 -0.0812,0 -0.25251,-0.03987 -0.380679,-0.0886 l -0.233043,-0.0886 0.248695,-0.127884 c 0.491803,-0.252896 0.511326,-0.332767 0.133287,-0.545238 -0.188854,-0.106142 -0.325988,-0.221112 -0.304742,-0.255489 0.02125,-0.03438 0.219721,-0.106666 0.441058,-0.160641 0.322469,-0.07864 0.441108,-0.160406 0.597111,-0.411529 0.243126,-0.391366 0.611299,-0.608015 1.033262,-0.608015 0.42617,0 0.92637,0.378457 1.459611,1.104359 0.750729,1.021968 0.836025,1.101186 1.207108,1.121117 l 0.338667,0.01819 0.0467,-0.658611 c 0.05139,-0.724695 0.227518,-1.009744 0.694132,-1.123378 0.215357,-0.05245 0.232833,-0.03739 0.232833,0.200588 0,0.201598 -0.04087,0.263147 -0.188799,0.284346 -0.412601,0.05913 -0.402489,0.815519 0.01029,0.768887 0.146254,-0.01652 0.17852,0.02556 0.17852,0.232833 0,0.173235 -0.04182,0.253002 -0.132649,0.253002 -0.07296,0 -0.265065,0.100997 -0.426902,0.224437 -0.193543,0.147624 -0.436068,0.238065 -0.708605,0.264253 -0.581247,0.05585 -0.932291,-0.176416 -1.291095,-0.854245 -0.375536,-0.709438 -1.057288,-1.412445 -1.36974,-1.412445 -0.305866,0 -0.694915,0.410577 -0.81634,0.861514 -0.209201,0.776908 0.26535,2.491929 0.997111,3.603541 0.3014,0.457858 1.200751,1.139963 1.800887,1.365871 0.646057,0.243195 0.646006,0.253513 -0.0013,0.259342 -0.50786,0.0046 -0.706387,-0.03272 -0.983456,-0.184768 z m 1.650825,-0.490478 c -0.839391,-0.13728 -1.25512,-0.701503 -1.182606,-1.605022 0.01511,-0.188324 0.03611,-0.172245 0.190381,0.145797 0.09537,0.196604 0.322178,0.491879 0.504026,0.656166 0.300075,0.271099 0.377042,0.298703 0.832872,0.298703 0.276235,0 0.599977,-0.03716 0.719423,-0.08257 0.201684,-0.07668 0.21718,-0.06533 0.21718,0.159062 0,0.185808 -0.05379,0.261976 -0.232836,0.329689 -0.376634,0.142442 -0.631727,0.166329 -1.04844,0.09818 z m 0.646276,-1.178259 c -0.09313,-0.03878 -0.283636,-0.19464 -0.423336,-0.346361 -0.19599,-0.212857 -0.215325,-0.260261 -0.08467,-0.207562 0.09313,0.03756 0.293158,0.08571 0.4445,0.106991 0.237474,0.03339 0.275167,0.01364 0.275167,-0.144222 0,-0.129019 -0.08732,-0.2194 -0.296334,-0.306733 -0.339949,-0.142039 -0.363733,-0.208051 -0.128005,-0.355266 0.09258,-0.05782 0.264507,-0.257483 0.382061,-0.4437 0.378658,-0.599831 0.465611,-0.475013 0.465611,0.668365 0,0.840094 -0.0222,1.015457 -0.133924,1.058333 -0.170429,0.0654 -0.289327,0.05832 -0.501076,-0.02984 z m -4.952042,-0.614573 c -0.265872,-0.285378 -0.376528,-1.353488 -0.06398,-1.51511 0.427762,-0.20801 0.370266,0.200855 0.474265,0.489299 0.257997,1.260455 -0.06628,1.395038 -0.41027,1.025807 z m 1.353706,-1.59019 c -0.268496,-0.268497 -0.197109,-0.994459 0.11851,-1.205204 0.05124,-0.03421 0.179827,-0.06279 0.285753,-0.0635 0.367212,-0.0025 0.490968,0.822493 0.18226,1.214952 -0.210055,0.267041 -0.359534,0.28074 -0.586523,0.05375 z m 0.677336,-2.474536 c -0.282778,-0.149819 -0.487468,-0.15458 -0.910169,-0.02117 -0.14379,0.04538 -0.1905,0.02656 -0.1905,-0.07675 0.119736,-0.397856 0.250031,-0.750197 0.441949,-1.022991 0.133343,-0.183381 0.235322,-0.240852 0.410053,-0.08273 0.0902,0.08163 0.163996,0.256811 0.163996,0.389294 0,0.238477 0.110522,0.319868 0.21181,0.155982 0.03489,-0.05646 0.107474,-0.05546 0.216665,0.003 0.188849,0.101069 0.221829,0.488162 0.05836,0.684967 -0.09368,0.11278 -0.139872,0.109381 -0.402167,-0.02959 z"
       style="fill:#000000;stroke-width:0.0224014"
       id="path25714"
       sodipodi:nodetypes="ccsccsscccssscccsccssscssccscccccccscscccccccsccsscccccccccccscccccccsccccc" />
  </g>
</svg>
