<?xml version="1.0" encoding="UTF-8" standalone="no"?>
<!-- Created with Inkscape (http://www.inkscape.org/) -->

<svg
   width="2.4611802mm"
   height="5.5829196mm"
   viewBox="0 0 2.4611802 5.5829196"
   version="1.1"
   id="svg19642"
   inkscape:version="1.1.1 (3bf5ae0, 2021-09-20)"
   sodipodi:docname="counter.svg"
   xmlns:inkscape="http://www.inkscape.org/namespaces/inkscape"
   xmlns:sodipodi="http://sodipodi.sourceforge.net/DTD/sodipodi-0.dtd"
   xmlns="http://www.w3.org/2000/svg"
   xmlns:svg="http://www.w3.org/2000/svg">
  <sodipodi:namedview
     id="namedview19644"
     pagecolor="#ffffff"
     bordercolor="#666666"
     borderopacity="1.0"
     inkscape:pageshadow="2"
     inkscape:pageopacity="0.0"
     inkscape:pagecheckerboard="0"
     inkscape:document-units="mm"
     showgrid="false"
     inkscape:zoom="11.075084"
     inkscape:cx="21.263947"
     inkscape:cy="23.611559"
     inkscape:window-width="1920"
     inkscape:window-height="966"
     inkscape:window-x="0"
     inkscape:window-y="27"
     inkscape:window-maximized="1"
     inkscape:current-layer="layer1" />
  <defs
     id="defs19639" />
  <g
     inkscape:label="Слой 1"
     inkscape:groupmode="layer"
     id="layer1"
     transform="translate(-35.082151,-59.131299)">
    <path
       d="m 36.418336,59.131306 c -0.319952,-5.29e-4 -0.652674,0.02718 -0.737939,0.08423 -0.109926,0.07355 -0.105047,0.101791 0.03721,0.210323 0.344064,0.262506 1.541108,0.08008 1.363226,-0.20774 -0.03541,-0.05728 -0.34254,-0.08619 -0.662493,-0.08681 z m -1.075385,0.51572 c -0.03076,-0.0011 -0.06002,0.03747 -0.115756,0.113689 -0.137665,0.188267 -0.163861,1.445583 -0.03514,1.688269 0.08238,0.155313 0.09227,0.15353 0.24288,-0.04237 0.202308,-0.263165 0.223475,-1.384189 0.031,-1.63866 -0.06035,-0.07979 -0.09223,-0.119972 -0.122988,-0.120925 z m 2.013312,0.0093 c -0.04685,0.01606 -0.104066,0.06912 -0.173633,0.155031 -0.135784,0.167743 -0.158591,0.305826 -0.133323,0.806151 0.01722,0.341376 0.0801,0.663612 0.145211,0.742074 0.06333,0.07631 0.167878,0.139009 0.232026,0.139009 0.09163,0 0.116787,-0.189772 0.116787,-0.884182 0,-0.722537 -0.04651,-1.006295 -0.187068,-0.958083 z m -1.989542,2.582784 -0.139526,0.198953 c -0.173879,0.248248 -0.199165,1.506654 -0.03359,1.672251 0.08467,0.08469 0.135705,0.06938 0.254246,-0.077 0.182169,-0.224946 0.202396,-1.283081 0.03049,-1.593183 z M 37.2865,62.2603 c -0.276241,0 -0.368368,1.508736 -0.109553,1.794721 0.221861,0.245155 0.295288,0.06856 0.29714,-0.717269 0.0019,-0.745318 -0.05621,-1.077452 -0.187587,-1.077452 z m -0.878498,2.027322 c -0.132586,-0.01053 -0.266589,-0.01 -0.38499,0.0041 -0.157867,0.01881 -0.287624,0.06188 -0.347782,0.134359 -0.09179,0.110603 -0.08988,0.146579 0.01085,0.210325 0.179512,0.113599 1.327198,0.09876 1.3994,-0.0181 0.103481,-0.167444 -0.27972,-0.299138 -0.677479,-0.330729 z"
       style="fill:#000000;stroke-width:0.0846667"
       id="path19637" />
  </g>
</svg>
