<?xml version="1.0" encoding="UTF-8" standalone="no"?>
<!-- Created with Inkscape (http://www.inkscape.org/) -->

<svg
   width="1.7565784mm"
   height="2.4891992mm"
   viewBox="0 0 1.7565784 2.4891991"
   version="1.1"
   id="svg18653"
   sodipodi:docname="damage-right4.svg"
   inkscape:version="1.1.1 (3bf5ae0, 2021-09-20)"
   xmlns:inkscape="http://www.inkscape.org/namespaces/inkscape"
   xmlns:sodipodi="http://sodipodi.sourceforge.net/DTD/sodipodi-0.dtd"
   xmlns="http://www.w3.org/2000/svg"
   xmlns:svg="http://www.w3.org/2000/svg">
  <sodipodi:namedview
     id="namedview18655"
     pagecolor="#ffffff"
     bordercolor="#666666"
     borderopacity="1.0"
     inkscape:pageshadow="2"
     inkscape:pageopacity="0.0"
     inkscape:pagecheckerboard="0"
     inkscape:document-units="mm"
     showgrid="false"
     inkscape:zoom="15.662534"
     inkscape:cx="-4.5011873"
     inkscape:cy="12.035089"
     inkscape:window-width="1920"
     inkscape:window-height="966"
     inkscape:window-x="0"
     inkscape:window-y="27"
     inkscape:window-maximized="1"
     inkscape:current-layer="layer1" />
  <defs
     id="defs18650" />
  <g
     inkscape:label="Слой 1"
     inkscape:groupmode="layer"
     id="layer1"
     transform="translate(-104.51681,-161.1519)">
    <path
       d="m 105.52863,161.15238 c -0.15865,-0.007 -0.31432,0.0627 -0.42736,0.2098 -0.2152,0.27995 -0.20261,0.35524 0.11007,0.66094 0.23754,0.23224 0.25544,0.28045 0.14728,0.38861 -0.1273,0.1273 -0.50333,0.0891 -0.50333,-0.0512 0,-0.0415 -0.0764,-0.0282 -0.1695,0.03 -0.12506,0.0781 -0.16898,0.19775 -0.16898,0.45682 0,0.27955 0.034,0.35951 0.16898,0.3948 0.10131,0.0265 0.1695,0.11564 0.1695,0.2217 0,0.14205 0.0527,0.17725 0.26458,0.17725 0.22446,0 0.24847,-0.0191 0.15968,-0.12609 -0.11447,-0.13793 -0.0986,-0.14894 0.37517,-0.25374 0.19934,-0.0441 0.27977,-0.0159 0.4005,0.14108 0.14237,0.18506 0.15113,0.18655 0.15399,0.0269 0.002,-0.0931 0.024,-0.2469 0.0496,-0.3421 0.0389,-0.14486 0.008,-0.17264 -0.19172,-0.1695 -0.18031,0.003 -0.2321,-0.0322 -0.21342,-0.14366 0.0135,-0.081 -0.0161,-0.22263 -0.0656,-0.31522 -0.0718,-0.13413 -0.0553,-0.20305 0.0811,-0.33951 0.0942,-0.0942 0.20953,-0.17157 0.2558,-0.17157 0.13371,0 0.0538,-0.28591 -0.15296,-0.54881 -0.1235,-0.157 -0.28474,-0.23982 -0.44339,-0.24649 z"
       style="fill:#000000;stroke-width:0.0846667"
       id="path18648"
       sodipodi:nodetypes="cccsscscsscccccccccsccc" />
  </g>
</svg>
