<?xml version="1.0" encoding="UTF-8" standalone="no"?>
<!-- Created with Inkscape (http://www.inkscape.org/) -->

<svg
   width="2.9639099mm"
   height="2.9938903mm"
   viewBox="0 0 2.9639099 2.9938903"
   version="1.1"
   id="svg16150"
   sodipodi:docname="damage-left.3.svg"
   inkscape:version="1.1.1 (3bf5ae0, 2021-09-20)"
   xmlns:inkscape="http://www.inkscape.org/namespaces/inkscape"
   xmlns:sodipodi="http://sodipodi.sourceforge.net/DTD/sodipodi-0.dtd"
   xmlns="http://www.w3.org/2000/svg"
   xmlns:svg="http://www.w3.org/2000/svg">
  <sodipodi:namedview
     id="namedview16152"
     pagecolor="#ffffff"
     bordercolor="#666666"
     borderopacity="1.0"
     inkscape:pageshadow="2"
     inkscape:pageopacity="0.0"
     inkscape:pagecheckerboard="0"
     inkscape:document-units="mm"
     showgrid="false"
     inkscape:zoom="11.075084"
     inkscape:cx="-6.004469"
     inkscape:cy="11.692913"
     inkscape:window-width="1920"
     inkscape:window-height="966"
     inkscape:window-x="0"
     inkscape:window-y="27"
     inkscape:window-maximized="1"
     inkscape:current-layer="layer1" />
  <defs
     id="defs16147" />
  <g
     inkscape:label="Слой 1"
     inkscape:groupmode="layer"
     id="layer1"
     transform="translate(-12.280748,-83.595638)">
    <path
       id="path16145"
       style="fill:#000000;stroke-width:0.32"
       transform="matrix(0.26458333,0,0,0.26458333,0.41191349,81.562174)"
       d="m 47.626953,7.6855469 c -0.178785,-3.65e-4 -0.358217,0.00718 -0.533203,0.023437 -0.699942,0.065008 -1.315144,0.2579156 -1.408203,0.5371094 -0.06112,0.183307 -0.314827,0.5374791 -0.564453,0.7871093 -0.307881,0.3078803 -0.344865,0.5216944 -0.111328,0.6660157 0.189581,0.1170141 0.271997,0.4024917 0.183593,0.6328117 -0.182551,0.475748 2.053872,2.155259 2.675782,2.009766 0.221329,-0.05182 0.467474,0.08272 0.546875,0.298829 0.0833,0.226733 -0.389538,0.605331 -1.117188,0.896483 -1.200589,0.480378 -2.201439,1.78585 -1.830078,2.386719 0.0912,0.147628 0.715297,-0.03251 1.386719,-0.40039 0.69775,-0.382164 1.45597,-0.577353 1.769531,-0.457032 0.50324,0.193134 0.507323,0.288839 0.05664,1.160156 -0.651402,1.259573 -0.620363,1.941407 0.08789,1.941407 0.31835,0 0.859533,0.210706 1.201172,0.46875 0.749949,0.566438 1.22403,0.471097 1.369141,-0.277344 0.06769,-0.349115 -0.141322,-0.6228 -0.560547,-0.732422 -0.37889,-0.0991 -0.667969,-0.435414 -0.667969,-0.777344 0,-0.457859 0.232822,-0.601562 0.970703,-0.601562 0.534191,0 1.322346,-0.230212 1.751953,-0.511718 0.748113,-0.490183 0.798254,-0.478688 1.154297,0.302733 0.204435,0.448729 0.760127,0.95314 1.236328,1.119141 0.854381,0.297866 0.866668,0.284441 0.822266,-1.029297 -0.0545,-1.614741 -0.332683,-2.121094 -1.166016,-2.121094 -0.499812,0 -0.613718,-0.18629 -0.541015,-0.880858 0.094,-0.898129 -0.04211,-0.959066 -1.496094,-0.679687 -0.798191,0.153373 -1.031715,-0.793135 -0.458984,-1.863282 0.294463,-0.550242 0.321755,-0.9313372 0.08984,-1.2988283 -0.647799,-1.0269694 -1.029578,-0.7501213 -1.298828,0.9414063 -0.194343,1.220913 -0.424211,1.723381 -0.826172,1.800782 -0.479319,0.0923 -0.558593,-0.157153 -0.558593,-1.78125 0,-1.6765841 -0.08689,-1.9369725 -0.78125,-2.3085945 C 48.686712,7.764615 48.163309,7.6866418 47.626953,7.6855469 Z"
       sodipodi:nodetypes="sccscccssccccssscssccccsssccssscs" />
  </g>
</svg>
