<?xml version="1.0" encoding="UTF-8" standalone="no"?>
<!-- Created with Inkscape (http://www.inkscape.org/) -->

<svg
   width="2.1754892mm"
   height="2.6065583mm"
   viewBox="0 0 2.1754892 2.6065583"
   version="1.1"
   id="svg16150"
   sodipodi:docname="damage-left4.svg"
   inkscape:version="1.1.1 (3bf5ae0, 2021-09-20)"
   xmlns:inkscape="http://www.inkscape.org/namespaces/inkscape"
   xmlns:sodipodi="http://sodipodi.sourceforge.net/DTD/sodipodi-0.dtd"
   xmlns="http://www.w3.org/2000/svg"
   xmlns:svg="http://www.w3.org/2000/svg">
  <sodipodi:namedview
     id="namedview16152"
     pagecolor="#ffffff"
     bordercolor="#666666"
     borderopacity="1.0"
     inkscape:pageshadow="2"
     inkscape:pageopacity="0.0"
     inkscape:pagecheckerboard="0"
     inkscape:document-units="mm"
     showgrid="false"
     inkscape:zoom="11.075084"
     inkscape:cx="-13.318183"
     inkscape:cy="-1.8510017"
     inkscape:window-width="1920"
     inkscape:window-height="966"
     inkscape:window-x="0"
     inkscape:window-y="27"
     inkscape:window-maximized="1"
     inkscape:current-layer="layer1" />
  <defs
     id="defs16147" />
  <g
     inkscape:label="Слой 1"
     inkscape:groupmode="layer"
     id="layer1"
     transform="translate(-8.6934785,-83.849344)">
    <path
       id="path16145"
       style="fill:#000000;stroke-width:0.32"
       transform="matrix(0.26458333,0,0,0.26458333,0.41191349,81.562174)"
       d="m 33.398438,8.6445315 c -0.08303,9.071e-4 -0.160164,0.00701 -0.236329,0.019531 -0.30466,0.050116 -0.570385,0.1956316 -0.921875,0.4570313 -1.23486,0.9184482 -1.252586,1.8851242 -0.05469,3.1210942 0.89217,0.9205 0.984139,1.18024 0.787109,2.230468 -0.178499,0.951481 -0.0813,1.3775 0.484375,2.142578 0.38851,0.525502 0.680685,1.101584 0.583985,1.353516 -0.720898,0.460921 -0.01417,0.499069 0.40039,0.519531 1.15092,0.05681 0.628906,-0.210937 0.628906,-0.46875 0,-0.563161 0.973591,-1.13268 1.9375,-1.132812 0.540991,0 0.658909,0.144985 0.529297,0.640625 -0.227338,0.869336 0.220382,0.804971 1.199219,-0.173828 0.933309,-0.93329 1.035484,-1.259402 0.308594,-0.980469 -0.277984,0.106809 -0.85331,0.106923 -1.279297,0 -0.9,-0.225865 -1.039572,-1.223218 -0.287109,-2.054688 0.438119,-0.483602 0.438814,-0.580903 -0.0078,-0.951171 -0.381022,-0.316234 -0.682697,-0.329157 -1.285156,-0.05469 -1.529102,0.696627 -2.328323,-0.27078 -1.095703,-1.326172 0.4889,-0.418639 0.633747,-0.866362 0.560547,-1.740234 -0.09,-1.0751398 -0.205438,-1.2024456 -1.330079,-1.4667971 C 33.937917,8.6894103 33.647526,8.64181 33.398438,8.6445315 Z"
       sodipodi:nodetypes="scccsccsscscccccsccss" />
  </g>
</svg>
