<?xml version="1.0" encoding="UTF-8" standalone="no"?>
<!-- Created with Inkscape (http://www.inkscape.org/) -->

<svg
   width="1.9384098mm"
   height="2.698977mm"
   viewBox="0 0 1.9384097 2.698977"
   version="1.1"
   id="svg18653"
   sodipodi:docname="damage-right6.svg"
   inkscape:version="1.1.1 (3bf5ae0, 2021-09-20)"
   xmlns:inkscape="http://www.inkscape.org/namespaces/inkscape"
   xmlns:sodipodi="http://sodipodi.sourceforge.net/DTD/sodipodi-0.dtd"
   xmlns="http://www.w3.org/2000/svg"
   xmlns:svg="http://www.w3.org/2000/svg">
  <sodipodi:namedview
     id="namedview18655"
     pagecolor="#ffffff"
     bordercolor="#666666"
     borderopacity="1.0"
     inkscape:pageshadow="2"
     inkscape:pageopacity="0.0"
     inkscape:pagecheckerboard="0"
     inkscape:document-units="mm"
     showgrid="false"
     inkscape:zoom="22.150168"
     inkscape:cx="-9.1421427"
     inkscape:cy="12.618414"
     inkscape:window-width="1920"
     inkscape:window-height="966"
     inkscape:window-x="0"
     inkscape:window-y="27"
     inkscape:window-maximized="1"
     inkscape:current-layer="layer1" />
  <defs
     id="defs18650" />
  <g
     inkscape:label="Слой 1"
     inkscape:groupmode="layer"
     id="layer1"
     transform="translate(-110.3651,-161.28067)">
    <path
       d="m 111.63937,161.28105 c -0.24835,0.007 -0.53174,0.10904 -0.60255,0.24133 -0.12624,0.23588 -0.10418,0.64301 0.0413,0.76378 0.30724,0.25498 0.0232,0.64267 -0.31574,0.43098 -0.18537,-0.11576 -0.17468,-0.12005 -0.30747,0.13539 -0.12374,0.23807 -0.12123,0.28061 0.0176,0.28061 0.0626,0 0.17792,0.071 0.25631,0.15761 0.11334,0.12523 0.12454,0.20443 0.0553,0.38654 -0.0479,0.12596 -0.0868,0.24537 -0.0868,0.26561 0,0.0203 0.0908,0.0378 0.20206,0.0367 0.35601,-0.003 0.19885,-0.0447 0.19068,-0.14779 -0.009,-0.10836 0.0624,-0.15579 0.26355,-0.17518 0.17066,-0.0165 0.30947,-0.0916 0.36639,-0.19792 0.0681,-0.12731 0.14458,-0.15805 0.29662,-0.11989 0.11259,0.0283 0.18267,0.16199 0.20567,-0.0134 5.3e-4,-0.0358 0.0202,-0.14197 0.047,-0.23461 0.0862,-0.29763 0.02,-0.16477 -0.31884,-0.1695 -0.31825,-0.004 -0.36754,-0.0251 -0.39222,-0.19947 -0.0176,-0.12418 0.0504,-0.2841 0.17983,-0.42323 0.12521,-0.13461 0.22537,-0.36613 0.25218,-0.58085 0.0379,-0.30344 0.0195,-0.36438 -0.12351,-0.40979 -0.0659,-0.0209 -0.14459,-0.0293 -0.22737,-0.0269 z"
       style="fill:#000000;stroke-width:0.0846667"
       id="path18648"
       sodipodi:nodetypes="cccccsccscccccccccccccc" />
  </g>
</svg>
