<?xml version="1.0" encoding="UTF-8" standalone="no"?>
<!-- Created with Inkscape (http://www.inkscape.org/) -->

<svg
   width="6.1677837mm"
   height="1.4322839mm"
   viewBox="0 0 6.1677837 1.4322839"
   version="1.1"
   id="svg18653"
   sodipodi:docname="damage-right2.svg"
   inkscape:version="1.1.1 (3bf5ae0, 2021-09-20)"
   xmlns:inkscape="http://www.inkscape.org/namespaces/inkscape"
   xmlns:sodipodi="http://sodipodi.sourceforge.net/DTD/sodipodi-0.dtd"
   xmlns="http://www.w3.org/2000/svg"
   xmlns:svg="http://www.w3.org/2000/svg">
  <sodipodi:namedview
     id="namedview18655"
     pagecolor="#ffffff"
     bordercolor="#666666"
     borderopacity="1.0"
     inkscape:pageshadow="2"
     inkscape:pageopacity="0.0"
     inkscape:pagecheckerboard="0"
     inkscape:document-units="mm"
     showgrid="false"
     inkscape:zoom="15.662534"
     inkscape:cx="25.889808"
     inkscape:cy="-7.2465923"
     inkscape:window-width="1920"
     inkscape:window-height="966"
     inkscape:window-x="0"
     inkscape:window-y="27"
     inkscape:window-maximized="1"
     inkscape:current-layer="layer1" />
  <defs
     id="defs18650" />
  <g
     inkscape:label="Слой 1"
     inkscape:groupmode="layer"
     id="layer1"
     transform="translate(-96.473371,-164.91386)">
    <path
       d="m 101.94022,164.91751 c -0.0921,0.0118 -0.17964,0.0525 -0.25373,0.12661 -0.14689,0.14688 -0.18241,0.54415 -0.0486,0.54415 0.0466,0 0.0847,0.0702 0.0847,0.15554 0,0.0854 0.0253,0.18032 0.0563,0.21136 0.11082,0.11082 0.52079,0.0537 0.709,-0.0987 0.14891,-0.12057 0.17888,-0.20554 0.13436,-0.38292 -0.092,-0.36644 -0.40597,-0.59145 -0.68213,-0.55604 z m -4.892206,0.15867 -0.287322,0.30437 c -0.157998,0.16753 -0.287321,0.35306 -0.287321,0.41238 0,0.13757 0.23936,0.35522 0.509532,0.46302 0.366339,0.14616 0.430408,0.12135 0.318841,-0.12351 -0.07628,-0.16767 -0.07588,-0.2554 0.0026,-0.38085 0.06703,-0.10734 0.071,-0.1633 0.01188,-0.1633 -0.04938,0 -0.12967,-0.11539 -0.1788,-0.25632 z m 5.150076,0.0548 c 0.23159,0.0367 0.34813,0.26892 0.2036,0.53899 -0.1044,0.19508 -0.53428,0.25 -0.46095,0.0589 0.0239,-0.0624 -0.0154,-0.16197 -0.0873,-0.22169 -0.18527,-0.15376 -0.16288,-0.24921 0.0801,-0.34158 0.0974,-0.037 0.18739,-0.0469 0.26459,-0.0346 z m -5.30304,0.41496 c 0.07978,0 0.128493,0.0973 0.137462,0.27543 0.01598,0.31774 0.02619,0.30804 -0.17105,0.16381 -0.174562,-0.12764 -0.150845,-0.43924 0.03359,-0.43924 z"
       style="fill:#000000;stroke-width:0.0846667"
       id="path18648"
       sodipodi:nodetypes="ccsscccccccscccscccscccccccccc" />
  </g>
</svg>
