<?xml version="1.0" encoding="UTF-8" standalone="no"?>
<!-- Created with Inkscape (http://www.inkscape.org/) -->

<svg
   width="2.8419688mm"
   height="3.0336683mm"
   viewBox="0 0 2.8419687 3.0336682"
   version="1.1"
   id="svg18653"
   sodipodi:docname="damage-right3.svg"
   inkscape:version="1.1.1 (3bf5ae0, 2021-09-20)"
   xmlns:inkscape="http://www.inkscape.org/namespaces/inkscape"
   xmlns:sodipodi="http://sodipodi.sourceforge.net/DTD/sodipodi-0.dtd"
   xmlns="http://www.w3.org/2000/svg"
   xmlns:svg="http://www.w3.org/2000/svg">
  <sodipodi:namedview
     id="namedview18655"
     pagecolor="#ffffff"
     bordercolor="#666666"
     borderopacity="1.0"
     inkscape:pageshadow="2"
     inkscape:pageopacity="0.0"
     inkscape:pagecheckerboard="0"
     inkscape:document-units="mm"
     showgrid="false"
     inkscape:zoom="15.662534"
     inkscape:cx="11.65201"
     inkscape:cy="13.184329"
     inkscape:window-width="1920"
     inkscape:window-height="966"
     inkscape:window-x="0"
     inkscape:window-y="27"
     inkscape:window-maximized="1"
     inkscape:current-layer="layer1" />
  <defs
     id="defs18650" />
  <g
     inkscape:label="Слой 1"
     inkscape:groupmode="layer"
     id="layer1"
     transform="translate(-100.2473,-160.8492)">
    <path
       d="m 102.4441,160.85157 c -0.15913,-0.0153 -0.31765,0.0433 -0.46147,0.17725 -0.1662,0.15483 -0.18758,0.23685 -0.14418,0.55346 0.0395,0.28852 0.0225,0.38259 -0.078,0.42116 -0.17375,0.0667 -0.20663,0.0216 -0.26045,-0.36277 -0.0797,-0.56891 -0.10851,-0.60666 -0.29352,-0.37982 -0.15084,0.18493 -0.15407,0.21953 -0.0362,0.39946 0.0709,0.10827 0.12919,0.25623 0.12919,0.32918 0,0.1808 -0.22788,0.25501 -0.38447,0.12506 -0.16081,-0.13347 -0.23092,-0.0657 -0.24185,0.23357 -0.005,0.12889 -0.0547,0.23461 -0.11058,0.23461 -0.19011,0 -0.30802,0.20601 -0.31471,0.54881 -0.005,0.25186 0.0229,0.33055 0.10593,0.29869 0.062,-0.0238 0.14654,-0.0434 0.18811,-0.0434 0.0416,0 0.13643,-0.1176 0.21084,-0.26148 0.12542,-0.24254 0.14632,-0.25192 0.28422,-0.12713 0.0818,0.074 0.26555,0.13488 0.40824,0.13488 0.16425,0 0.27933,0.0516 0.31368,0.14108 0.0496,0.12917 -0.0704,0.27791 -0.22686,0.28111 -0.0349,8e-4 -0.0636,0.0774 -0.0636,0.17054 0,0.21104 0.0311,0.21034 0.48162,-0.008 0.39778,-0.19257 0.43038,-0.25382 0.23823,-0.44597 -0.14457,-0.14457 -0.17154,-0.47801 -0.0388,-0.47801 0.0484,0 0.2367,0.0762 0.41858,0.16898 0.21311,0.10872 0.35004,0.13769 0.38499,0.0811 0.0899,-0.14548 -0.19796,-0.49504 -0.51832,-0.6289 -0.30158,-0.126 -0.32652,-0.29817 -0.0429,-0.29817 0.0833,0 0.23937,-0.0764 0.34675,-0.1695 0.10738,-0.0931 0.22609,-0.1695 0.26407,-0.1695 0.038,0 0.0456,-0.0608 0.0171,-0.13539 -0.0286,-0.0746 -0.009,-0.16187 0.0434,-0.1943 0.0631,-0.039 0.0117,-0.15105 -0.15192,-0.33022 -0.14805,-0.16209 -0.30804,-0.25133 -0.46716,-0.26665 z"
       style="fill:#000000;stroke-width:0.0846667"
       id="path18648"
       sodipodi:nodetypes="cccccccsccsccsccsccscsscccsssccccc" />
  </g>
</svg>
