<?xml version="1.0" encoding="UTF-8" standalone="no"?>
<!-- Created with Inkscape (http://www.inkscape.org/) -->

<svg
   width="2.0824478mm"
   height="2.7191863mm"
   viewBox="0 0 2.0824477 2.7191863"
   version="1.1"
   id="svg18653"
   sodipodi:docname="damage-right5.svg"
   inkscape:version="1.1.1 (3bf5ae0, 2021-09-20)"
   xmlns:inkscape="http://www.inkscape.org/namespaces/inkscape"
   xmlns:sodipodi="http://sodipodi.sourceforge.net/DTD/sodipodi-0.dtd"
   xmlns="http://www.w3.org/2000/svg"
   xmlns:svg="http://www.w3.org/2000/svg">
  <sodipodi:namedview
     id="namedview18655"
     pagecolor="#ffffff"
     bordercolor="#666666"
     borderopacity="1.0"
     inkscape:pageshadow="2"
     inkscape:pageopacity="0.0"
     inkscape:pagecheckerboard="0"
     inkscape:document-units="mm"
     showgrid="false"
     inkscape:zoom="15.662534"
     inkscape:cx="-0.60654297"
     inkscape:cy="18.036672"
     inkscape:window-width="1920"
     inkscape:window-height="966"
     inkscape:window-x="0"
     inkscape:window-y="27"
     inkscape:window-maximized="1"
     inkscape:current-layer="layer1" />
  <defs
     id="defs18650" />
  <g
     inkscape:label="Слой 1"
     inkscape:groupmode="layer"
     id="layer1"
     transform="translate(-107.32053,-160.97797)">
    <path
       d="m 108.84833,160.97976 c -0.0686,-0.006 -0.13824,0.003 -0.20413,0.0284 -0.10496,0.0399 -0.21932,0.0771 -0.25424,0.0827 -0.0349,0.006 -0.057,0.0199 -0.0491,0.0315 0.008,0.0116 -0.0293,0.10277 -0.0827,0.20257 -0.0809,0.15117 -0.0622,0.23282 0.11265,0.49041 0.27107,0.39944 0.26412,0.47077 -0.0444,0.47077 -0.1397,0 -0.25373,-0.0377 -0.25373,-0.0842 0,-0.0466 -0.053,-0.0847 -0.11782,-0.0847 -0.15421,0 -0.25114,0.25736 -0.13901,0.36948 0.24392,0.24393 -0.0101,0.70723 -0.33176,0.60513 -0.22128,-0.0702 -0.21857,-0.0122 0.0114,0.25218 0.2057,0.23659 0.36831,0.28247 0.29145,0.0822 -0.0685,-0.17849 0.16404,-0.25274 0.42272,-0.13488 0.15549,0.0709 0.18325,0.16365 0.18035,0.39533 0.17705,0.0363 0.32128,-0.0303 0.43512,-0.0657 -0.17238,-0.0781 -0.14119,-0.0706 -0.15087,-0.13015 -0.01,-0.0595 0.0633,-0.21072 0.16174,-0.3359 0.14763,-0.18766 0.16917,-0.29667 0.12454,-0.62115 -0.0425,-0.30881 -0.0264,-0.40419 0.0744,-0.44287 0.0706,-0.0271 0.19269,-0.14693 0.27079,-0.26613 0.11791,-0.17997 0.12476,-0.258 0.0413,-0.4594 -0.0922,-0.22259 -0.29285,-0.36866 -0.49868,-0.38551 z"
       style="fill:#000000;stroke-width:0.0846667"
       id="path18648"
       sodipodi:nodetypes="ccccccssscccsccccccccccc" />
  </g>
</svg>
