<?xml version="1.0" encoding="UTF-8" standalone="no"?>
<!-- Created with Inkscape (http://www.inkscape.org/) -->

<svg
   width="2.6916625mm"
   height="3.3744299mm"
   viewBox="0 0 2.6916625 3.3744299"
   version="1.1"
   id="svg18653"
   inkscape:version="1.1.1 (3bf5ae0, 2021-09-20)"
   sodipodi:docname="damage-right1.svg"
   xmlns:inkscape="http://www.inkscape.org/namespaces/inkscape"
   xmlns:sodipodi="http://sodipodi.sourceforge.net/DTD/sodipodi-0.dtd"
   xmlns="http://www.w3.org/2000/svg"
   xmlns:svg="http://www.w3.org/2000/svg">
  <sodipodi:namedview
     id="namedview18655"
     pagecolor="#ffffff"
     bordercolor="#666666"
     borderopacity="1.0"
     inkscape:pageshadow="2"
     inkscape:pageopacity="0.0"
     inkscape:pagecheckerboard="0"
     inkscape:document-units="mm"
     showgrid="false"
     inkscape:zoom="15.662534"
     inkscape:cx="25.889808"
     inkscape:cy="8.1404451"
     inkscape:window-width="1920"
     inkscape:window-height="966"
     inkscape:window-x="0"
     inkscape:window-y="27"
     inkscape:window-maximized="1"
     inkscape:current-layer="layer1" />
  <defs
     id="defs18650" />
  <g
     inkscape:label="Слой 1"
     inkscape:groupmode="layer"
     id="layer1"
     transform="translate(-98.081027,-163.73771)">
    <path
       d="m 99.495926,163.73775 c -0.114308,-1.3e-4 -0.22841,0.0841 -0.22841,0.19689 0,0.16262 0.200663,0.16891 0.33228,0.0103 0.07112,-0.0857 0.0728,-0.13558 0.0062,-0.17673 -0.03386,-0.0209 -0.07197,-0.0305 -0.110072,-0.0305 z m 0.699694,0.27025 c -0.11186,0.005 -0.251141,0.0753 -0.251141,0.14986 0,0.10021 0.315501,0.0976 0.377751,-0.003 0.0268,-0.0434 0.0131,-0.10047 -0.03,-0.12712 -0.025,-0.0155 -0.0593,-0.0212 -0.0966,-0.0196 z m -0.473867,0.31057 c -0.01828,0 -0.143515,0.12284 -0.278019,0.27337 -0.233333,0.26114 -0.259688,0.26933 -0.570508,0.18086 -0.179168,-0.051 -0.396245,-0.1226 -0.482658,-0.15916 -0.133128,-0.0563 -0.123373,-0.0129 0.06356,0.28319 0.296873,0.47028 0.279715,0.75588 -0.07648,1.28519 l -0.296621,0.4408 0.23151,-0.0579 c 0.12749,-0.032 0.270888,-0.0648 0.318326,-0.0729 0.04743,-0.008 0.09769,0.1282 0.112138,0.30282 h 5.29e-4 c 0.01445,0.17463 0.06283,0.3173 0.108006,0.3173 0.04518,0 0.199514,-0.13313 0.342614,-0.29611 0.306356,-0.34892 0.499689,-0.37346 0.712618,-0.0899 0.173452,0.23097 0.291972,0.21043 0.291972,-0.0512 0,-0.1487 0.0426,-0.16879 0.29765,-0.13901 0.16378,0.0191 0.28788,0.0138 0.27544,-0.0119 -0.0124,-0.0257 -0.1687,-0.26281 -0.34726,-0.52658 l -0.32505,-0.47956 0.17673,-0.39894 c 0.21552,-0.48724 0.21525,-0.4889 0.0124,-0.38034 -0.2504,0.13402 -0.314849,0.10898 -0.428914,-0.16639 -0.05786,-0.1397 -0.119692,-0.25373 -0.137975,-0.25373 z m -0.190685,0.70281 c 0.04298,0.006 0.08958,0.038 0.155546,0.0977 0.136691,0.1237 0.147071,0.1803 0.06511,0.36018 -0.08427,0.18495 -0.07201,0.23441 0.09354,0.36845 0.166186,0.13458 0.177176,0.17734 0.08268,0.32867 -0.122965,0.19689 -0.242184,0.2198 -0.387575,0.0744 -0.07635,-0.0764 -0.134991,-0.0703 -0.250113,0.0263 -0.135306,0.11357 -0.169511,0.10553 -0.348301,-0.0806 l -0.198437,-0.20619 0.1788,-0.24236 c 0.124188,-0.16786 0.162713,-0.30782 0.125574,-0.45579 -0.04357,-0.17357 -0.02753,-0.2036 0.08423,-0.16071 0.07562,0.029 0.194971,0.005 0.265102,-0.0532 0.05184,-0.043 0.09085,-0.0629 0.133842,-0.0568 z"
       style="fill:#000000;stroke-width:0.0846667"
       id="path18648"
       sodipodi:nodetypes="cscccccscccccccccccccccsccscccccccccccscccccccccccc" />
  </g>
</svg>
