<?xml version="1.0" encoding="UTF-8" standalone="no"?>
<!-- Created with Inkscape (http://www.inkscape.org/) -->

<svg
   width="2.5831404mm"
   height="3.2147994mm"
   viewBox="0 0 2.5831404 3.2147994"
   version="1.1"
   id="svg16150"
   inkscape:version="1.1.1 (3bf5ae0, 2021-09-20)"
   sodipodi:docname="damage-left1.svg"
   xmlns:inkscape="http://www.inkscape.org/namespaces/inkscape"
   xmlns:sodipodi="http://sodipodi.sourceforge.net/DTD/sodipodi-0.dtd"
   xmlns="http://www.w3.org/2000/svg"
   xmlns:svg="http://www.w3.org/2000/svg">
  <sodipodi:namedview
     id="namedview16152"
     pagecolor="#ffffff"
     bordercolor="#666666"
     borderopacity="1.0"
     inkscape:pageshadow="2"
     inkscape:pageopacity="0.0"
     inkscape:pagecheckerboard="0"
     inkscape:document-units="mm"
     showgrid="false"
     inkscape:zoom="11.075084"
     inkscape:cx="-21.534825"
     inkscape:cy="5.5530052"
     inkscape:window-width="1920"
     inkscape:window-height="966"
     inkscape:window-x="0"
     inkscape:window-y="27"
     inkscape:window-maximized="1"
     inkscape:current-layer="layer1" />
  <defs
     id="defs16147" />
  <g
     inkscape:label="Слой 1"
     inkscape:groupmode="layer"
     id="layer1"
     transform="translate(-14.855993,-86.466258)">
    <path
       id="path16145"
       style="fill:#000000;stroke-width:0.32"
       transform="matrix(0.26458333,0,0,0.26458333,0.41191349,81.562174)"
       d="m 59.009766,18.535156 c -0.666213,0.0015 -0.853121,0.749379 -0.177735,1.019532 0.605261,0.242116 1.039063,0.05281 1.039063,-0.453126 0,-0.249335 -0.324703,-0.500442 -0.720703,-0.55664 -0.04855,-0.0069 -0.09621,-0.0099 -0.140625,-0.0098 z m -2.712891,0.988282 c -0.169928,-0.0042 -0.32255,0.02082 -0.427734,0.08594 -0.180473,0.111534 -0.245785,0.336154 -0.144532,0.5 0.239963,0.388199 1.746094,0.388369 1.746094,0 0,-0.293518 -0.663989,-0.57359 -1.173828,-0.585937 z m 2.189453,1.130859 -0.515625,0.996094 c -0.510992,0.988138 -1.238671,1.293343 -1.619141,0.677734 -0.108774,-0.176013 -0.331125,-0.320313 -0.49414,-0.320313 -0.163049,0 -0.01096,0.467062 0.33789,1.039063 0.89223,1.463361 0.797675,2.218857 -0.484374,3.898437 -0.616003,0.807001 -1.119141,1.514312 -1.119141,1.570313 0,0.05601 0.439676,0.03595 0.978515,-0.04297 0.794253,-0.11656 1.014204,-0.01549 1.158204,0.535156 0.221178,0.845761 0.485066,0.853956 1.222656,0.03906 0.81662,-0.902362 1.434904,-0.786053 2.720703,0.509766 l 1.119141,1.128906 0.101562,-1.177735 c 0.101594,-1.17719 0.10288,-1.179221 1.38086,-1.007812 1.263832,0.169512 1.273492,0.164597 0.771484,-0.519531 -1.974762,-2.691081 -2.068502,-3.316859 -0.769531,-5.117188 0.359206,-0.497832 0.604423,-0.949704 0.544921,-1.003906 -0.05949,-0.0542 -0.797722,0.122636 -1.640624,0.394531 l -1.533204,0.494141 -1.080078,-1.046875 z m 0.746094,2.507812 c 0.102643,-0.006 0.195522,0.03351 0.279297,0.117188 0.18017,0.18017 0.669278,0.328125 1.085937,0.328125 0.612072,0 0.716895,0.123397 0.552735,0.640625 -0.125972,0.39693 0.03742,0.978329 0.429687,1.529297 l 0.632813,0.888672 -0.806641,0.71875 c -0.637791,0.568089 -0.90444,0.640272 -1.261719,0.34375 -0.341102,-0.283087 -0.649984,-0.286037 -1.251953,-0.01172 -0.71277,0.324775 -0.837745,0.277117 -1.166016,-0.443359 -0.318765,-0.69964 -0.274117,-0.871725 0.330079,-1.294922 0.573539,-0.40173 0.634721,-0.60398 0.349609,-1.136719 -0.272731,-0.509571 -0.225294,-0.779048 0.216797,-1.267578 0.191622,-0.211767 0.357363,-0.34227 0.503906,-0.390625 0.03663,-0.01208 0.07125,-0.01948 0.105469,-0.02148 z"
       sodipodi:nodetypes="csssccsccsssccsscsscsccccscssccccscsscccscsscssss" />
  </g>
</svg>
