<?xml version="1.0" encoding="UTF-8" standalone="no"?>
<!-- Created with Inkscape (http://www.inkscape.org/) -->

<svg
   width="2.1722455mm"
   height="2.6927984mm"
   viewBox="0 0 2.1722455 2.6927983"
   version="1.1"
   id="svg14902"
   sodipodi:docname="egg-left-down2.svg"
   inkscape:version="1.1.1 (3bf5ae0, 2021-09-20)"
   xmlns:inkscape="http://www.inkscape.org/namespaces/inkscape"
   xmlns:sodipodi="http://sodipodi.sourceforge.net/DTD/sodipodi-0.dtd"
   xmlns="http://www.w3.org/2000/svg"
   xmlns:svg="http://www.w3.org/2000/svg">
  <sodipodi:namedview
     id="namedview14904"
     pagecolor="#ffffff"
     bordercolor="#666666"
     borderopacity="1.0"
     inkscape:pageshadow="2"
     inkscape:pageopacity="0.0"
     inkscape:pagecheckerboard="0"
     inkscape:document-units="mm"
     showgrid="false"
     inkscape:zoom="11.075084"
     inkscape:cx="41.670112"
     inkscape:cy="11.873499"
     inkscape:window-width="1920"
     inkscape:window-height="966"
     inkscape:window-x="0"
     inkscape:window-y="27"
     inkscape:window-maximized="1"
     inkscape:current-layer="layer1" />
  <defs
     id="defs14899" />
  <g
     inkscape:label="Слой 1"
     inkscape:groupmode="layer"
     id="layer1"
     transform="translate(29.178643,-69.101538)">
    <path
       d="m -27.559536,69.102126 c -0.114943,-0.0067 -0.249774,0.04394 -0.455271,0.149863 -0.548653,0.282797 -1.049906,0.919377 -1.150316,1.460375 -0.06834,0.368208 0.131033,0.85697 0.403593,0.989087 0.09813,0.04756 0.346268,0.08935 0.551386,0.0925 0.327494,0.005 0.411602,-0.03508 0.690399,-0.328144 0.523653,-0.550476 0.690007,-1.772894 0.295071,-2.167827 -0.125121,-0.125124 -0.219921,-0.189179 -0.334862,-0.195854 z m -0.36277,0.510567 c 0.04656,-0.006 0.09672,-0.0047 0.155546,0.0011 0.213953,0.02061 0.299778,0.0795 0.358119,0.246496 0.110336,0.315829 -0.0052,0.931094 -0.224277,1.196307 -0.234757,0.284167 -0.543219,0.354756 -0.838708,0.191719 -0.448318,-0.247364 -0.40731,-0.78832 0.100253,-1.321882 0.20306,-0.21346 0.309396,-0.295558 0.449067,-0.313677 z"
       style="fill:#000000;stroke-width:0.0846667"
       id="path14859"
       sodipodi:nodetypes="ccscccccccsccscc" />
  </g>
</svg>
