<?xml version="1.0" encoding="UTF-8" standalone="no"?>
<!-- Created with Inkscape (http://www.inkscape.org/) -->

<svg
   width="1.935392mm"
   height="2.8614392mm"
   viewBox="0 0 1.9353921 2.8614391"
   version="1.1"
   id="svg14464"
   sodipodi:docname="egg-left-up3.svg"
   inkscape:version="1.1.1 (3bf5ae0, 2021-09-20)"
   xmlns:inkscape="http://www.inkscape.org/namespaces/inkscape"
   xmlns:sodipodi="http://sodipodi.sourceforge.net/DTD/sodipodi-0.dtd"
   xmlns="http://www.w3.org/2000/svg"
   xmlns:svg="http://www.w3.org/2000/svg">
  <sodipodi:namedview
     id="namedview14466"
     pagecolor="#ffffff"
     bordercolor="#666666"
     borderopacity="1.0"
     inkscape:pageshadow="2"
     inkscape:pageopacity="0.0"
     inkscape:pagecheckerboard="0"
     inkscape:document-units="mm"
     showgrid="false"
     inkscape:zoom="11.075084"
     inkscape:cx="-14.221111"
     inkscape:cy="0.67719576"
     inkscape:window-width="1920"
     inkscape:window-height="966"
     inkscape:window-x="0"
     inkscape:window-y="27"
     inkscape:window-maximized="1"
     inkscape:current-layer="layer1" />
  <defs
     id="defs14461" />
  <g
     inkscape:label="Слой 1"
     inkscape:groupmode="layer"
     id="layer1"
     transform="translate(-14.880091,-55.621312)">
    <path
       d="m 15.690708,55.631748 c -0.58524,0.120714 -1.011928,1.261512 -0.7121,2.16421 0.07935,0.238897 0.225801,0.491328 0.325562,0.561205 0.09976,0.06987 0.277627,0.126632 0.395324,0.125574 0.316765,-0.0028 0.905659,-0.296021 1.018543,-0.506947 0.317717,-0.593664 -0.194879,-2.147533 -0.768429,-2.329572 -0.08841,-0.02806 -0.175295,-0.03171 -0.2589,-0.01447 z m -5.3e-4,0.482142 c 0.295556,0 0.439071,0.09852 0.599448,0.412893 0.258144,0.50613 0.258498,0.988645 0.0016,1.264523 -0.391736,0.420479 -1.000871,0.134356 -1.072806,-0.503846 -0.05569,-0.494128 0.21739,-1.17357 0.471805,-1.17357 z"
       style="fill:#000000;stroke-width:0.0846667"
       id="path14459"
       sodipodi:nodetypes="csccssccccccc" />
  </g>
</svg>
