<?xml version="1.0" encoding="UTF-8" standalone="no"?>
<!-- Created with Inkscape (http://www.inkscape.org/) -->

<svg
   width="1.9846768mm"
   height="2.8071589mm"
   viewBox="0 0 1.9846769 2.8071589"
   version="1.1"
   id="svg19158"
   sodipodi:docname="egg-right-down4.svg"
   inkscape:version="1.1.1 (3bf5ae0, 2021-09-20)"
   xmlns:inkscape="http://www.inkscape.org/namespaces/inkscape"
   xmlns:sodipodi="http://sodipodi.sourceforge.net/DTD/sodipodi-0.dtd"
   xmlns="http://www.w3.org/2000/svg"
   xmlns:svg="http://www.w3.org/2000/svg">
  <sodipodi:namedview
     id="namedview19160"
     pagecolor="#ffffff"
     bordercolor="#666666"
     borderopacity="1.0"
     inkscape:pageshadow="2"
     inkscape:pageopacity="0.0"
     inkscape:pagecheckerboard="0"
     inkscape:document-units="mm"
     showgrid="false"
     inkscape:zoom="7.8312671"
     inkscape:cx="-34.796412"
     inkscape:cy="12.194706"
     inkscape:window-width="1920"
     inkscape:window-height="966"
     inkscape:window-x="0"
     inkscape:window-y="27"
     inkscape:window-maximized="1"
     inkscape:current-layer="layer1" />
  <defs
     id="defs19155" />
  <g
     inkscape:label="Слой 1"
     inkscape:groupmode="layer"
     id="layer1"
     transform="translate(-0.01281233,-64.430993)">
    <path
       d="m 1.028437,64.430993 c -0.35944971,0 -0.46514551,0.03821 -0.64698831,0.23306 -0.3413654,0.365792 -0.4266962,0.749557 -0.3333142,1.501717 0.0603515,0.486127 0.1297649,0.704004 0.2723357,0.855763 0.3789071,0.403328 0.79158041,0.244655 1.26400451,-0.486275 C 2.31033,65.412218 2.0512658,64.430993 1.028437,64.430993 Z m -0.085783,0.466121 c 0.083003,-0.006 0.1703653,0.0021 0.2594161,0.02635 0.5236395,0.141952 0.5329237,1.034563 0.016034,1.539957 -0.3760708,0.367679 -0.6464141,0.330081 -0.8149378,-0.11317 -0.11489,-0.302106 -0.11498,-0.721783 0,-1.051615 0.082423,-0.23644 0.290494,-0.38358 0.5395013,-0.401527 z"
       style="fill:#000000;stroke-width:0.0846667"
       id="path19153"
       sodipodi:nodetypes="ccscsccccsccc" />
  </g>
</svg>
