<?xml version="1.0" encoding="UTF-8" standalone="no"?>
<!-- Created with Inkscape (http://www.inkscape.org/) -->

<svg
   width="2.2078257mm"
   height="2.7083662mm"
   viewBox="0 0 2.2078257 2.7083661"
   version="1.1"
   id="svg19158"
   sodipodi:docname="egg-right-down2.svg"
   inkscape:version="1.1.1 (3bf5ae0, 2021-09-20)"
   xmlns:inkscape="http://www.inkscape.org/namespaces/inkscape"
   xmlns:sodipodi="http://sodipodi.sourceforge.net/DTD/sodipodi-0.dtd"
   xmlns="http://www.w3.org/2000/svg"
   xmlns:svg="http://www.w3.org/2000/svg">
  <sodipodi:namedview
     id="namedview19160"
     pagecolor="#ffffff"
     bordercolor="#666666"
     borderopacity="1.0"
     inkscape:pageshadow="2"
     inkscape:pageopacity="0.0"
     inkscape:pagecheckerboard="0"
     inkscape:document-units="mm"
     showgrid="false"
     inkscape:zoom="7.8312671"
     inkscape:cx="-4.9161904"
     inkscape:cy="35.690265"
     inkscape:window-width="1920"
     inkscape:window-height="966"
     inkscape:window-x="0"
     inkscape:window-y="27"
     inkscape:window-maximized="1"
     inkscape:current-layer="layer1" />
  <defs
     id="defs19155" />
  <g
     inkscape:label="Слой 1"
     inkscape:groupmode="layer"
     id="layer1"
     transform="translate(-4.8731826,-61.384155)">
    <path
       d="m 5.4772602,61.384161 c -0.1613562,5.3e-4 -0.3005323,0.07476 -0.4165124,0.222208 -0.3811243,0.484518 -0.1523312,1.665457 0.4237487,2.185913 0.2602812,0.235146 0.4035505,0.300239 0.6609398,0.300239 0.2759313,0 0.3774546,-0.05438 0.6345873,-0.338997 0.48078,-0.532165 0.392978,-1.021065 -0.3167751,-1.7632 C 6.0763562,61.58578 5.7461906,61.383104 5.4772602,61.384159 Z m 0.1746673,0.506942 c 0.1494605,0.0027 0.3240564,0.07389 0.4997106,0.221692 0.5052166,0.425111 0.6537535,0.990592 0.3420983,1.302247 C 6.2605962,63.648183 5.7899501,63.639841 5.5651098,63.398504 5.3832511,63.203299 5.2248397,62.746533 5.224046,62.414584 5.2232522,62.073227 5.4028276,61.88677 5.6519275,61.891101 Z"
       style="fill:#000000;stroke-width:0.0846667"
       id="path19153"
       sodipodi:nodetypes="cccscsccccscccc" />
  </g>
</svg>
