<?xml version="1.0" encoding="UTF-8" standalone="no"?>
<!-- Created with Inkscape (http://www.inkscape.org/) -->

<svg
   width="2.0114269mm"
   height="2.7655566mm"
   viewBox="0 0 2.011427 2.7655566"
   version="1.1"
   id="svg15824"
   sodipodi:docname="egg-right-up5.svg"
   inkscape:version="1.1.1 (3bf5ae0, 2021-09-20)"
   xmlns:inkscape="http://www.inkscape.org/namespaces/inkscape"
   xmlns:sodipodi="http://sodipodi.sourceforge.net/DTD/sodipodi-0.dtd"
   xmlns="http://www.w3.org/2000/svg"
   xmlns:svg="http://www.w3.org/2000/svg">
  <sodipodi:namedview
     id="namedview15826"
     pagecolor="#ffffff"
     bordercolor="#666666"
     borderopacity="1.0"
     inkscape:pageshadow="2"
     inkscape:pageopacity="0.0"
     inkscape:pagecheckerboard="0"
     inkscape:document-units="mm"
     showgrid="false"
     inkscape:zoom="7.8312671"
     inkscape:cx="16.28089"
     inkscape:cy="0.70231291"
     inkscape:window-width="1920"
     inkscape:window-height="966"
     inkscape:window-x="0"
     inkscape:window-y="27"
     inkscape:window-maximized="1"
     inkscape:current-layer="layer1" />
  <defs
     id="defs15821" />
  <g
     inkscape:label="Слой 1"
     inkscape:groupmode="layer"
     id="layer1"
     transform="translate(-26.133411,-37.066391)">
    <path
       d="m 27.098847,37.076178 c -0.230135,0.02662 -0.457655,0.106402 -0.588079,0.228928 -0.511683,0.480706 -0.500084,2.140056 0.01704,2.440678 0.235884,0.137113 0.398407,0.114758 0.714687,-0.09715 0.399037,-0.267359 0.816986,-0.920115 0.886767,-1.385446 0.06894,-0.459742 -0.09402,-0.876443 -0.428397,-1.095539 -0.139367,-0.09132 -0.371899,-0.118091 -0.602031,-0.09147 z m 0.116271,0.435115 c 0.368726,0.09202 0.5271,0.288428 0.5271,0.654225 0,0.395983 -0.17045,0.75126 -0.475424,0.991153 -0.480883,0.378261 -0.794782,0.103941 -0.794782,-0.695047 0,-0.438777 0.02959,-0.525164 0.256315,-0.751893 0.207309,-0.207317 0.300064,-0.245036 0.486791,-0.198438 z"
       style="fill:#000000;stroke-width:0.0846667"
       id="path15781"
       sodipodi:nodetypes="cccccscccscscc" />
  </g>
</svg>
