<?xml version="1.0" encoding="UTF-8" standalone="no"?>
<!-- Created with Inkscape (http://www.inkscape.org/) -->

<svg
   width="1.9740618mm"
   height="2.8567345mm"
   viewBox="0 0 1.9740618 2.8567344"
   version="1.1"
   id="svg14902"
   sodipodi:docname="egg-left-down4.svg"
   inkscape:version="1.1.1 (3bf5ae0, 2021-09-20)"
   xmlns:inkscape="http://www.inkscape.org/namespaces/inkscape"
   xmlns:sodipodi="http://sodipodi.sourceforge.net/DTD/sodipodi-0.dtd"
   xmlns="http://www.w3.org/2000/svg"
   xmlns:svg="http://www.w3.org/2000/svg">
  <sodipodi:namedview
     id="namedview14904"
     pagecolor="#ffffff"
     bordercolor="#666666"
     borderopacity="1.0"
     inkscape:pageshadow="2"
     inkscape:pageopacity="0.0"
     inkscape:pagecheckerboard="0"
     inkscape:document-units="mm"
     showgrid="false"
     inkscape:zoom="11.075084"
     inkscape:cx="-6.9976895"
     inkscape:cy="-0.67719576"
     inkscape:window-width="1920"
     inkscape:window-height="966"
     inkscape:window-x="0"
     inkscape:window-y="27"
     inkscape:window-maximized="1"
     inkscape:current-layer="layer1" />
  <defs
     id="defs14899" />
  <g
     inkscape:label="Слой 1"
     inkscape:groupmode="layer"
     id="layer1"
     transform="translate(24.250698,-71.905516)">
    <path
       d="m -23.305533,71.907635 c -0.09389,0.01021 -0.19539,0.05766 -0.374655,0.14986 -0.44957,0.231222 -0.571305,0.419622 -0.570506,0.884701 5.3e-4,0.39215 0.354775,1.169604 0.710034,1.558563 0.292769,0.32054 0.647094,0.348649 0.906404,0.07183 0.266348,-0.28433 0.359188,-0.604872 0.3576,-1.233517 -0.0019,-0.727506 -0.235969,-1.181362 -0.700214,-1.358056 -0.148479,-0.05651 -0.234773,-0.0836 -0.328663,-0.07338 z m -0.0956,0.545185 c 0.300765,-0.0575 0.6663,0.132204 0.732771,0.380339 0.0933,0.348289 0.05694,0.917006 -0.07493,1.172022 -0.235119,0.454676 -0.740592,0.25541 -1.02371,-0.403593 -0.240151,-0.558996 -0.07944,-1.063641 0.365869,-1.148768 z"
       style="fill:#000000;stroke-width:0.0846667"
       id="path14859"
       sodipodi:nodetypes="sscsscssscsccc" />
  </g>
</svg>
