<?xml version="1.0" encoding="UTF-8" standalone="no"?>
<!-- Created with Inkscape (http://www.inkscape.org/) -->

<svg
   width="2.0775409mm"
   height="2.7605884mm"
   viewBox="0 0 2.0775409 2.7605884"
   version="1.1"
   id="svg15824"
   inkscape:version="1.1.1 (3bf5ae0, 2021-09-20)"
   sodipodi:docname="egg-right-up1.svg"
   xmlns:inkscape="http://www.inkscape.org/namespaces/inkscape"
   xmlns:sodipodi="http://sodipodi.sourceforge.net/DTD/sodipodi-0.dtd"
   xmlns="http://www.w3.org/2000/svg"
   xmlns:svg="http://www.w3.org/2000/svg">
  <sodipodi:namedview
     id="namedview15826"
     pagecolor="#ffffff"
     bordercolor="#666666"
     borderopacity="1.0"
     inkscape:pageshadow="2"
     inkscape:pageopacity="0.0"
     inkscape:pagecheckerboard="0"
     inkscape:document-units="mm"
     showgrid="false"
     inkscape:zoom="7.8312671"
     inkscape:cx="3.5115646"
     inkscape:cy="33.647173"
     inkscape:window-width="1920"
     inkscape:window-height="966"
     inkscape:window-x="0"
     inkscape:window-y="27"
     inkscape:window-maximized="1"
     inkscape:current-layer="layer1" />
  <defs
     id="defs15821" />
  <g
     inkscape:label="Слой 1"
     inkscape:groupmode="layer"
     id="layer1"
     transform="translate(-35.642008,-30.791846)">
    <path
       d="m 37.141644,30.795941 c -0.49584,-0.0732 -1.357418,0.849638 -1.482079,1.5875 -0.09562,0.565941 0.205131,1.015386 0.760677,1.136367 0.597799,0.130185 0.95931,-0.125368 1.182873,-0.836126 0.273589,-0.869812 0.04299,-1.813266 -0.461471,-1.887741 z m -0.19482,0.483693 c 0.147851,-0.0052 0.275928,0.06637 0.348816,0.226343 0.211256,0.46365 0.0373,1.283705 -0.312127,1.47071 -0.255521,0.13675 -0.472387,0.111239 -0.720886,-0.08423 -0.273635,-0.215238 -0.291423,-0.543314 -0.05478,-1.007173 0.191699,-0.375759 0.492554,-0.597009 0.738974,-0.605647 z"
       style="fill:#000000;stroke-width:0.0846667"
       id="path15781"
       sodipodi:nodetypes="scccsccscscc" />
  </g>
</svg>
