<?xml version="1.0" encoding="UTF-8" standalone="no"?>
<!-- Created with Inkscape (http://www.inkscape.org/) -->

<svg
   width="1.9650009mm"
   height="2.8674686mm"
   viewBox="0 0 1.9650009 2.8674686"
   version="1.1"
   id="svg15824"
   sodipodi:docname="egg-right-up2.svg"
   inkscape:version="1.1.1 (3bf5ae0, 2021-09-20)"
   xmlns:inkscape="http://www.inkscape.org/namespaces/inkscape"
   xmlns:sodipodi="http://sodipodi.sourceforge.net/DTD/sodipodi-0.dtd"
   xmlns="http://www.w3.org/2000/svg"
   xmlns:svg="http://www.w3.org/2000/svg">
  <sodipodi:namedview
     id="namedview15826"
     pagecolor="#ffffff"
     bordercolor="#666666"
     borderopacity="1.0"
     inkscape:pageshadow="2"
     inkscape:pageopacity="0.0"
     inkscape:pagecheckerboard="0"
     inkscape:document-units="mm"
     showgrid="false"
     inkscape:zoom="7.8312671"
     inkscape:cx="-28.156363"
     inkscape:cy="29.177909"
     inkscape:window-width="1920"
     inkscape:window-height="966"
     inkscape:window-x="0"
     inkscape:window-y="27"
     inkscape:window-maximized="1"
     inkscape:current-layer="layer1" />
  <defs
     id="defs15821" />
  <g
     inkscape:label="Слой 1"
     inkscape:groupmode="layer"
     id="layer1"
     transform="translate(-33.342187,-31.967447)">
    <path
       d="m 34.27567,31.967447 c -0.410885,0 -0.844696,0.657667 -0.920875,1.39578 -0.05764,0.558464 0.08288,0.992706 0.410827,1.268656 0.302254,0.254328 0.581694,0.267819 1.058852,0.05116 0.277098,-0.12582 0.364992,-0.219607 0.416512,-0.442868 0.114615,-0.496686 0.09125,-0.693293 -0.156064,-1.299143 -0.248346,-0.608397 -0.55194,-0.973585 -0.809252,-0.973585 z m 0.0894,0.551905 c 0.48174,0.120912 0.76718,1.286438 0.404108,1.64951 -0.201617,0.201618 -0.568023,0.219253 -0.824238,0.03979 -0.549674,-0.385006 -0.187367,-1.841773 0.42013,-1.6893 z"
       style="fill:#000000;stroke-width:0.0846667"
       id="path15781"
       sodipodi:nodetypes="sccsscscscc" />
  </g>
</svg>
