<?xml version="1.0" encoding="UTF-8" standalone="no"?>
<!-- Created with Inkscape (http://www.inkscape.org/) -->

<svg
   width="2.7934744mm"
   height="2.08764mm"
   viewBox="0 0 2.7934745 2.08764"
   version="1.1"
   id="svg19158"
   inkscape:version="1.1.1 (3bf5ae0, 2021-09-20)"
   sodipodi:docname="egg-right-down1.svg"
   xmlns:inkscape="http://www.inkscape.org/namespaces/inkscape"
   xmlns:sodipodi="http://sodipodi.sourceforge.net/DTD/sodipodi-0.dtd"
   xmlns="http://www.w3.org/2000/svg"
   xmlns:svg="http://www.w3.org/2000/svg">
  <sodipodi:namedview
     id="namedview19160"
     pagecolor="#ffffff"
     bordercolor="#666666"
     borderopacity="1.0"
     inkscape:pageshadow="2"
     inkscape:pageopacity="0.0"
     inkscape:pagecheckerboard="0"
     inkscape:document-units="mm"
     showgrid="false"
     inkscape:zoom="7.8312671"
     inkscape:cx="24.197872"
     inkscape:cy="38.754903"
     inkscape:window-width="1920"
     inkscape:window-height="966"
     inkscape:window-x="0"
     inkscape:window-y="27"
     inkscape:window-maximized="1"
     inkscape:current-layer="layer1" />
  <defs
     id="defs19155" />
  <g
     inkscape:label="Слой 1"
     inkscape:groupmode="layer"
     id="layer1"
     transform="translate(-7.4249458,-60.562079)">
    <path
       d="m 8.9271808,60.566681 c -0.742476,0.04978 -1.502235,0.493754 -1.502235,1.086238 0,0.27695 0.282755,0.773732 0.529166,0.930178 0.169506,0.107619 0.720831,0.08066 1.03508,-0.05064 0.158914,-0.0664 0.500951,-0.325634 0.759642,-0.576191 0.5558582,-0.53839 0.6042532,-0.783868 0.21911,-1.107943 -0.194924,-0.164021 -0.451107,-0.252182 -0.726054,-0.278022 -0.103106,-0.0097 -0.208643,-0.01071 -0.314709,-0.0036 z m 0.05168,0.34985 c 0.314113,0.02029 0.654735,0.132818 0.703315,0.259416 0.08663,0.225745 -0.05447,0.536096 -0.344164,0.757058 -0.718246,0.547833 -1.405083,0.376041 -1.405083,-0.351399 0,-0.314375 0.286221,-0.562059 0.752408,-0.651639 0.08698,-0.01672 0.18882,-0.02021 0.293524,-0.01344 z"
       style="fill:#000000;stroke-width:0.0846667"
       id="path19153"
       sodipodi:nodetypes="csssccccccccsccc" />
  </g>
</svg>
