<?xml version="1.0" encoding="UTF-8" standalone="no"?>
<!-- Created with Inkscape (http://www.inkscape.org/) -->

<svg
   width="2.8561301mm"
   height="1.9478922mm"
   viewBox="0 0 2.8561302 1.9478921"
   version="1.1"
   id="svg14464"
   sodipodi:docname="egg-left-up2.svg"
   inkscape:version="1.1.1 (3bf5ae0, 2021-09-20)"
   xmlns:inkscape="http://www.inkscape.org/namespaces/inkscape"
   xmlns:sodipodi="http://sodipodi.sourceforge.net/DTD/sodipodi-0.dtd"
   xmlns="http://www.w3.org/2000/svg"
   xmlns:svg="http://www.w3.org/2000/svg">
  <sodipodi:namedview
     id="namedview14466"
     pagecolor="#ffffff"
     bordercolor="#666666"
     borderopacity="1.0"
     inkscape:pageshadow="2"
     inkscape:pageopacity="0.0"
     inkscape:pagecheckerboard="0"
     inkscape:document-units="mm"
     showgrid="false"
     inkscape:zoom="11.075084"
     inkscape:cx="5.1918341"
     inkscape:cy="13.047305"
     inkscape:window-width="1920"
     inkscape:window-height="966"
     inkscape:window-x="0"
     inkscape:window-y="27"
     inkscape:window-maximized="1"
     inkscape:current-layer="layer1" />
  <defs
     id="defs14461" />
  <g
     inkscape:label="Слой 1"
     inkscape:groupmode="layer"
     id="layer1"
     transform="translate(-11.912622,-54.78229)">
    <path
       d="m 13.331672,54.787354 c -0.66226,-0.03714 -1.054235,0.128429 -1.299146,0.549323 -0.14741,0.253322 -0.152339,0.315587 -0.05064,0.623734 0.163229,0.494591 0.37847,0.731374 0.695047,0.763259 0.597283,0.06015 1.600438,-0.305765 1.945616,-0.709517 0.456959,-0.53449 -0.207902,-1.166072 -1.290877,-1.226799 z m -0.02273,0.301792 c 0.181657,0.0067 0.378502,0.04895 0.576709,0.131776 0.539242,0.225308 0.504188,0.690623 -0.07286,0.969965 -0.415452,0.201117 -0.958922,0.226957 -1.183908,0.05633 -0.08362,-0.06341 -0.173804,-0.249931 -0.200503,-0.414443 -0.07567,-0.466318 0.335597,-0.763887 0.880565,-0.743625 z"
       style="fill:#000000;stroke-width:0.0846667"
       id="path14459"
       sodipodi:nodetypes="sccccssccccccc" />
  </g>
</svg>
