<?xml version="1.0" encoding="UTF-8" standalone="no"?>
<!-- Created with Inkscape (http://www.inkscape.org/) -->

<svg
   width="2.7822945mm"
   height="1.9526911mm"
   viewBox="0 0 2.7822946 1.952691"
   version="1.1"
   id="svg14464"
   sodipodi:docname="egg-left-up5.svg"
   inkscape:version="1.1.1 (3bf5ae0, 2021-09-20)"
   xmlns:inkscape="http://www.inkscape.org/namespaces/inkscape"
   xmlns:sodipodi="http://sodipodi.sourceforge.net/DTD/sodipodi-0.dtd"
   xmlns="http://www.w3.org/2000/svg"
   xmlns:svg="http://www.w3.org/2000/svg">
  <sodipodi:namedview
     id="namedview14466"
     pagecolor="#ffffff"
     bordercolor="#666666"
     borderopacity="1.0"
     inkscape:pageshadow="2"
     inkscape:pageopacity="0.0"
     inkscape:pagecheckerboard="0"
     inkscape:document-units="mm"
     showgrid="false"
     inkscape:zoom="5.5375421"
     inkscape:cx="58.238835"
     inkscape:cy="14.175965"
     inkscape:window-width="1920"
     inkscape:window-height="966"
     inkscape:window-x="0"
     inkscape:window-y="27"
     inkscape:window-maximized="1"
     inkscape:current-layer="layer1" />
  <defs
     id="defs14461" />
  <g
     inkscape:label="Слой 1"
     inkscape:groupmode="layer"
     id="layer1"
     transform="translate(-19.293072,-60.753899)">
    <path
       d="m 20.958075,60.753915 c -0.210277,-7.94e-4 -0.449778,0.0273 -0.717785,0.08475 -0.524124,0.112353 -0.703843,0.190442 -0.830959,0.361217 -0.200729,0.269666 -0.140912,0.573308 0.174667,0.889352 0.218192,0.218517 0.324105,0.275992 0.944129,0.50953 0.92338,0.347792 1.687293,-0.182886 1.525487,-1.059368 -0.09601,-0.520057 -0.464709,-0.783254 -1.095539,-0.785481 z M 20.70176,61.05364 c 0.729594,-0.02991 1.214358,0.531567 0.778764,1.064533 -0.295143,0.361122 -1.040114,0.272142 -1.523423,-0.181901 -0.357765,-0.336103 -0.191024,-0.66784 0.418581,-0.83199 0.112247,-0.03022 0.221851,-0.04637 0.326078,-0.05064 z"
       style="fill:#000000;stroke-width:0.0846667"
       id="path14459"
       sodipodi:nodetypes="cscscscssscss" />
  </g>
</svg>
