<?xml version="1.0" encoding="UTF-8" standalone="no"?>
<!-- Created with Inkscape (http://www.inkscape.org/) -->

<svg
   width="15.198244mm"
   height="12.697739mm"
   viewBox="0 0 15.198244 12.697739"
   version="1.1"
   id="svg10706"
   inkscape:version="1.1.1 (3bf5ae0, 2021-09-20)"
   sodipodi:docname="rabbit.svg"
   xmlns:inkscape="http://www.inkscape.org/namespaces/inkscape"
   xmlns:sodipodi="http://sodipodi.sourceforge.net/DTD/sodipodi-0.dtd"
   xmlns="http://www.w3.org/2000/svg"
   xmlns:svg="http://www.w3.org/2000/svg">
  <sodipodi:namedview
     id="namedview10708"
     pagecolor="#ffffff"
     bordercolor="#666666"
     borderopacity="1.0"
     inkscape:pageshadow="2"
     inkscape:pageopacity="0.0"
     inkscape:pagecheckerboard="0"
     inkscape:document-units="mm"
     showgrid="false"
     inkscape:zoom="11.075084"
     inkscape:cx="55.214027"
     inkscape:cy="29.84176"
     inkscape:window-width="1920"
     inkscape:window-height="966"
     inkscape:window-x="0"
     inkscape:window-y="27"
     inkscape:window-maximized="1"
     inkscape:current-layer="layer1" />
  <defs
     id="defs10703" />
  <g
     inkscape:label="Слой 1"
     inkscape:groupmode="layer"
     id="layer1"
     transform="translate(41.618408,-84.624103)">
    <path
       d="m -34.681645,84.624103 c -0.13122,0 -0.348009,0.253283 -0.349332,0.408245 -7.94e-4,0.07816 -0.03718,0.19868 -0.08113,0.2682 -0.06618,0.104674 -0.13521,0.07322 -0.40101,-0.184486 -0.423029,-0.410141 -0.712203,-0.481521 -0.95808,-0.235643 -0.149728,0.149738 -0.179094,0.255542 -0.147278,0.5364 0.03783,0.333944 0.484442,1.373605 0.790133,1.839164 0.143055,0.217863 0.141632,0.222168 -0.262001,0.625803 -0.379219,0.379219 -0.413684,0.39565 -0.519348,0.251148 -0.104894,-0.143458 -0.11317,-0.138147 -0.11317,0.07028 0,0.219676 0.340466,0.51698 0.399457,0.348816 0.161375,-0.460012 0.643623,-0.880049 1.010275,-0.880049 0.215704,0 0.269534,-0.123915 0.08475,-0.194821 -0.25396,-0.09746 -0.895733,-1.093099 -1.079005,-1.673799 -0.171241,-0.542575 -0.175861,-0.608584 -0.05478,-0.72967 0.200906,-0.200904 0.494874,-0.0833 0.934826,0.374136 0.896292,0.931905 1.314725,1.800924 0.867648,1.800924 -0.07036,0 -0.202017,-0.143185 -0.292489,-0.31781 -0.152013,-0.29342 -0.66448,-1.016375 -0.584978,-0.825272 0.01937,0.04657 0.177263,0.379632 0.350883,0.740524 0.278942,0.579816 0.342746,0.656277 0.546222,0.656807 0.463243,0.0011 0.894828,0.189767 1.299662,0.568441 0.620903,0.580782 0.746845,1.237181 0.278535,1.450557 -0.124804,0.05686 -0.283427,0.253257 -0.378272,0.467672 -0.1631,0.36871 -0.164029,0.369052 -0.506429,0.306441 -0.441084,-0.08066 -0.472752,-0.119267 -0.305406,-0.374656 0.07615,-0.116231 0.138491,-0.338066 0.138491,-0.492474 0,-0.236916 0.04271,-0.298593 0.274921,-0.394808 0.216757,-0.08981 0.242533,-0.122283 0.120922,-0.152964 -0.09701,-0.02447 -0.136019,-0.08687 -0.104904,-0.167947 0.03739,-0.09743 0.01288,-0.112921 -0.09974,-0.0646 -0.173048,0.07426 -0.313142,0.07258 -0.635103,-0.0072 -0.192723,-0.04776 -0.276992,-0.0092 -0.49816,0.227378 -0.146505,0.156694 -0.302483,0.387339 -0.346234,0.51263 -0.04772,0.136641 -0.153196,0.238014 -0.263549,0.25373 -0.144925,0.02064 -0.07617,0.08679 0.324012,0.311092 0.2794,0.156601 0.587994,0.358124 0.685744,0.447519 0.13848,0.126637 0.223787,0.144684 0.385509,0.0832 0.448193,-0.170403 0.918289,0.113167 0.918289,0.553455 0,0.238885 -0.36177,0.668785 -0.494027,0.587044 -0.140936,-0.0871 -0.121801,-0.385738 0.02842,-0.443383 0.189918,-0.07288 0.153829,-0.191624 -0.0925,-0.303858 -0.193723,-0.08827 -0.236762,-0.07657 -0.368969,0.0987 -0.179102,0.23744 -0.490445,0.196503 -0.767395,-0.100769 -0.148897,-0.159819 -0.187405,-0.169336 -0.25373,-0.06253 -0.05856,0.0943 -0.02772,0.143044 0.122473,0.193786 0.158517,0.05355 0.208282,0.142031 0.237712,0.42323 0.02048,0.195585 0.02392,0.371943 0.0078,0.391708 -0.08447,0.103304 -0.671987,-0.140399 -0.746205,-0.309542 -0.119957,-0.273378 -0.298172,-0.315169 -0.298172,-0.06976 0,0.111074 -0.04721,0.218887 -0.105421,0.23926 -0.07632,0.0267 -0.06167,0.08705 0.05323,0.216524 0.150032,0.169074 0.151223,0.191892 0.0186,0.394293 -0.147129,0.224546 -0.902411,0.636135 -1.16737,0.636135 -0.27459,0 -0.169961,-0.336479 0.299206,-0.962213 0.249027,-0.332131 0.472906,-0.661374 0.497645,-0.731224 0.0259,-0.07312 -0.07517,-0.253275 -0.238744,-0.42478 -0.177528,-0.186137 -0.298701,-0.409128 -0.322461,-0.594794 -0.02093,-0.163407 -0.05,-0.351594 -0.06511,-0.418063 -0.01511,-0.06647 0.01982,-0.127455 0.07803,-0.135393 0.05821,-0.0079 0.129661,-0.01905 0.158646,-0.02479 0.02898,-0.0058 0.01434,-0.05858 -0.03256,-0.116789 -0.04689,-0.05821 -0.111818,-0.229513 -0.144176,-0.380854 -0.04772,-0.223187 -0.03237,-0.274918 0.08113,-0.274918 0.21617,0 0.115742,-0.275225 -0.113173,-0.31006 -0.192659,-0.02932 -0.196985,-0.01744 -0.13901,0.404111 0.04124,0.299826 0.02912,0.453504 -0.03979,0.496094 -0.05491,0.03394 -0.106796,0.248343 -0.115236,0.476456 -0.01455,0.393187 -0.02705,0.413795 -0.23513,0.389639 -0.395817,-0.04595 -1.624478,0.147381 -1.769401,0.278537 -0.152673,0.138166 -0.471617,0.171699 -0.542602,0.05684 -0.02416,-0.0391 0.03474,-0.218856 0.13126,-0.398942 0.160652,-0.299746 0.166677,-0.366691 0.06976,-0.796335 -0.09468,-0.419714 -0.114845,-0.449416 -0.191719,-0.279051 -0.103103,0.228497 -0.191559,0.242618 -0.268201,0.04289 -0.05038,-0.131292 -0.07433,-0.124211 -0.21859,0.06356 -0.08921,0.116112 -0.160261,0.268113 -0.157615,0.337963 0.0033,0.08634 0.01852,0.09313 0.04754,0.02119 0.06055,-0.150056 0.255151,-0.13094 0.317293,0.03101 0.04243,0.110574 0.07624,0.116207 0.178284,0.03152 0.107265,-0.08902 0.12609,-0.06227 0.12609,0.177768 0,0.211558 -0.07959,0.363154 -0.317809,0.607198 l -0.317294,0.325043 v 1.28416 1.284677 l -0.238747,0.08423 c -0.179776,0.06371 -0.33579,0.04967 -0.632002,-0.05685 -0.428038,-0.153921 -0.469522,-0.150342 -0.398941,0.03359 0.147732,0.384988 1.152318,0.536425 1.862418,0.280602 0.419758,-0.151231 0.465605,-0.152615 0.465605,-0.01291 0,0.06147 0.131546,0.265692 0.292489,0.453718 0.396391,0.463092 0.8172,0.575153 1.89084,0.504878 0.59808,-0.03915 0.937519,-0.0208 1.245401,0.06718 0.232834,0.06654 0.595054,0.113966 0.804604,0.10542 0.328821,-0.01341 0.378592,-0.03892 0.363802,-0.188618 -0.01225,-0.124 0.05989,-0.204298 0.25373,-0.281638 0.266983,-0.106524 0.268189,-0.109736 0.08062,-0.19947 -0.104775,-0.05012 -0.19017,-0.158604 -0.19017,-0.240813 0,-0.311129 -0.09986,-0.417028 -0.392223,-0.417028 -0.230757,0 -0.305829,-0.04308 -0.370004,-0.211873 -0.110868,-0.291605 -0.378407,-0.271457 -0.56379,0.04237 -0.205391,0.347699 -0.742516,0.547349 -1.263489,0.469222 -0.856575,-0.128449 -0.838795,-0.263948 0.09043,-0.677994 0.523253,-0.233154 0.815663,-0.426286 1.07642,-0.711584 0.42513,-0.465143 0.524531,-0.512374 0.899171,-0.427881 0.171368,0.03865 0.400108,0.02442 0.573606,-0.03566 l 0.288356,-0.09973 -0.211873,-0.159163 c -0.116356,-0.08738 -0.211357,-0.206753 -0.211357,-0.265099 0,-0.15988 0.252735,-0.225444 0.308507,-0.0801 0.0265,0.06906 0.105918,0.125574 0.176217,0.125574 0.08618,0 0.113038,0.05487 0.0832,0.168981 -0.03492,0.133549 -0.0026,0.1695 0.152964,0.1695 0.322903,0 0.654338,-0.358865 1.08417,-1.174088 0.223015,-0.422971 0.441748,-0.791356 0.485759,-0.818555 0.120118,-0.07424 0.09583,-0.428485 -0.03669,-0.538469 -0.06396,-0.05308 -0.140898,-0.28226 -0.17105,-0.50953 -0.04611,-0.347572 -0.111707,-0.463491 -0.412893,-0.727604 l -0.358119,-0.313677 -0.0026,-0.689363 c -0.0026,-0.640165 -0.02466,-0.7262 -0.309541,-1.197859 -0.318225,-0.526828 -0.932288,-1.227315 -1.075388,-1.227315 z m 0.08992,4.318096 c 0.200332,0 0.22489,0.07142 0.139525,0.407728 -0.127042,0.500504 -0.746725,0.765913 -0.746725,0.319876 0,-0.22102 0.422796,-0.727604 0.6072,-0.727604 z m 1.873787,0.72037 c 0.08211,0.01484 0.110583,0.110321 0.05116,0.280601 -0.110173,0.315709 -0.436912,0.68316 -0.56379,0.634072 -0.189942,-0.07349 -0.113874,-0.455086 0.141591,-0.710552 0.1533,-0.1533 0.288931,-0.218975 0.371039,-0.204121 z m -6.671945,2.242749 c 0.228235,0 0.255207,0.09907 0.158647,0.581877 -0.04956,0.247827 -0.184404,0.337526 -0.313677,0.208256 -0.03104,-0.03105 -0.05684,-0.221443 -0.05684,-0.42323 0,-0.334905 0.01865,-0.366903 0.211873,-0.366903 z m 0.359669,0.829408 c 0.233892,-0.04707 0.713478,0.328427 0.872297,0.683162 0.312566,0.698137 1.632104,0.804463 2.297017,0.185002 0.235022,-0.218969 0.381471,-0.220388 0.450102,-0.0041 0.03801,0.119761 0.128357,0.168981 0.30799,0.168981 0.215681,0 0.245737,0.02588 0.199988,0.170016 -0.03581,0.112818 -0.0092,0.18678 0.07906,0.22066 0.18941,0.07268 0.164209,0.202054 -0.03927,0.202054 -0.0946,0 -0.193855,0.05727 -0.22066,0.127125 -0.05202,0.135559 -0.215164,0.168091 -0.31936,0.06356 -0.03481,-0.03492 -0.717713,-0.08265 -1.517221,-0.105935 -1.279662,-0.03727 -1.481285,-0.06229 -1.685168,-0.211357 -0.4744,-0.346853 -0.780663,-1.427514 -0.424778,-1.499131 z"
       style="fill:#000000;stroke-width:0.0846667"
       id="path10701"
       sodipodi:nodetypes="cccccscccscsccccsccscsccccsscsccccscccscscscscccsscccsscscscccssccccscccccsccccssccccccscssccssscsssscssscccsssssscccccccccsssscscsccccscccsccsscscssscc" />
  </g>
</svg>
