<?xml version="1.0" encoding="UTF-8" standalone="no"?>
<!-- Created with Inkscape (http://www.inkscape.org/) -->

<svg
   width="3.5221014mm"
   height="2.8965509mm"
   viewBox="0 0 3.5221014 2.896551"
   version="1.1"
   id="svg10706"
   sodipodi:docname="rabbit-paw-down.svg"
   inkscape:version="1.1.1 (3bf5ae0, 2021-09-20)"
   xmlns:inkscape="http://www.inkscape.org/namespaces/inkscape"
   xmlns:sodipodi="http://sodipodi.sourceforge.net/DTD/sodipodi-0.dtd"
   xmlns="http://www.w3.org/2000/svg"
   xmlns:svg="http://www.w3.org/2000/svg">
  <sodipodi:namedview
     id="namedview10708"
     pagecolor="#ffffff"
     bordercolor="#666666"
     borderopacity="1.0"
     inkscape:pageshadow="2"
     inkscape:pageopacity="0.0"
     inkscape:pagecheckerboard="0"
     inkscape:document-units="mm"
     showgrid="false"
     inkscape:zoom="11.075084"
     inkscape:cx="19.458091"
     inkscape:cy="5.5530052"
     inkscape:window-width="1920"
     inkscape:window-height="966"
     inkscape:window-x="0"
     inkscape:window-y="27"
     inkscape:window-maximized="1"
     inkscape:current-layer="layer1" />
  <defs
     id="defs10703" />
  <g
     inkscape:label="Слой 1"
     inkscape:groupmode="layer"
     id="layer1"
     transform="translate(32.151055,-91.039662)">
    <path
       d="m -31.726277,91.041286 c -0.269433,-0.01651 -0.424778,0.0932 -0.424778,0.314711 -3e-6,0.300265 0.293031,0.566738 1.027327,0.933794 0.837485,0.418629 0.920355,0.501732 0.920355,0.925007 0,0.193432 0.05676,0.425339 0.126609,0.515732 0.123801,0.160221 0.131365,0.158768 0.303339,-0.06821 0.225391,-0.297492 0.340114,-0.293256 0.572577,0.02119 0.103286,0.1397 0.215032,0.253492 0.248563,0.252699 0.24429,-0.0052 0.382685,-0.455999 0.298688,-0.973585 -0.04299,-0.264938 -0.136065,-0.377283 -0.58601,-0.707448 -0.598204,-0.438957 -1.649955,-0.99549 -2.180746,-1.154454 -0.113712,-0.03406 -0.216111,-0.05393 -0.305924,-0.05943 z m 0.132291,0.192754 c 0.395759,0.02519 1.151922,0.375971 2.000912,0.949812 0.677804,0.458137 0.776647,0.613204 0.761196,1.193726 -0.01087,0.408456 -0.137605,0.422174 -0.472324,0.05168 l -0.313158,-0.346233 -0.09095,0.261482 c -0.131355,0.376809 -0.277116,0.26806 -0.326078,-0.243911 l -0.04237,-0.442868 -0.753444,-0.397391 c -0.742119,-0.391334 -1.142309,-0.75678 -1.029393,-0.939477 0.04183,-0.06768 0.133697,-0.09522 0.265615,-0.08682 z"
       style="fill:#000000;stroke-width:0.0846667"
       id="path10701"
       sodipodi:nodetypes="cccscccccsccccssccccccscc" />
  </g>
</svg>
