<?xml version="1.0" encoding="UTF-8" standalone="no"?>
<!-- Created with Inkscape (http://www.inkscape.org/) -->

<svg
   width="4.0094213mm"
   height="3.6434791mm"
   viewBox="0 0 4.0094212 3.6434791"
   version="1.1"
   id="svg19520"
   sodipodi:docname="score2.svg"
   inkscape:version="1.1.1 (3bf5ae0, 2021-09-20)"
   xmlns:inkscape="http://www.inkscape.org/namespaces/inkscape"
   xmlns:sodipodi="http://sodipodi.sourceforge.net/DTD/sodipodi-0.dtd"
   xmlns="http://www.w3.org/2000/svg"
   xmlns:svg="http://www.w3.org/2000/svg">
  <sodipodi:namedview
     id="namedview19522"
     pagecolor="#ffffff"
     bordercolor="#666666"
     borderopacity="1.0"
     inkscape:pageshadow="2"
     inkscape:pageopacity="0.0"
     inkscape:pagecheckerboard="0"
     inkscape:document-units="mm"
     showgrid="false"
     inkscape:zoom="11.075084"
     inkscape:cx="7.3588606"
     inkscape:cy="15.756088"
     inkscape:window-width="1920"
     inkscape:window-height="966"
     inkscape:window-x="0"
     inkscape:window-y="27"
     inkscape:window-maximized="1"
     inkscape:current-layer="layer1" />
  <defs
     id="defs19517" />
  <g
     inkscape:label="Слой 1"
     inkscape:groupmode="layer"
     id="layer1"
     transform="translate(-13.938908,-57.052036)">
    <path
       d="m 16.08488,57.052036 c -0.203472,5.29e-4 -0.381762,0.07274 -0.525549,0.216524 -0.202565,0.202563 -0.204058,0.212919 -0.06925,0.549839 0.07555,0.18883 0.115183,0.401606 0.08785,0.472839 -0.06356,0.165767 -0.318722,0.166984 -0.455268,0.0026 -0.112321,-0.135337 -0.646144,-0.170918 -0.828374,-0.05529 -0.183123,0.116194 -0.02704,0.322336 0.323496,0.427363 0.309848,0.09283 0.561255,0.347734 0.451136,0.457853 -0.02643,0.02643 -0.141656,0.01259 -0.256315,-0.03101 -0.357778,-0.136025 -0.516181,-0.0896 -0.698667,0.205673 -0.387863,0.627576 -0.0989,1.323952 0.549838,1.323952 0.170919,-3e-6 0.527175,-0.09731 0.791681,-0.216009 l 0.481108,-0.216008 0.490927,0.258381 c 0.618992,0.325602 0.888177,0.328232 1.226282,0.01241 0.344268,-0.321596 0.358117,-0.729244 0.03772,-1.110009 l -0.225308,-0.267684 0.241329,-0.19172 0.240813,-0.192236 -0.219626,-0.144176 c -0.16783,-0.109967 -0.36631,-0.138052 -0.841293,-0.118341 -0.601117,0.02492 -0.621667,0.01934 -0.621667,-0.170531 0,-0.161402 0.07973,-0.223105 0.446484,-0.347266 0.245391,-0.08307 0.468032,-0.172956 0.495062,-0.199988 0.08493,-0.08493 -0.04829,-0.220062 -0.447003,-0.453718 -0.243557,-0.14273 -0.471937,-0.213979 -0.67541,-0.213426 z m 1.03818,2.188488 0.188619,0.202055 c 0.268134,0.287808 0.31695,0.560165 0.136425,0.759642 -0.300017,0.331518 -0.964235,0.09321 -0.951879,-0.341579 0.0058,-0.204251 0.04395,-0.254249 0.195337,-0.254249 0.103648,0 0.243276,-0.08235 0.310057,-0.182936 z m -2.639634,0.203066 c 0.07264,-0.01675 0.147222,0.0208 0.186037,0.121955 0.03581,0.09333 0.123253,0.116028 0.315227,0.08113 0.224806,-0.04087 0.279895,-0.01601 0.361733,0.16433 0.07681,0.169257 0.07207,0.233598 -0.02376,0.313158 -0.06631,0.05504 -0.307948,0.118032 -0.536919,0.140045 -0.392721,0.03773 -0.419753,0.02755 -0.472321,-0.181901 -0.03069,-0.122118 -0.03168,-0.317667 -0.0026,-0.434083 0.02933,-0.116856 0.09996,-0.187897 0.172598,-0.204637 z"
       style="fill:#000000;stroke-width:0.0846667"
       id="path19515"
       sodipodi:nodetypes="cccccscscccccccccccccsccsccccccscccccscccccc" />
  </g>
</svg>
