<?xml version="1.0" encoding="UTF-8" standalone="no"?>
<!-- Created with Inkscape (http://www.inkscape.org/) -->

<svg
   width="3.9792433mm"
   height="3.6346743mm"
   viewBox="0 0 3.9792432 3.6346743"
   version="1.1"
   id="svg19520"
   inkscape:version="1.1.1 (3bf5ae0, 2021-09-20)"
   sodipodi:docname="score3.svg"
   xmlns:inkscape="http://www.inkscape.org/namespaces/inkscape"
   xmlns:sodipodi="http://sodipodi.sourceforge.net/DTD/sodipodi-0.dtd"
   xmlns="http://www.w3.org/2000/svg"
   xmlns:svg="http://www.w3.org/2000/svg">
  <sodipodi:namedview
     id="namedview19522"
     pagecolor="#ffffff"
     bordercolor="#666666"
     borderopacity="1.0"
     inkscape:pageshadow="2"
     inkscape:pageopacity="0.0"
     inkscape:pagecheckerboard="0"
     inkscape:document-units="mm"
     showgrid="false"
     inkscape:zoom="11.075084"
     inkscape:cx="26.862098"
     inkscape:cy="15.846381"
     inkscape:window-width="1920"
     inkscape:window-height="966"
     inkscape:window-x="0"
     inkscape:window-y="27"
     inkscape:window-maximized="1"
     inkscape:current-layer="layer1" />
  <defs
     id="defs19517" />
  <g
     inkscape:label="Слой 1"
     inkscape:groupmode="layer"
     id="layer1"
     transform="translate(-8.7730246,-57.063532)">
    <path
       d="m 10.965812,57.064946 c -0.219324,-0.01175 -0.413025,0.04971 -0.557588,0.185518 -0.230495,0.21654 -0.238887,0.296079 -0.0677,0.639238 0.221933,0.444876 -0.03597,0.6917 -0.4196129,0.401526 -0.1779719,-0.134609 -0.616114,-0.163782 -0.791165,-0.05271 -0.1831234,0.116195 -0.027046,0.322337 0.3234955,0.427363 0.3098482,0.09283 0.5612524,0.347734 0.451133,0.457854 -0.026432,0.02643 -0.1421711,0.01259 -0.256831,-0.03101 C 9.3008208,58.96091 9.1626818,59.001471 8.96335,59.29427 c -0.2696289,0.39606 -0.2517272,0.813969 0.047027,1.100193 0.3051069,0.292319 0.6498299,0.29487 1.286227,0.0093 l 0.486275,-0.218072 0.488857,0.260451 c 0.527982,0.281747 0.713121,0.312295 0.999424,0.16588 0.515223,-0.263488 0.626663,-0.820184 0.253214,-1.264004 l -0.227893,-0.270786 0.227893,-0.16588 c 0.125355,-0.09131 0.227894,-0.196543 0.227894,-0.233577 0,-0.163512 -0.515964,-0.272825 -1.01441,-0.214974 -0.349729,0.04059 -0.552021,0.02787 -0.633553,-0.03979 -0.166399,-0.138101 -0.07923,-0.308065 0.214458,-0.417546 0.136353,-0.05083 0.362596,-0.135369 0.502293,-0.187585 0.139703,-0.05222 0.253733,-0.129108 0.253733,-0.17105 0,-0.04194 -0.178723,-0.189987 -0.397391,-0.328663 -0.247277,-0.156816 -0.492262,-0.241453 -0.711586,-0.253214 z m 1.05265,2.259288 c 0.08019,0.02798 0.169426,0.131027 0.264067,0.307993 0.113919,0.213014 0.125786,0.319773 0.05529,0.503328 -0.09751,0.253891 -0.347535,0.29632 -0.789099,0.134876 -0.194291,-0.07104 -0.228555,-0.130146 -0.219109,-0.381373 0.0098,-0.260276 0.0352,-0.292764 0.201538,-0.260966 0.137319,0.02625 0.214792,-0.01855 0.27957,-0.160714 0.05659,-0.124206 0.127545,-0.171119 0.20774,-0.143144 z M 9.3648764,59.44879 c 0.043408,0.01286 0.087437,0.0456 0.1281589,0.101286 0.07216,0.09869 0.1766252,0.127095 0.3477815,0.09405 0.2026792,-0.03913 0.2609932,-0.01069 0.3410642,0.166399 0.07639,0.168955 0.072,0.233765 -0.02119,0.311092 -0.1800283,0.14941 -0.8187854,0.194913 -0.9430946,0.06718 -0.058208,-0.05981 -0.1059365,-0.235543 -0.1059365,-0.390674 0,-0.246454 0.1229916,-0.38794 0.2532142,-0.349332 z"
       style="fill:#000000;stroke-width:0.0846667"
       id="path19515"
       sodipodi:nodetypes="cccccccccccccccccsscscsccccssccscccccccccscc" />
  </g>
</svg>
