<?xml version="1.0" encoding="UTF-8" standalone="no"?>
<!-- Created with Inkscape (http://www.inkscape.org/) -->

<svg
   width="4.0578938mm"
   height="3.6834416mm"
   viewBox="0 0 4.0578936 3.6834416"
   version="1.1"
   id="svg19520"
   sodipodi:docname="score1.svg"
   inkscape:version="1.1.1 (3bf5ae0, 2021-09-20)"
   xmlns:inkscape="http://www.inkscape.org/namespaces/inkscape"
   xmlns:sodipodi="http://sodipodi.sourceforge.net/DTD/sodipodi-0.dtd"
   xmlns="http://www.w3.org/2000/svg"
   xmlns:svg="http://www.w3.org/2000/svg">
  <sodipodi:namedview
     id="namedview19522"
     pagecolor="#ffffff"
     bordercolor="#666666"
     borderopacity="1.0"
     inkscape:pageshadow="2"
     inkscape:pageopacity="0.0"
     inkscape:pagecheckerboard="0"
     inkscape:document-units="mm"
     showgrid="false"
     inkscape:zoom="11.075084"
     inkscape:cx="-32.369957"
     inkscape:cy="15.756088"
     inkscape:window-width="1920"
     inkscape:window-height="966"
     inkscape:window-x="0"
     inkscape:window-y="27"
     inkscape:window-maximized="1"
     inkscape:current-layer="layer1" />
  <defs
     id="defs19517" />
  <g
     inkscape:label="Слой 1"
     inkscape:groupmode="layer"
     id="layer1"
     transform="translate(-19.27719,-57.023145)">
    <path
       d="m 21.587904,57.025166 c -0.09438,-0.0091 -0.184607,0.01278 -0.326596,0.06046 -0.449516,0.15098 -0.584433,0.376468 -0.417544,0.698149 0.248425,0.478837 -0.02722,0.8353 -0.391192,0.505912 -0.119838,-0.10844 -0.250529,-0.13389 -0.509013,-0.09922 -0.191156,0.02564 -0.368718,0.06799 -0.394806,0.09405 -0.08218,0.08217 0.143626,0.286642 0.382405,0.346231 0.276053,0.06889 0.525549,0.279705 0.525549,0.443902 0,0.08657 -0.05225,0.10173 -0.190169,0.05529 -0.401524,-0.135202 -0.598215,-0.08271 -0.799436,0.213424 -0.269298,0.396317 -0.252455,0.726816 0.05219,1.031462 0.31746,0.317471 0.691761,0.324729 1.302244,0.02532 l 0.452692,-0.222208 0.501777,0.264065 c 0.275783,0.145367 0.603379,0.264499 0.728122,0.264583 0.270238,2.15e-4 0.83175,-0.492908 0.830956,-0.72967 -7.94e-4,-0.208174 -0.232434,-0.648597 -0.386538,-0.734838 -0.18752,-0.104942 -0.144817,-0.212045 0.143659,-0.36122 0.246552,-0.127497 0.254656,-0.145986 0.123507,-0.276984 -0.108696,-0.108575 -0.30212,-0.14056 -0.850077,-0.14056 -0.390131,0 -0.739487,-0.03054 -0.776698,-0.0677 -0.1261,-0.125916 0.110707,-0.352981 0.480076,-0.45992 0.202227,-0.05855 0.405302,-0.14382 0.451133,-0.189654 0.116941,-0.116938 -0.142745,-0.382717 -0.580842,-0.594796 -0.158621,-0.07678 -0.257024,-0.116954 -0.351399,-0.12609 z m 0.909506,2.253598 c 0.05846,0.0084 0.134212,0.07833 0.23926,0.211873 0.19467,0.247481 0.230129,0.619432 0.0739,0.775664 -0.227492,0.227491 -1.065176,-0.02687 -0.963248,-0.292489 0.02695,-0.07025 0.04909,-0.181489 0.04909,-0.247529 0,-0.07075 0.08432,-0.11989 0.205674,-0.11989 0.131601,0 0.225592,-0.0613 0.259932,-0.169498 0.03597,-0.113326 0.07693,-0.166513 0.135392,-0.158131 z m -2.640666,0.158126 c 0.08726,0 0.181115,0.05867 0.208772,0.130742 0.03783,0.09858 0.121642,0.117903 0.336931,0.07752 0.263736,-0.04948 0.289398,-0.03477 0.332795,0.18655 0.0259,0.13208 0.01439,0.274246 -0.02585,0.315743 -0.04025,0.0415 -0.264735,0.09378 -0.498679,0.116274 -0.392126,0.03768 -0.432795,0.02387 -0.523484,-0.175184 -0.130757,-0.286977 -0.03597,-0.651639 0.1695,-0.651639 z"
       style="fill:#000000;stroke-width:0.0846667"
       id="path19515"
       sodipodi:nodetypes="ccccscssscccccccsscscsccccccccsssccscsccccc" />
  </g>
</svg>
