<?xml version="1.0" encoding="UTF-8" standalone="no"?>
<!-- Created with Inkscape (http://www.inkscape.org/) -->

<svg
   width="10.465146mm"
   height="16.350702mm"
   viewBox="0 0 10.465146 16.350702"
   version="1.1"
   id="svg12165"
   inkscape:version="1.1.1 (3bf5ae0, 2021-09-20)"
   sodipodi:docname="wolf-left.svg"
   xmlns:inkscape="http://www.inkscape.org/namespaces/inkscape"
   xmlns:sodipodi="http://sodipodi.sourceforge.net/DTD/sodipodi-0.dtd"
   xmlns="http://www.w3.org/2000/svg"
   xmlns:svg="http://www.w3.org/2000/svg">
  <sodipodi:namedview
     id="namedview12167"
     pagecolor="#ffffff"
     bordercolor="#666666"
     borderopacity="1.0"
     inkscape:pageshadow="2"
     inkscape:pageopacity="0.0"
     inkscape:pagecheckerboard="0"
     inkscape:document-units="mm"
     showgrid="false"
     inkscape:zoom="7.8312671"
     inkscape:cx="40.670302"
     inkscape:cy="45.778032"
     inkscape:window-width="1920"
     inkscape:window-height="966"
     inkscape:window-x="0"
     inkscape:window-y="27"
     inkscape:window-maximized="1"
     inkscape:current-layer="layer1" />
  <defs
     id="defs12162" />
  <g
     inkscape:label="Слой 1"
     inkscape:groupmode="layer"
     id="layer1"
     transform="translate(-62.334542,-170.84379)">
    <path
       d="m 69.547193,170.84397 c -0.284046,0.002 -0.365873,0.0965 -0.415993,0.48059 -0.04365,0.3345 -0.03375,0.35641 0.176733,0.38085 0.287253,0.0334 0.338585,0.2784 0.0863,0.41341 -0.141837,0.0759 -0.200384,0.0774 -0.224276,0.006 -0.01775,-0.0532 -0.140814,-0.0966 -0.273886,-0.0966 -0.287303,0 -0.422426,-0.166 -0.232543,-0.28577 0.109853,-0.0693 0.06293,-0.11897 -0.26045,-0.2775 -0.488549,-0.23951 -0.820516,-0.24767 -1.179257,-0.0289 -0.347422,0.21181 -0.392591,0.21078 -0.698664,-0.0155 -0.137242,-0.10146 -0.275857,-0.15874 -0.307475,-0.12712 -0.03161,0.0316 -0.01299,0.0574 0.04134,0.0574 0.209008,0 0.08365,0.23672 -0.260966,0.49248 -0.197908,0.14688 -0.474214,0.36582 -0.613914,0.48679 -0.246412,0.21337 -0.247719,0.21825 -0.04238,0.16123 0.116417,-0.0323 0.393575,-0.16885 0.615465,-0.30334 0.38499,-0.23335 0.851446,-0.32084 0.940512,-0.17673 0.02294,0.0371 -0.164171,0.15639 -0.415996,0.2651 -0.372557,0.16082 -0.489868,0.26363 -0.629418,0.5519 -0.221699,0.45798 -0.217238,0.6974 0.0052,0.27595 0.187568,-0.35541 0.506986,-0.52245 0.835607,-0.43666 0.199361,0.052 0.204155,0.0632 0.05994,0.15296 -0.418187,0.26016 -0.424111,0.27136 -0.405141,0.79685 0.01035,0.28677 -0.02056,0.53667 -0.07028,0.56741 -0.129455,0.08 -0.109122,0.29869 0.02791,0.29868 0.131998,0 0.234177,0.29321 0.164848,0.47388 -0.02508,0.0654 -0.08306,0.11885 -0.128674,0.11885 -0.139468,0 -0.820957,-0.52338 -0.962216,-0.73897 -0.0732,-0.11166 -0.176941,-0.18839 -0.230519,-0.17053 -0.05358,0.0179 -0.155864,-0.0816 -0.227375,-0.22118 -0.186322,-0.36356 -0.367602,-0.45307 -0.630971,-0.31212 -0.264871,0.14175 -0.344088,0.36167 -0.216005,0.601 0.07918,0.14794 0.06092,0.24803 -0.09974,0.55087 -0.178983,0.33739 -0.18591,0.39466 -0.0801,0.64802 0.06383,0.15283 0.120414,0.39205 0.125573,0.53175 0.0052,0.1397 0.05703,0.2847 0.11524,0.32194 0.05821,0.0372 0.105936,0.16034 0.105936,0.27337 0,0.22233 0.232476,0.41536 0.6134,0.50901 0.128058,0.0315 0.233061,0.0942 0.233061,0.13901 0,0.19418 0.298479,0.36515 0.628901,0.3607 0.24366,-0.003 0.493583,-0.0963 0.852662,-0.31729 0.629767,-0.38757 1.229561,-0.42201 1.22628,-0.0708 -0.0024,0.25651 -0.150828,0.37907 -0.518313,0.42839 l -0.364837,0.0491 -0.134874,0.51624 c -0.0742,0.28392 -0.217014,0.64614 -0.316777,0.80461 -0.09976,0.15846 -0.343231,0.57369 -0.541571,0.92294 -0.198339,0.34925 -0.501803,0.78842 -0.674375,0.97617 -0.172572,0.18774 -0.339468,0.4545 -0.37052,0.59272 -0.03105,0.13823 -0.0723,0.31164 -0.09199,0.38551 -0.03731,0.14007 -0.429144,0.33774 -1.430404,0.72089 -0.325966,0.12473 -0.604731,0.23672 -0.619601,0.24908 -0.01487,0.0124 0.01947,0.0966 0.07596,0.18707 0.0858,0.13739 0.07115,0.20681 -0.08733,0.42116 -0.104362,0.14116 -0.176083,0.32621 -0.159679,0.41134 0.04116,0.21375 0.52895,0.53285 1.727026,1.12913 0.976789,0.48615 1.400614,0.7884 1.277442,0.91157 -0.03142,0.0314 -0.413736,-0.01 -0.849561,-0.092 -0.61128,-0.11513 -0.865515,-0.1292 -1.112594,-0.061 -0.176157,0.0486 -0.351353,0.0693 -0.389122,0.046 -0.03777,-0.0233 -0.254905,-0.0173 -0.482659,0.0129 -0.35842,0.0476 -0.411715,0.0788 -0.394808,0.23565 0.05635,0.38553 0.370267,0.5556 0.697935,0.73509 0.683876,0.26842 0.934343,0.29275 2.410921,0.29275 1.308327,0 1.335196,-0.003 1.539957,-0.21135 0.295553,-0.30019 0.339693,-0.58216 0.141594,-0.90279 -0.189732,-0.30709 -1.260694,-1.24308 -1.93218,-1.68879 -0.250513,-0.16628 -0.441079,-0.34489 -0.423749,-0.39687 0.01733,-0.052 0.200332,-0.18326 0.406694,-0.29198 0.327044,-0.17228 0.456784,-0.19177 1.010274,-0.15296 0.412578,0.0289 0.768413,0.004 1.01596,-0.0703 0.325004,-0.0976 0.442971,-0.0963 0.804085,0.009 0.232833,0.0681 0.550701,0.20124 0.7059,0.29611 0.253175,0.15477 0.315709,0.16148 0.610815,0.0641 0.271256,-0.0895 0.353099,-0.0886 0.466121,0.005 0.205325,0.1704 0.121116,0.41785 -0.590661,1.73323 -0.352411,0.65126 -0.641135,1.23035 -0.641305,1.28674 -1.95e-4,0.0564 0.08309,0.17997 0.185002,0.27492 0.29472,0.27457 0.943534,0.2377 1.42317,-0.0811 0.20955,-0.13931 0.426739,-0.25356 0.482656,-0.25373 0.05592,-2e-4 0.291772,-0.0411 0.523999,-0.0909 0.350676,-0.0752 0.524095,-0.1886 1.02371,-0.66973 l 0.601514,-0.57929 -0.219106,-0.21911 c -0.294786,-0.2948 -0.824241,-0.2979 -1.396815,-0.008 -0.229738,0.11642 -0.478409,0.21187 -0.552937,0.21187 -0.174479,0 -0.129757,-0.15137 0.346231,-1.16737 0.202615,-0.43248 0.349388,-0.83635 0.326078,-0.8971 -0.04942,-0.1288 -0.638868,-0.47542 -0.80822,-0.47542 -0.06366,0 -0.225221,-0.116 -0.358635,-0.25735 -0.133413,-0.14135 -0.352081,-0.31353 -0.486275,-0.38293 -0.134194,-0.0694 -0.243996,-0.15385 -0.243911,-0.18758 1e-4,-0.0337 0.168195,-0.17553 0.37362,-0.31523 0.514673,-0.35 0.411213,-0.38325 -0.124023,-0.0398 -0.36181,0.23218 -0.471649,0.26574 -0.659392,0.19999 -0.347027,-0.12152 -0.339151,-0.40353 0.01603,-0.57206 0.160774,-0.0763 0.40555,-0.13849 0.544152,-0.13849 0.138602,0 0.29963,-0.0573 0.357601,-0.12712 0.05797,-0.0699 0.153741,-0.12713 0.212907,-0.12713 0.05917,0 0.12926,-0.0573 0.156062,-0.12712 0.0268,-0.0699 0.106974,-0.12661 0.178284,-0.12661 0.166209,0 0.170881,0.31711 0.0052,0.35347 -0.08563,0.0188 -0.100719,0.0654 -0.04857,0.14883 0.109132,0.17458 0.342614,-0.0347 0.342614,-0.30696 0,-0.11378 0.03723,-0.27629 0.08268,-0.36122 0.06594,-0.12322 0.04728,-0.1633 -0.09302,-0.19999 -0.0967,-0.0253 -0.150608,-0.0867 -0.11989,-0.13642 0.03073,-0.0497 0.02117,-0.0904 -0.02066,-0.0904 -0.04184,0 -0.120473,0.098 -0.175183,0.21808 -0.05471,0.12007 -0.146585,0.20279 -0.204124,0.18345 -0.05754,-0.0193 -0.150963,0.0734 -0.207222,0.20619 -0.05626,0.13282 -0.151201,0.25456 -0.211357,0.27078 -0.06016,0.0162 -0.29995,0.0741 -0.532783,0.12868 -0.232833,0.0546 -0.526502,0.17415 -0.652674,0.26561 -0.314476,0.22796 -0.405659,0.20926 -0.405659,-0.0837 0,-0.67245 0.782629,-2.11336 1.564761,-2.88096 0.428123,-0.42017 0.47157,-0.59771 0.192236,-0.78755 -0.178755,-0.12149 -0.182732,-0.1438 -0.06356,-0.36328 0.144881,-0.26683 0.338481,-0.36721 0.338481,-0.17519 0,0.30735 0.16478,0.18598 0.342615,-0.25218 0.16546,-0.40766 0.178845,-0.51298 0.09302,-0.75034 -0.125752,-0.34776 -0.05104,-0.5519 0.202573,-0.5519 0.247284,0 0.313152,0.19312 0.309025,0.90847 -0.0031,0.53505 -2.35e-4,0.54305 0.160713,0.39739 0.09815,-0.0888 0.145402,-0.20956 0.116787,-0.29972 -0.02635,-0.083 0.0132,-0.26906 0.08785,-0.41341 0.178342,-0.34496 0.112988,-0.51382 -0.342141,-0.88676 -0.428667,-0.35126 -0.502986,-0.63717 -0.165883,-0.63717 0.116417,0 0.211357,0.03 0.211357,0.0667 0,0.12039 0.490075,0.65436 0.548288,0.59738 0.03126,-0.0306 -0.0032,-0.17145 -0.07648,-0.31316 -0.07328,-0.14171 -0.132807,-0.40925 -0.132807,-0.5948 0,-0.45029 -0.134237,-0.77869 -0.340032,-0.8325 -0.203917,-0.0533 -0.204076,-0.0115 0.0011,-0.4899 0.205968,-0.4805 0.218813,-1.13532 0.03152,-1.62574 -0.124772,-0.32659 -0.159864,-0.35625 -0.360228,-0.30747 -0.188955,0.046 -0.432459,0.1958 -1.074351,0.66043 -0.175895,0.12731 -0.242178,-0.0128 -0.149347,-0.31523 0.10799,-0.35187 0.06113,-0.48631 -0.168981,-0.48473 z m -0.04754,0.16789 c 0.194644,0 0.205293,0.15211 0.02843,0.40463 -0.161955,0.23122 -0.291457,0.24222 -0.291457,0.0253 0,-0.27441 0.09526,-0.42995 0.263032,-0.42995 z m -1.840714,0.42478 c 0.15435,-0.003 0.332542,0.013 0.427882,0.0496 0.18592,0.0713 0.167597,0.34798 -0.02997,0.45372 -0.228526,0.1223 -0.344165,0.10971 -0.344165,-0.0382 0,-0.0695 -0.07637,-0.17387 -0.1695,-0.23203 -0.09313,-0.0582 -0.168981,-0.13516 -0.168981,-0.17053 0,-0.0383 0.130386,-0.0597 0.284736,-0.0625 z m 3.150196,0.0439 c 0.182932,-0.0249 0.238926,0.14664 0.273886,0.62994 0.04214,0.58265 -0.214662,1.3561 -0.521415,1.57096 -0.09744,0.0682 -0.269346,0.12454 -0.381889,0.12454 -0.196252,0 -0.202403,-0.0179 -0.153479,-0.43098 0.02806,-0.23689 0.14396,-0.59719 0.257865,-0.80099 l 0.207222,-0.37103 -0.197922,0.13022 c -0.247393,0.1621 -0.493051,0.51753 -0.54932,0.7953 -0.02698,0.13319 -0.109455,0.22106 -0.222207,0.2372 -0.238922,0.0342 -0.323718,-0.20829 -0.160198,-0.45786 0.07091,-0.10821 0.129191,-0.27078 0.129191,-0.36121 0,-0.17886 0.627304,-0.74391 1.088824,-0.98031 0.09318,-0.0477 0.168466,-0.0775 0.229442,-0.0858 z m -2.861324,1.6697 c 0.137263,0.0186 0.289248,0.10451 0.359151,0.23513 0.125235,0.23401 0.05801,0.30528 -0.335896,0.35812 -0.186127,0.025 -0.399421,0.10641 -0.473875,0.18087 -0.155654,0.15565 -0.260207,0.17143 -0.334861,0.0506 -0.02878,-0.0466 -0.183412,-0.0847 -0.343649,-0.0847 -0.32008,0 -0.384818,-0.14849 -0.161748,-0.37156 0.148037,-0.14804 0.654315,-0.26295 0.841293,-0.1912 0.06897,0.0265 0.159332,-0.0128 0.201022,-0.0873 0.02498,-0.0446 0.06796,-0.0724 0.119888,-0.0853 0.03895,-0.01 0.08292,-0.0108 0.128675,-0.005 z m 0.748792,0.58595 c 0.275963,0.0226 0.333299,0.0606 0.358116,0.23667 0.01625,0.11527 0.101651,0.26046 0.19017,0.32247 0.245893,0.17222 0.213783,0.59077 -0.05478,0.71313 -0.179059,0.0816 -0.193561,0.11067 -0.08475,0.17157 0.15748,0.0881 0.173271,0.43334 0.02532,0.55345 -0.05821,0.0473 -0.181785,0.10476 -0.274918,0.12764 -0.11117,0.0273 -0.07471,0.0452 0.105937,0.0517 0.210079,0.007 0.274918,0.0477 0.274918,0.17001 0,0.0882 -0.05727,0.18197 -0.127122,0.20878 -0.06985,0.0268 -0.126609,0.1237 -0.126609,0.21497 0,0.0913 -0.05727,0.22264 -0.127124,0.29249 -0.06985,0.0699 -0.127124,0.14909 -0.127124,0.1757 0,0.0893 0.303456,0.0495 0.406177,-0.0532 0.157343,-0.15734 0.334934,0.0495 0.191202,0.22273 -0.08657,0.1043 -0.08107,0.15354 0.02894,0.26355 0.150058,0.15006 0.07,0.40425 -0.154514,0.49041 -0.06904,0.0265 -0.199631,0.19359 -0.29042,0.37155 -0.210527,0.41267 -0.889024,1.09251 -1.298112,1.30121 -0.173837,0.0887 -0.373317,0.16123 -0.443384,0.16123 -0.180837,0 -0.326673,-0.31538 -0.263033,-0.56895 0.06672,-0.26582 0.698797,-1.20872 0.810287,-1.20872 0.04483,0 0.08165,-0.0545 0.08165,-0.12092 0,-0.0665 0.133765,-0.37748 0.29714,-0.69091 0.163375,-0.31344 0.283186,-0.58343 0.26665,-0.59997 -0.01654,-0.0165 -0.17471,0.0306 -0.351401,0.10439 -0.176678,0.0738 -0.458761,0.12479 -0.626832,0.11317 -0.267097,-0.0184 -0.599848,0.0992 -1.194242,0.42168 -0.589502,0.31989 -0.675936,0.33053 -0.875914,0.10956 -0.185295,-0.20475 -0.177268,-0.2516 0.05013,-0.28423 0.140628,-0.0202 0.185428,-0.0771 0.170532,-0.21755 -0.02077,-0.19587 0.189327,-0.2759 0.249597,-0.0951 0.01992,0.0598 0.285811,-0.0232 0.7152,-0.22376 0.552792,-0.25816 0.676005,-0.34969 0.642856,-0.47645 -0.0487,-0.18621 -0.382752,-0.20734 -0.886767,-0.0563 -0.258085,0.0773 -0.371764,0.0773 -0.495578,0 -0.08836,-0.0552 -0.285996,-0.10025 -0.439248,-0.10025 -0.153254,0 -0.363146,-0.0593 -0.46664,-0.13178 -0.170312,-0.11929 -0.1881,-0.11929 -0.1881,0 0,0.19739 -0.309737,0.15956 -0.460955,-0.0563 -0.133871,-0.19113 -0.174014,-0.62012 -0.08062,-0.86351 0.05704,-0.14865 0.332769,-0.18125 0.414446,-0.0491 0.09826,0.15899 0.211873,0.0851 0.211873,-0.13798 0,-0.20997 0.01799,-0.21993 0.317294,-0.17208 0.241334,0.0386 0.423918,0.16286 0.761709,0.51883 0.438483,0.46209 0.698666,0.58944 0.698666,0.34158 0,-0.15758 0.476872,-0.17659 0.531233,-0.0212 0.02714,0.0776 0.08157,0.0662 0.204124,-0.0424 0.09196,-0.0815 0.273381,-0.14832 0.403593,-0.14832 0.220003,0 0.23314,-0.0187 0.183967,-0.26458 -0.0291,-0.14552 -0.05271,-0.31438 -0.05271,-0.37517 0,-0.0608 -0.08591,-0.12259 -0.190685,-0.13746 l -0.19017,-0.0269 0.19017,-0.19069 c 0.216095,-0.21609 0.35257,-0.23722 0.548285,-0.0847 0.166478,0.1297 0.268597,0.81023 0.144179,0.96015 -0.06566,0.0791 -0.04864,0.1293 0.06408,0.18965 0.141499,0.0758 0.152162,0.0415 0.134361,-0.43821 -0.01064,-0.28647 -0.04409,-0.62841 -0.07442,-0.75965 -0.05389,-0.23317 -0.04764,-0.23819 0.27337,-0.21187 z m -1.856734,0.33951 c 0.336917,-0.0326 0.559059,0.25721 0.518832,0.67644 -0.02027,0.21123 -0.07188,0.28773 -0.206706,0.30696 -0.176467,0.0252 -0.32299,-0.21148 -0.291455,-0.47025 0.0071,-0.0582 -0.06747,-0.10594 -0.165883,-0.10594 -0.137141,0 -0.172672,-0.0442 -0.151929,-0.19017 0.02061,-0.1451 0.09152,-0.19712 0.297141,-0.21704 z m 0.958598,1.59267 c -0.0344,0 -0.04371,0.0987 -0.02066,0.21911 0.03372,0.17638 0.01117,0.21521 -0.117305,0.20154 -0.240861,-0.0256 -0.301713,-0.006 -0.247529,0.0822 0.05549,0.0898 0.523616,-0.0468 0.603581,-0.17622 0.05185,-0.0839 -0.110289,-0.32659 -0.218075,-0.32659 z m -0.211357,0.0243 c -0.02864,-0.0204 -0.104817,-0.0163 -0.218075,0.0196 -0.142126,0.0451 -0.159176,0.076 -0.07235,0.12971 0.06555,0.0405 0.161229,0.0316 0.224792,-0.0212 0.07564,-0.0628 0.09427,-0.10772 0.06563,-0.12816 z m -3.044258,0.22996 c 0.144436,0 0.206705,0.0469 0.206705,0.15606 0,0.0859 -0.07548,0.22426 -0.167431,0.30747 -0.162046,0.14665 -0.170026,0.14434 -0.254764,-0.0785 -0.108154,-0.28447 -0.05158,-0.38499 0.21549,-0.38499 z m 0.541567,0.004 c 0.0334,-0.002 0.07876,0.003 0.139012,0.01 0.311799,0.0357 0.366551,0.27847 0.112655,0.49867 -0.104196,0.0904 -0.145161,0.16433 -0.09147,0.16433 0.05369,0 0.09715,0.0764 0.09715,0.1695 0,0.14364 -0.05606,0.1695 -0.371555,0.1695 -0.261892,0 -0.387368,-0.0401 -0.423746,-0.13487 -0.07984,-0.20808 0.01701,-0.28755 0.284221,-0.23411 0.243068,0.0486 0.243263,0.0476 0.195853,-0.30592 -0.03521,-0.26252 -0.0423,-0.33096 0.05788,-0.33693 z m 3.235971,5.70097 c 0.270406,0.0541 1.424492,0.69988 1.42317,0.79633 -5.3e-4,0.0329 -0.14718,0.12128 -0.326078,0.19637 -0.239345,0.10046 -0.367512,0.22938 -0.485759,0.4868 -0.171522,0.3734 -0.412584,0.44331 -0.417029,0.12092 -0.0013,-0.10146 -0.149585,-0.32984 -0.329178,-0.50695 l -0.326597,-0.32194 0.04496,0.24856 c 0.04933,0.27145 0.0013,0.47129 -0.11317,0.47129 -0.04011,0 -0.0506,-0.0573 -0.02376,-0.12712 0.06046,-0.15757 -0.105769,-0.16879 -0.198437,-0.0134 -0.108302,0.18157 -0.847135,0.32486 -1.350306,0.262 -0.249002,-0.0311 -0.452687,-0.0867 -0.452687,-0.12351 0,-0.0368 -0.07636,-0.0471 -0.169497,-0.0227 -0.189433,0.0495 -0.246975,-0.18385 -0.06356,-0.25786 0.08139,-0.0328 0.08005,-0.0445 -0.0052,-0.0496 -0.06341,-0.004 -0.08482,-0.0516 -0.05064,-0.11214 0.04601,-0.0815 0.03465,-0.0831 -0.04806,-0.007 -0.115501,0.10669 -0.368043,0.0561 -0.296624,-0.0594 0.07059,-0.11421 -0.306351,-0.19267 -0.412377,-0.0858 -0.07355,0.0741 -0.06083,0.0845 0.05116,0.0419 0.105421,-0.0401 0.147794,-0.0144 0.147794,0.0889 0,0.0943 -0.04468,0.12776 -0.127125,0.0961 -0.07736,-0.0297 -0.126606,2.2e-4 -0.126606,0.076 0,0.0684 0.03818,0.12402 0.08475,0.12402 0.04657,0 0.08423,0.0573 0.08423,0.12712 0,0.15472 -0.09505,0.16269 -0.253732,0.0212 -0.101405,-0.0904 -0.102294,-0.0836 -0.0036,0.0465 0.165793,0.21854 0.47693,0.15608 0.442867,-0.0889 -0.01458,-0.10477 0.01408,-0.19068 0.06356,-0.19068 0.0495,0 0.08992,0.073 0.08992,0.16226 0,0.0892 0.04773,0.18031 0.105937,0.20206 0.0677,0.0253 0.04476,0.0643 -0.06356,0.10852 -0.09313,0.038 -0.243555,0.13785 -0.333828,0.22169 -0.199175,0.18496 -0.310842,0.19144 -0.474397,0.0279 -0.06843,-0.0684 -0.35233,-0.21715 -0.631487,-0.33072 -0.279154,-0.11358 -0.507978,-0.25243 -0.507978,-0.30851 0,-0.0561 0.249525,-0.20276 0.554487,-0.32556 0.520631,-0.20965 0.885404,-0.41188 1.327049,-0.73691 0.175326,-0.12903 0.223102,-0.12674 0.714687,0.0393 0.735232,0.24829 1.11555,0.22991 1.711524,-0.0842 0.362979,-0.19133 0.56461,-0.24902 0.745172,-0.21291 z m 1.494999,1.12188 c 0.188531,-0.0215 0.319415,0.0335 0.69815,0.22376 0.690597,0.34689 0.730573,0.52204 0.278535,1.22112 -0.174598,0.27001 -0.361455,0.66223 -0.415478,0.87178 -0.07099,0.27537 -0.17581,0.43385 -0.377756,0.57154 -0.283086,0.19301 -0.630671,0.25041 -0.712618,0.11782 -0.02466,-0.0399 0.163822,-0.47698 0.418581,-0.97151 0.254749,-0.49454 0.463021,-0.93697 0.463021,-0.98341 0,-0.15363 -0.508402,-0.3564 -0.75706,-0.30179 -0.185039,0.0406 -0.245703,0.0183 -0.277503,-0.10335 -0.07931,-0.3033 0.07444,-0.50315 0.463021,-0.601 0.08694,-0.0219 0.156263,-0.0378 0.219107,-0.045 z m -1.530655,0.21188 c 0.03691,-5.3e-4 0.06726,0.007 0.08216,0.0217 0.09877,0.0988 -0.09965,0.21716 -0.229441,0.13694 -0.105101,-0.065 -0.100894,-0.0852 0.02582,-0.13384 0.0411,-0.0158 0.08453,-0.0242 0.121441,-0.0248 z m -4.9351,0.34313 c 0.129775,0.0116 0.270102,0.0504 0.409278,0.12092 0.527505,0.26712 0.729888,0.58895 0.299723,0.47646 -0.125039,-0.0327 -0.163454,-0.0165 -0.121957,0.0506 0.03331,0.0539 0.173426,0.0977 0.311094,0.0977 0.30828,0 0.934495,0.38843 1.91461,1.18752 0.820076,0.6686 1.051446,1.17739 0.591695,1.3007 -0.194654,0.0522 -1.333063,0.0474 -1.835546,-0.008 -0.784828,-0.0862 -1.527847,-0.52387 -1.141016,-0.67231 0.232707,-0.0893 1.014728,0.0311 1.43092,0.22066 0.406844,0.18534 0.726056,0.16865 0.726056,-0.0382 0,-0.28838 -0.494908,-0.65491 -1.77922,-1.31672 -1.069784,-0.55121 -1.367038,-0.74137 -1.407149,-0.90119 -0.0858,-0.34183 0.212188,-0.55305 0.601512,-0.51831 z m 8.527129,1.8774 c 0.04775,0.002 0.06925,0.0185 0.06925,0.0481 0,0.0809 -0.534254,0.47534 -0.91364,0.6749 -0.106535,0.056 -0.485548,0.15798 -0.842841,0.22634 -0.709179,0.13569 -1.075751,0.37409 -0.990121,0.64389 0.05079,0.16002 -0.02297,0.19571 -0.182936,0.0889 -0.378653,-0.25289 0.03717,-0.95085 0.566375,-0.95085 0.103362,0 0.572691,-0.14946 1.042829,-0.33176 0.730004,-0.28306 1.107832,-0.40567 1.251088,-0.39946 z m 0.0016,0.35709 c 0.112255,-0.0277 0.0651,0.11014 -0.145727,0.3607 -0.1344,0.15972 -0.440545,0.3405 -0.825791,0.48783 -0.336598,0.12872 -0.672174,0.28393 -0.745691,0.34519 -0.152779,0.12732 -0.552151,0.14961 -0.623216,0.0346 -0.148672,-0.24055 0.199914,-0.47659 0.810287,-0.54828 0.370096,-0.0435 0.838242,-0.24777 1.364774,-0.59532 0.07277,-0.048 0.127947,-0.0755 0.165364,-0.0848 z m -8.766907,0.4594 c 0.107391,0.004 0.198437,0.049 0.198437,0.13074 0,0.26598 0.698511,0.46421 1.997295,0.56638 0.732832,0.0576 1.166764,0.12262 1.066601,0.15968 -0.277585,0.10267 -1.717868,0.15265 -2.204516,0.0765 -0.932966,-0.14603 -1.586468,-0.54312 -1.354439,-0.82269 0.06565,-0.0791 0.18923,-0.11496 0.296622,-0.11059 z"
       style="fill:#000000;stroke-width:0.0846667"
       id="path12160"
       sodipodi:nodetypes="cscccscccccsscccccccccccccscccccccccscscccccccsccccccccccccscccscssccccccccsccccsccccsssssscccccscscsccssccscccccssscssccsccccsssssscccsccccccscccccscscccccsccccsscsccccscccssccccccsccccccscscsccscscscsscccccccccccccscscscsccsccssscccccccccccsccsccccccccccccccccscccccccssscccccccssccccscccscccccccsscssscccsssccccscsccccccsssscscccccscccssccscscccscscccccsccscscccccccccccccscccscc" />
  </g>
</svg>
