<?xml version="1.0" encoding="UTF-8" standalone="no"?>
<!-- Created with Inkscape (http://www.inkscape.org/) -->

<svg
   width="9.8175611mm"
   height="18.034077mm"
   viewBox="0 0 9.817561 18.034076"
   version="1.1"
   id="svg13810"
   inkscape:version="1.1.1 (3bf5ae0, 2021-09-20)"
   sodipodi:docname="wolf-right.svg"
   xmlns:inkscape="http://www.inkscape.org/namespaces/inkscape"
   xmlns:sodipodi="http://sodipodi.sourceforge.net/DTD/sodipodi-0.dtd"
   xmlns="http://www.w3.org/2000/svg"
   xmlns:svg="http://www.w3.org/2000/svg">
  <sodipodi:namedview
     id="namedview13812"
     pagecolor="#ffffff"
     bordercolor="#666666"
     borderopacity="1.0"
     inkscape:pageshadow="2"
     inkscape:pageopacity="0.0"
     inkscape:pagecheckerboard="0"
     inkscape:document-units="mm"
     showgrid="false"
     inkscape:zoom="7.8312671"
     inkscape:cx="63.782782"
     inkscape:cy="39.776449"
     inkscape:window-width="1920"
     inkscape:window-height="966"
     inkscape:window-x="0"
     inkscape:window-y="27"
     inkscape:window-maximized="1"
     inkscape:current-layer="layer1" />
  <defs
     id="defs13807" />
  <g
     inkscape:label="Слой 1"
     inkscape:groupmode="layer"
     id="layer1"
     transform="translate(40.116284,-34.972145)">
    <path
       d="m -36.636412,34.97219 c -0.0791,-5.29e-4 -0.32254,0.463425 -0.467672,0.890902 -0.12618,0.371623 -0.132345,0.755513 -0.02066,1.310513 0.01405,0.06985 1.75e-4,0.126609 -0.03101,0.126609 -0.156927,0 -0.484304,0.432567 -0.534334,0.7059 -0.03124,0.170683 -0.149096,0.477324 -0.261999,0.681096 -0.112903,0.203774 -0.205155,0.386093 -0.205155,0.405143 0,0.07083 0.34199,-0.151821 0.544669,-0.354502 0.270971,-0.27096 0.578544,-0.284813 0.540536,-0.02429 -0.01786,0.122431 -0.191053,0.281072 -0.510045,0.467154 l -0.483177,0.282154 0.02585,0.618567 c 0.02939,0.69641 0.213431,1.206098 0.218591,0.605647 0.0016,-0.186267 0.071,-0.528878 0.154514,-0.761712 0.125817,-0.350774 0.187537,-0.423746 0.358635,-0.423746 0.268396,0 0.310343,0.221467 0.121954,0.639239 -0.125513,0.278339 -0.130984,0.379854 -0.04186,0.751374 0.09613,0.400717 0.255799,0.589659 0.255799,0.302824 0,-0.168593 0.221502,-0.162915 0.286803,0.0072 0.10146,0.264401 0.05017,0.537964 -0.117821,0.627869 -0.09313,0.04984 -0.168982,0.148905 -0.168982,0.220142 0,0.07123 0.187376,0.479202 0.416513,0.906922 0.638595,1.192044 0.94385,2.310748 0.675925,2.476334 -0.05099,0.03152 -0.201988,-0.02334 -0.335377,-0.121954 -0.133387,-0.09862 -0.285063,-0.179319 -0.336931,-0.179319 -0.05187,0 -0.350952,-0.233077 -0.665076,-0.517797 -0.97123,-0.880315 -1.349594,-0.904053 -1.427821,-0.08992 -0.03642,0.379066 0.0534,1.023948 0.194305,1.391129 0.03124,0.08139 0.0199,0.147793 -0.02532,0.147793 -0.04522,0 -0.145286,-0.165685 -0.222724,-0.368453 -0.188079,-0.492473 -0.675616,-0.884694 -1.100193,-0.884694 h -0.317809 l 0.05168,0.563274 c 0.08937,0.974974 0.126495,1.092907 0.504362,1.595769 0.203012,0.270166 0.413944,0.657883 0.468707,0.861446 0.09975,0.370798 0.482028,0.810167 0.790133,0.907955 0.230751,0.07324 0.540864,-0.02799 0.606163,-0.197922 0.173726,-0.452091 0.292608,-1.338514 0.24443,-1.820561 -0.02913,-0.291277 -0.03158,-0.51059 -0.0057,-0.487307 0.05036,0.04525 0.884799,1.167337 0.97875,1.316199 0.230629,0.365419 1.20868,0.751107 2.134753,0.84129 0.649505,0.06325 0.989865,0.21009 1.334286,0.57671 l 0.192238,0.205155 -0.796851,0.395844 c -0.438515,0.21763 -1.097806,0.597304 -1.464511,0.843875 -0.637529,0.42867 -0.667594,0.463619 -0.692464,0.800984 -0.02167,0.293819 0.01244,0.388757 0.204639,0.56689 0.233862,0.216737 0.82269,0.425265 1.542542,0.546738 0.728623,0.122957 2.193978,0.09819 2.531628,-0.04289 0.534734,-0.160706 0.614498,-0.519507 0.06925,-0.831075 -0.273789,-0.08697 -0.565984,-0.144284 -0.809769,-0.231911 -0.424598,-0.154826 -0.623729,-0.178065 -1.185974,-0.139526 -0.371575,0.02545 -0.675412,0.01455 -0.675412,-0.02429 0,-0.166368 0.303686,-0.346507 0.852146,-0.505397 0.323115,-0.09361 0.861883,-0.249907 1.197343,-0.347265 1.246479,-0.361752 1.578139,-0.629756 1.301729,-1.051616 -0.151432,-0.231114 -0.175969,-0.464571 -0.04909,-0.464571 0.160067,0 0.08438,-0.247949 -0.105937,-0.347266 -0.577686,-0.301456 -1.508416,-0.993508 -1.586982,-1.17977 -0.0498,-0.118046 -0.0824,-0.327535 -0.07235,-0.465606 0.01103,-0.151352 -0.06996,-0.390077 -0.204124,-0.601511 -0.122391,-0.192879 -0.284212,-0.555099 -0.359666,-0.804603 -0.07545,-0.249505 -0.234024,-0.70139 -0.351917,-1.004073 -0.117896,-0.302684 -0.232008,-0.759839 -0.25373,-1.015961 -0.06654,-0.784873 -0.08349,-0.822322 -0.407729,-0.88315 -0.448622,-0.08416 -0.621019,-0.489807 -0.274918,-0.647504 0.263428,-0.120026 0.501002,-0.0158 1.151351,0.505394 0.481827,0.386135 0.584208,0.432533 0.94878,0.432533 0.472389,0 0.762934,-0.111324 0.911571,-0.349332 0.08975,-0.143711 0.07669,-0.19212 -0.0894,-0.335381 l -0.193786,-0.167431 0.334862,0.02429 c 0.323784,0.02313 0.346586,0.0067 0.675412,-0.484206 0.337995,-0.504624 0.376047,-0.678344 0.315744,-1.439191 -0.0074,-0.09313 0.0085,-0.323148 0.03565,-0.511079 0.04352,-0.301742 0.02516,-0.355066 -0.159162,-0.453718 -0.266872,-0.142828 -0.51594,-0.06309 -0.637688,0.20412 -0.05263,0.115523 -0.151627,0.210323 -0.220141,0.210326 -0.06851,0 -0.288616,0.108473 -0.488858,0.241326 -0.399155,0.264822 -0.871532,0.450353 -0.949298,0.372589 -0.137949,-0.137951 -0.03693,-0.453903 0.170534,-0.532784 0.162661,-0.0618 0.205171,-0.122002 0.162264,-0.230478 -0.03198,-0.08084 -0.07985,-0.276953 -0.106455,-0.435631 -0.04417,-0.263435 -0.03287,-0.284409 0.133842,-0.240813 0.24933,0.0652 0.231241,-0.01622 -0.116271,-0.521415 -0.340193,-0.494551 -0.26887,-0.613537 0.239778,-0.40101 0.247449,0.103394 0.320781,0.195805 0.424265,0.534334 l 0.125055,0.409278 0.0088,-0.338481 c 0.01101,-0.43879 -0.228185,-0.826236 -0.663525,-1.07487 -0.42209,-0.241064 -0.43226,-0.322461 -0.04134,-0.322461 0.417253,0 0.600488,0.118417 0.888836,0.573093 0.138893,0.219011 0.248563,0.327745 0.248563,0.246496 0,-0.203364 -0.386694,-0.793591 -0.591696,-0.903303 -0.237998,-0.127373 -0.212328,-0.290333 0.06253,-0.398944 l 0.232545,-0.09198 -0.240813,-0.0088 c -0.132514,-0.0049 -0.351097,0.05585 -0.485759,0.135393 -0.241719,0.142785 -0.248201,0.141639 -0.520899,-0.117306 -0.372565,-0.353777 -0.585412,-0.403042 -1.179256,-0.271301 -0.428487,0.09506 -0.483285,0.127609 -0.363802,0.214974 0.200591,0.146677 0.06416,0.309147 -0.212907,0.253733 -0.127262,-0.02545 -0.272236,-0.0048 -0.322461,0.04547 -0.144296,0.144296 -0.357082,0.01045 -0.357082,-0.224793 0,-0.185356 0.03746,-0.214452 0.275434,-0.214455 0.26801,0 0.275405,-0.0104 0.289904,-0.386025 0.01275,-0.330647 -0.01355,-0.398338 -0.184999,-0.476456 -0.355786,-0.162105 -0.491813,-0.03529 -0.42685,0.39791 0.04978,0.331988 0.03785,0.379523 -0.09612,0.376721 -0.08435,-0.0019 -0.258403,-0.1548 -0.386538,-0.340032 -0.197186,-0.285035 -0.673142,-0.671769 -0.828373,-0.672827 z m 1.514118,0.358635 c 0.03496,-0.01386 0.079,-0.01283 0.13126,0.0072 0.08887,0.0341 0.135908,0.154839 0.135908,0.350882 0,0.359905 -0.120655,0.385792 -0.288356,0.0615 -0.104378,-0.201842 -0.08371,-0.378049 0.02119,-0.41961 z m -1.350301,0.234098 c 0.127881,0 0.536784,0.381008 0.979784,0.913124 0.222258,0.266968 0.281228,1.183087 0.08113,1.259872 -0.174665,0.06703 -0.287279,-0.106966 -0.288872,-0.445968 -7.94e-4,-0.155771 -0.104733,-0.405376 -0.255797,-0.613916 -0.266567,-0.367977 -0.407688,-0.469709 -0.254764,-0.18397 0.139797,0.261215 0.264109,1.036156 0.207737,1.293463 -0.09562,0.436452 -0.645295,0.200393 -0.795816,-0.341582 -0.20274,-0.729996 -0.0028,-1.881023 0.326596,-1.881023 z m 2.999817,0.509015 c 0.365535,0.0026 0.428987,0.127051 0.187584,0.368454 -0.244985,0.244985 -0.382849,0.276018 -0.537435,0.121441 -0.243565,-0.243568 -0.06559,-0.492832 0.349851,-0.489895 z m -0.448035,1.697592 c 0.09245,-0.0028 0.163179,0.03404 0.192752,0.111104 0.02455,0.06397 0.185182,0.14242 0.357084,0.174667 0.332634,0.0624 0.716754,0.379011 0.716754,0.590661 0,0.167333 -0.897687,0.174562 -0.9617,0.0077 -0.02299,-0.0599 -0.215921,-0.175485 -0.428913,-0.256828 -0.427974,-0.163444 -0.482958,-0.301824 -0.198956,-0.500745 0.116287,-0.08144 0.230526,-0.123831 0.322979,-0.126606 z m -0.916741,0.433503 c 0.321934,0.03105 0.412416,0.250976 0.199472,0.486275 -0.07505,0.08293 -0.114062,0.21032 -0.0863,0.28267 0.02776,0.07235 0.01257,0.268415 -0.03359,0.435632 -0.08372,0.303215 -0.08312,0.304035 0.184486,0.29869 0.244136,-0.0049 0.251565,-0.01246 0.07958,-0.08165 -0.159838,-0.06428 -0.181111,-0.119086 -0.135909,-0.354502 0.105939,-0.551749 0.178276,-0.659389 0.443383,-0.659389 0.137528,0 0.310259,0.06015 0.38344,0.133323 0.190399,0.190405 0.168497,0.314693 -0.03617,0.205156 -0.175022,-0.09365 -0.200234,-0.06502 -0.173117,0.195855 0.0088,0.08427 -0.03106,0.209489 -0.08837,0.278535 -0.07893,0.09509 -0.08046,0.149521 -0.0062,0.223758 0.05391,0.05391 0.09819,0.07136 0.09819,0.03876 0,-0.09945 0.30517,0.239194 0.37207,0.412895 0.05941,0.154258 0.06697,0.154951 0.147278,0.01188 0.06577,-0.117176 0.04379,-0.184333 -0.0987,-0.299725 -0.175694,-0.142269 -0.178138,-0.162825 -0.05271,-0.463021 0.157885,-0.377865 0.457822,-0.545968 0.721921,-0.404625 0.23604,0.12632 0.23038,0.325483 -0.01035,0.359667 -0.104775,0.01487 -0.190921,0.06557 -0.19172,0.112138 -7.94e-4,0.04657 -0.03515,0.137819 -0.07648,0.203089 -0.05029,0.07944 -0.02907,0.152686 0.0646,0.221176 0.07696,0.05628 0.140044,0.181642 0.140044,0.278535 0,0.371118 0.227558,0.317656 0.937927,-0.220142 0.284966,-0.215738 0.436424,-0.273722 0.66766,-0.254248 0.254537,0.02143 0.303125,0.05977 0.325562,0.254248 0.02439,0.21131 0.04286,0.221264 0.23926,0.131776 0.170333,-0.07762 0.227943,-0.07261 0.289906,0.02532 0.226774,0.358426 -0.09558,1.095539 -0.479041,1.095539 -0.183166,0 -0.214696,-0.03095 -0.17725,-0.174149 0.03612,-0.138112 0.02162,-0.154646 -0.06821,-0.0801 -0.0623,0.05171 -0.297373,0.09397 -0.522449,0.09405 -0.225073,1.06e-4 -0.523309,0.0043 -0.663009,0.0088 -0.234984,0.0075 -0.642818,-0.108347 -0.991671,-0.281635 -0.100915,-0.05013 -0.168109,-0.03001 -0.222208,0.06666 -0.04919,0.08791 -0.131082,0.117928 -0.224277,0.08217 -0.121041,-0.04645 -0.128209,-0.07909 -0.04031,-0.185002 0.08789,-0.1059 0.07805,-0.149966 -0.05426,-0.250113 -0.207978,-0.157438 -0.40999,-0.158541 -0.538985,-0.0031 -0.08363,0.100766 -0.05939,0.163711 0.12919,0.338479 0.129374,0.119898 0.332616,0.214974 0.460439,0.214974 0.14343,0 0.435385,0.156159 0.781346,0.418063 0.386773,0.292793 0.604623,0.404473 0.72657,0.372586 0.144827,-0.03787 0.166341,-0.01497 0.126608,0.136943 -0.03595,0.137477 -0.003,0.194439 0.132808,0.22996 0.211545,0.05532 0.238932,0.240871 0.04651,0.314711 -0.22501,0.08635 -0.43269,0.05802 -0.542603,-0.07441 -0.05754,-0.06933 -0.13077,-0.110225 -0.162779,-0.09043 -0.03201,0.01979 -0.264261,-0.152767 -0.515732,-0.383955 -0.25147,-0.23119 -0.515945,-0.411805 -0.588078,-0.40101 -0.21531,0.0322 -0.612357,-0.09849 -0.882632,-0.290939 -0.236299,-0.168264 -0.249359,-0.169857 -0.19172,-0.01963 0.03401,0.08863 0.08454,0.325816 0.112139,0.5271 0.02758,0.201285 0.08293,0.38658 0.122989,0.411345 0.04006,0.02477 0.07286,0.144489 0.07286,0.266134 0,0.121642 0.05082,0.280982 0.112654,0.354499 0.185581,0.220652 0.480073,1.026743 0.480073,1.313617 0,0.147461 -0.04592,0.313606 -0.101801,0.369486 -0.122373,0.122044 -0.312031,0.126455 -0.50953,0.01138 -0.294216,-0.171471 -0.911561,-1.031582 -1.088824,-1.517738 -0.100226,-0.274886 -0.253833,-0.564994 -0.341579,-0.644406 -0.208592,-0.188767 -0.202584,-0.389533 0.01601,-0.526066 0.138499,-0.08649 0.155043,-0.134469 0.07751,-0.227893 -0.189484,-0.228309 7.94e-4,-0.309163 0.29714,-0.12609 0.285486,0.17644 0.486889,0.108151 0.253215,-0.08578 -0.06934,-0.05754 -0.12609,-0.178223 -0.12609,-0.268716 0,-0.09049 -0.0408,-0.241668 -0.09095,-0.335381 -0.135297,-0.252801 -0.03899,-0.440999 0.168982,-0.329694 0.109902,0.05882 0.183221,0.05999 0.218074,0.0036 0.02886,-0.04669 -0.0081,-0.08475 -0.08217,-0.08475 -0.25741,0 -0.330247,-0.537888 -0.09405,-0.69505 0.06211,-0.04133 0.05744,-0.0924 -0.01498,-0.164846 -0.05782,-0.05782 -0.104902,-0.234712 -0.104902,-0.392743 0,-0.21301 0.04223,-0.298415 0.163815,-0.330213 0.0902,-0.0236 0.203527,-0.155945 0.251663,-0.294031 0.07622,-0.218663 0.123132,-0.247534 0.364318,-0.224277 z m 0.664559,2.203481 c 0.101174,0.0032 0.188836,0.134933 0.135908,0.272855 -0.028,0.07298 -0.09159,0.132807 -0.141076,0.132807 -0.137146,0 -0.203977,-0.252833 -0.0956,-0.361219 0.03206,-0.03206 0.06705,-0.0455 0.10077,-0.04444 z m 2.208136,0.717262 c 0.04427,-0.01304 0.09852,-0.01318 0.160713,0.0031 0.166473,0.04353 0.211074,0.231569 0.11472,0.482658 -0.07755,0.202098 -0.247623,0.160841 -0.360701,-0.08734 -0.09169,-0.201237 -0.04757,-0.359299 0.08527,-0.398425 z m 0.787548,0.111623 c 0.264432,0 0.323085,0.10065 0.219106,0.374136 -0.110881,0.291642 -0.219921,0.275736 -0.332795,-0.04806 -0.11983,-0.343733 -0.126037,-0.326077 0.113689,-0.326076 z m -6.895188,2.98328 c 0.154485,0.01177 0.362768,0.140309 0.620634,0.388088 0.460711,0.442691 0.589782,0.714267 0.467156,0.983404 -0.16233,0.356277 -0.601311,0.381241 -0.709517,0.04031 -0.06428,-0.202499 -0.236345,-0.215553 -0.17725,-0.01344 0.109516,0.374592 0.21177,1.134822 0.167947,1.249021 -0.05995,0.156232 -0.112318,0.155411 -0.324012,-0.0047 -0.167645,-0.126752 -0.217577,-0.374502 -0.350366,-1.738395 -0.06026,-0.61894 0.04794,-0.923954 0.305408,-0.904338 z m -1.23249,1.136359 c 0.0854,-0.07194 0.390144,0.375309 0.825789,1.237134 0.146611,0.290036 0.33352,0.575201 0.414962,0.633552 0.203901,0.146098 0.355052,0.646888 0.287837,0.952913 -0.04971,0.22633 -0.08914,0.253013 -0.366384,0.250632 -0.287663,-0.0024 -0.298802,-0.01154 -0.150897,-0.123508 0.25923,-0.196257 0.129794,-0.633584 -0.361733,-1.224213 -0.413264,-0.496589 -0.545751,-0.794449 -0.658358,-1.477428 -0.02363,-0.143344 -0.01969,-0.2251 0.0088,-0.249082 z m -0.266133,0.198454 c 0.02513,0 0.109556,0.199943 0.188103,0.444418 0.150005,0.466889 0.387863,0.872204 0.752924,1.283126 0.126074,0.141912 0.218591,0.347864 0.218591,0.486791 0,0.198387 -0.0362,0.240813 -0.205155,0.240813 -0.16183,0 -0.227097,-0.06645 -0.309542,-0.316262 -0.05747,-0.174144 -0.220035,-0.505071 -0.361735,-0.735364 C -39.475,46.655 -39.55561,46.405416 -39.58146,46.047953 c -0.01961,-0.270788 -0.01479,-0.492477 0.01035,-0.492477 z m 6.239928,2.582252 c 0,0.153379 -0.274704,0.162483 -0.185211,-0.05056 0.0989,-0.09391 0.185211,-0.01929 0.185211,0.05056 z m -0.618924,0.144903 c -0.36363,-2.4e-5 -1.678316,-0.344075 -1.892549,-0.48442 -0.336994,-0.220766 -0.621152,-0.525381 -0.621152,-0.665075 0,-0.07615 -0.05727,-0.138494 -0.127124,-0.138494 -0.06985,0 -0.127124,-0.06101 -0.127124,-0.135908 0,-0.10155 0.05176,-0.123381 0.203605,-0.08526 0.175783,0.04412 0.197273,0.02643 0.15658,-0.129193 -0.03409,-0.130337 -0.0145,-0.168741 0.07131,-0.138491 0.06703,0.02363 0.108421,0.129087 0.09509,0.242361 -0.01791,0.152281 2.51e-4,0.176998 0.07493,0.102319 0.120962,-0.120962 0.04342,-0.349051 -0.143145,-0.420645 -0.0761,-0.0292 -0.245123,0.01 -0.375169,0.08681 -0.292856,0.172982 -0.336931,0.173533 -0.336931,0.0073 0,-0.08307 0.03882,-0.108225 0.105421,-0.06822 0.07003,0.04207 0.06611,0.0145 -0.01188,-0.08165 -0.138377,-0.170547 -0.06343,-0.291832 0.09767,-0.158131 0.07046,0.05847 0.155604,0.0634 0.234611,0.01344 0.06828,-0.04318 0.10545,-0.08201 0.08217,-0.0863 -0.453133,-0.08322 -0.455834,-0.08572 -0.328662,-0.364834 0.06997,-0.153567 0.136974,-0.223454 0.219109,-0.205674 l -8e-6,-2.1e-5 c 0.08213,0.01778 0.179739,0.122952 0.310057,0.319879 0.134991,0.203983 0.314992,0.359595 0.455787,0.393774 0.127969,0.03107 0.372084,0.165764 0.542603,0.299207 0.502896,0.393551 0.895072,0.520739 1.43247,0.464571 0.260106,-0.02719 0.532915,-0.07266 0.606165,-0.100769 0.08819,-0.03384 0.288555,0.10115 0.593762,0.399457 0.253503,0.247769 0.676577,0.583742 0.939994,0.746726 0.269814,0.166941 0.469561,0.34872 0.457337,0.416512 -0.01299,0.07196 -0.208817,0.159012 -0.487309,0.216006 -0.256117,0.05242 -0.548892,0.140859 -0.650606,0.196887 -0.101713,0.05602 -0.216262,0.100547 -0.254248,0.09922 -0.149474,-0.0056 -0.365353,-0.181341 -0.365353,-0.297657 0,-0.06753 -0.05727,-0.122989 -0.127124,-0.122989 -0.06985,0 -0.127125,-0.05727 -0.127125,-0.127124 0,-0.138353 0.131845,-0.171648 0.205674,-0.05219 0.02529,0.04095 0.124653,0.09517 0.221173,0.120404 0.149583,0.03912 0.159822,0.02667 0.06821,-0.08371 -0.08848,-0.106608 -0.0816,-0.148434 0.03979,-0.237196 0.128001,-0.0936 0.130472,-0.11448 0.0181,-0.157612 -0.174545,-0.06698 -0.164062,-0.204463 0.0186,-0.243396 0.102415,-0.02183 0.07671,-0.04671 -0.08423,-0.07958 -0.163266,-0.03335 -0.23306,-0.01312 -0.23306,0.0677 0,0.171572 -0.252667,0.139994 -0.260451,-0.03256 -0.0053,-0.11802 -0.01677,-0.122338 -0.05529,-0.02119 -0.02659,0.06985 -0.09466,0.15617 -0.2838,0.191495 -0.11789,0.196072 -0.2173,0.334285 -0.35787,0.334274 z m 0.91503,-0.199691 c 0.04424,0 0.09389,0.04089 0.110587,0.09095 0.01669,0.05006 -0.03298,0.09095 -0.110587,0.09095 -0.07761,0 -0.127281,-0.04089 -0.110586,-0.09095 0.01669,-0.05006 0.06635,-0.09095 0.110586,-0.09095 z m 1.589569,0.782899 c 0.173452,-0.0043 0.317314,0.03079 0.415477,0.105421 0.196943,0.149717 0.277419,0.511267 0.138494,0.623734 -0.128529,0.10405 -1.191538,0.456181 -2.071193,0.686263 -0.647864,0.169455 -1.364194,0.540721 -1.443839,0.748273 -0.02679,0.06982 0.01106,0.186238 0.08372,0.2589 0.111276,0.111279 0.192421,0.117324 0.514697,0.03617 0.411167,-0.103531 1.224629,-0.128879 1.443323,-0.04496 0.255664,0.09811 0.150095,0.33999 -0.19327,0.442865 -0.537427,0.161017 -1.809761,0.04619 -2.684074,-0.242361 -0.692523,-0.228552 -0.196109,-0.787527 1.360638,-1.532207 0.789475,-0.377648 1.14018,-0.500772 1.451592,-0.50953 0.225864,-0.0063 0.325435,-0.02787 0.22066,-0.04806 -0.30289,-0.05834 -0.221962,-0.243805 0.172082,-0.39429 0.21558,-0.08233 0.418243,-0.125965 0.591696,-0.130225 z m -0.335889,2.705823 c 0.06804,-0.0032 0.161663,0.03195 0.263552,0.106455 0.244499,0.178779 0.132082,0.421336 -0.248047,0.535885 -0.559649,0.168642 -1.606621,0.129259 -2.440678,-0.09147 -0.411472,-0.108891 -0.790459,-0.240104 -0.842325,-0.29197 -0.125158,-0.125158 -0.01503,-0.120864 0.828373,0.03152 1.224706,0.221281 2.32854,0.142171 2.32854,-0.1664 0,-0.07932 0.04256,-0.120808 0.110585,-0.124023 z m -2.940388,1.434539 c -0.200975,0 0.227089,5e-6 0,5e-6 z"
       style="fill:#000000;stroke-width:0.0846667"
       id="path13805"
       sodipodi:nodetypes="cccscsscccccsssscscsscccssccsssccscssccsscccscccccccsscsscccscsccscsscccccccccscccssccccccssscccccsccccsccccccccccssccssccccsssscsccccssccccccscccccscccccssccccccccssccccsccccsccsccsscscccscccccccscsccccccccscscsccsccccccsccccccsccsscscssccccscccscsccsccccsssssccccscscssssccscsccscccccsccccscsssccccsssccsscscscccccscscsccssssccsssccsccscssscsssccc" />
  </g>
</svg>
