<?xml version="1.0" encoding="UTF-8" standalone="no"?>
<svg
   version="1.1"

   width="32px"
   height="32px"
   class=" facebook"
   viewBox="0 0 97.75 97.75"

   xmlns="http://www.w3.org/2000/svg"
   xmlns:svg="http://www.w3.org/2000/svg">


  <path
     d="M 48.875,0 C 21.882,0 0,21.882 0,48.875 0,75.868 21.882,97.75 48.875,97.75 75.868,97.75 97.75,75.868 97.75,48.875 97.75,21.882 75.868,0 48.875,0 Z m 18.646,24.89 -6.76,0.003 c -5.301,0 -6.326,2.519 -6.326,6.215 v 8.15 H 67.076 L 67.07,52.023 H 54.436 V 84.781 H 41.251 V 52.023 H 30.229 V 39.258 h 11.022 v -9.414 c 0,-10.925 6.675,-16.875 16.42,-16.875 l 9.851,0.015 V 24.89 Z"
     id="path351"
     class="bg" />
  <path
     d="m 67.521,24.89 -6.76,0.003 c -5.301,0 -6.326,2.519 -6.326,6.215 v 8.15 H 67.076 L 67.07,52.023 H 54.436 V 84.781 H 41.251 V 52.023 H 30.229 V 39.258 h 11.022 v -9.414 c 0,-10.925 6.675,-16.875 16.42,-16.875 l 9.851,0.015 V 24.89 Z"
     id="path484"
     class="mn" />
</svg>
