<?xml version="1.0" encoding="UTF-8" standalone="no"?>
<svg
   height="512pt"
   viewBox="0 0 512 512"
   width="512pt"
   version="1.1"
   id="svg377"
   sodipodi:docname="instagram1.svg"
   inkscape:version="1.1.1 (3bf5ae0d25, 2021-09-20)"
   xmlns:inkscape="http://www.inkscape.org/namespaces/inkscape"
   xmlns:sodipodi="http://sodipodi.sourceforge.net/DTD/sodipodi-0.dtd"
   xmlns="http://www.w3.org/2000/svg"
   xmlns:svg="http://www.w3.org/2000/svg">
  <defs
     id="defs381" />
  <sodipodi:namedview
     id="namedview379"
     pagecolor="#ffffff"
     bordercolor="#666666"
     borderopacity="1.0"
     inkscape:pageshadow="2"
     inkscape:pageopacity="0.0"
     inkscape:pagecheckerboard="0"
     inkscape:document-units="pt"
     showgrid="false"
     inkscape:zoom="1.21875"
     inkscape:cx="203.89744"
     inkscape:cy="341.74359"
     inkscape:window-width="1920"
     inkscape:window-height="1017"
     inkscape:window-x="-8"
     inkscape:window-y="-8"
     inkscape:window-maximized="1"
     inkscape:current-layer="svg377" />
  <path
     d="m 402.11328,316.60547 c -0.71093,15.64843 -3.19921,26.33202 -6.83203,35.68358 -7.63672,19.7461 -23.2461,35.35547 -42.99219,42.99219 -9.34765,3.63282 -20.03515,6.11719 -35.67969,6.83203 -15.67578,0.71485 -20.68359,0.88672 -60.60546,0.88672 -39.92578,0 -44.92969,-0.17187 -60.60938,-0.88672 -15.64452,-0.71484 -26.33202,-3.19921 -35.67968,-6.83203 -9.8125,-3.69141 -18.69532,-9.47656 -26.03907,-16.95703 -7.47655,-7.33985 -13.26172,-16.22656 -16.95312,-26.03516 -3.63281,-9.34765 -6.12109,-20.03515 -6.83203,-35.67969 C 109.16797,300.92968 109,295.92187 109,255.99999 c 0,-39.92187 0.16797,-44.92969 0.88673,-60.60547 0.71093,-15.64843 3.1953,-26.33202 6.82812,-35.68359 3.69141,-9.80859 9.48047,-18.69531 16.96093,-26.03516 7.33985,-7.48046 16.22657,-13.26562 26.03516,-16.95702 9.35157,-3.63282 20.03516,-6.11719 35.68359,-6.83203 15.67578,-0.71485 20.6836,-0.88673 60.60547,-0.88673 39.92188,0 44.92969,0.17188 60.60548,0.89063 15.64843,0.71094 26.33202,3.19531 35.68358,6.82422 9.8086,3.69141 18.69531,9.48047 26.03907,16.96093 7.47656,7.34376 13.26562,16.22657 16.95312,26.03516 3.63673,9.35157 6.1211,20.03516 6.83594,35.68359 0.71484,15.67578 0.88281,20.6836 0.88281,60.60547 0,39.92188 -0.16797,44.92969 -0.88672,60.60548 z"
     id="path884"
     style="stroke-width:0.75"
     class="mn" />
  <path
     d="m 256,331.48437 c -41.6914,0 -75.48828,-33.79297 -75.48828,-75.48438 0,-41.6914 33.79688,-75.48437 75.48828,-75.48437 41.6875,0 75.48437,33.79297 75.48437,75.48437 0,41.69141 -33.79687,75.48438 -75.48437,75.48438 z"
     id="path598"
     style="stroke-width:0.75"
     class="mn" />
  <path
     d="m 334.46875,195.17187 c -9.74218,0 -17.64063,-7.89843 -17.64063,-17.64062 0,-9.74219 7.89845,-17.64063 17.64063,-17.64063 9.74219,0 17.64062,7.89844 17.64062,17.64063 -0.004,9.74219 -7.89843,17.64062 -17.64062,17.64062 z"
     id="path760"
     style="stroke-width:0.75"
     class="mn" />
  <path
     id="path371"
     d="m305 256c0 27.0625-21.9375 49-49 49s-49-21.9375-49-49 21.9375-49 49-49 49 21.9375 49 49zm0 0"
     class="bg" />
  <path
     d="m 370.59375,169.30469 c -2.35547,-6.38282 -6.11328,-12.16016 -10.99609,-16.90235 -4.74219,-4.88281 -10.51563,-8.64062 -16.90235,-10.99609 C 337.51563,139.39453 329.73438,137 315.40234,136.34766 299.89844,135.64062 295.25,135.48828 256,135.48828 c -39.25391,0 -43.90234,0.14844 -59.40234,0.85547 -14.33203,0.65625 -22.11719,3.05078 -27.29297,5.0625 -6.38672,2.35547 -12.16406,6.11328 -16.90235,10.99609 -4.88281,4.74219 -8.64062,10.51563 -11,16.90235 -2.01171,5.17968 -4.40625,12.96484 -5.05859,27.29687 -0.70703,15.5 -0.85937,20.14844 -0.85937,59.40235 0,39.25 0.15234,43.89843 0.85937,59.40234 0.65234,14.33203 3.04688,22.11328 5.05859,27.29297 2.35938,6.38672 6.11329,12.16015 10.9961,16.90234 4.74219,4.88281 10.51562,8.64063 16.90234,10.9961 5.17969,2.01562 12.96485,4.41015 27.29688,5.0625 15.5,0.70703 20.14453,0.85546 59.39843,0.85546 39.25782,0 43.90625,-0.14843 59.40235,-0.85546 14.33203,-0.65235 22.11719,-3.04688 27.29687,-5.0625 12.82032,-4.94532 22.95313,-15.07813 27.89844,-27.89844 2.01172,-5.17969 4.40625,-12.96094 5.0625,-27.29297 0.70703,-15.50391 0.85547,-20.15234 0.85547,-59.40234 0,-39.25391 -0.14844,-43.90235 -0.85547,-59.40235 -0.65234,-14.33203 -3.04687,-22.11719 -5.0625,-27.29687 z M 256,331.48437 c -41.69141,0 -75.48828,-33.79296 -75.48828,-75.48437 0,-41.69141 33.79687,-75.48438 75.48828,-75.48438 41.6875,0 75.48437,33.79297 75.48437,75.48438 0,41.69141 -33.79687,75.48437 -75.48437,75.48437 z m 78.46875,-136.3125 c -9.74219,0 -17.64063,-7.89843 -17.64063,-17.64062 0,-9.74219 7.89844,-17.64063 17.64063,-17.64063 9.74219,0 17.64062,7.89844 17.64062,17.64063 -0.004,9.74219 -7.89843,17.64062 -17.64062,17.64062 z"
     id="path373"
     class="bg"
     sodipodi:nodetypes="ccccscccccscccccsccccsccsssssssscs" />
  <path
     id="path375"
     d="M 256,0 C 114.63672,0 0,114.63672 0,256 0,397.36328 114.63672,512 256,512 397.36328,512 512,397.36328 512,256 512,114.63672 397.36328,0 256,0 Z m 146.11328,316.60547 c -0.71094,15.64844 -3.19922,26.33203 -6.83203,35.68359 -7.63672,19.7461 -23.24609,35.35547 -42.99219,42.99219 -9.34765,3.63281 -20.03515,6.11719 -35.67968,6.83203 C 300.93359,402.82813 295.92578,403 256.00391,403 c -39.92579,0 -44.92969,-0.17187 -60.60938,-0.88672 -15.64453,-0.71484 -26.33203,-3.19922 -35.67969,-6.83203 -9.8125,-3.69141 -18.69531,-9.47656 -26.03906,-16.95703 -7.47656,-7.33984 -13.26172,-16.22656 -16.95312,-26.03516 -3.63282,-9.34765 -6.1211,-20.03515 -6.83203,-35.67968 C 109.16797,300.92969 109,295.92188 109,256 c 0,-39.92187 0.16797,-44.92969 0.88672,-60.60547 0.71094,-15.64844 3.19531,-26.33203 6.82812,-35.68359 3.69141,-9.8086 9.48047,-18.69531 16.96094,-26.03516 7.33985,-7.48047 16.22656,-13.26562 26.03516,-16.95703 9.35156,-3.63281 20.03515,-6.11719 35.68359,-6.83203 C 211.07031,109.17188 216.07812,109 256,109 c 39.92187,0 44.92969,0.17188 60.60547,0.89063 15.64844,0.71093 26.33203,3.19531 35.68359,6.82421 9.8086,3.69141 18.69531,9.48047 26.03906,16.96094 7.47657,7.34375 13.26563,16.22656 16.95313,26.03516 3.63672,9.35156 6.12109,20.03515 6.83594,35.68359 C 402.83203,211.07031 403,216.07813 403,256 c 0,39.92188 -0.16797,44.92969 -0.88672,60.60547 z"
     class="bg"
     sodipodi:nodetypes="sssssccccscccccscccccscccccsc" />
</svg>
