<?xml version="1.0" encoding="UTF-8" standalone="no"?>
<svg
   height="512pt"
   viewBox="0 0 512 512"
   width="512pt"
   version="1.1"
   id="svg4"
   sodipodi:docname="twitter1.svg"
   inkscape:version="1.1.1 (3bf5ae0d25, 2021-09-20)"
   xmlns:inkscape="http://www.inkscape.org/namespaces/inkscape"
   xmlns:sodipodi="http://sodipodi.sourceforge.net/DTD/sodipodi-0.dtd"
   xmlns="http://www.w3.org/2000/svg"
   xmlns:svg="http://www.w3.org/2000/svg">
  <defs
     id="defs351" />
  <sodipodi:namedview
     id="namedview6"
     pagecolor="#ffffff"
     bordercolor="#666666"
     borderopacity="1.0"
     inkscape:pageshadow="2"
     inkscape:pageopacity="0.0"
     inkscape:pagecheckerboard="0"
     inkscape:document-units="pt"
     showgrid="false"
     inkscape:zoom="1.21875"
     inkscape:cx="142.76923"
     inkscape:cy="341.74359"
     inkscape:window-width="1920"
     inkscape:window-height="1017"
     inkscape:window-x="-8"
     inkscape:window-y="-8"
     inkscape:window-maximized="1"
     inkscape:current-layer="svg4" />
  <path
     d="M 256,0 C 114.63672,0 0,114.63672 0,256 0,397.36328 114.63672,512 256,512 397.36328,512 512,397.36328 512,256 512,114.63672 397.36328,0 256,0 Z m 116.88672,199.60156 c 0.11328,2.51953 0.16797,5.05078 0.16797,7.59375 0,77.64453 -59.10157,167.17969 -167.1836,167.1836 h 0.004 -0.004 c -33.18359,0 -64.0625,-9.72657 -90.0664,-26.39454 4.59765,0.54297 9.27734,0.8125 14.01562,0.8125 27.53125,0 52.86719,-9.39062 72.98047,-25.15234 -25.72266,-0.47656 -47.41016,-17.46484 -54.89453,-40.8125 3.58203,0.6875 7.26562,1.0625 11.04297,1.0625 5.36328,0 10.55859,-0.72265 15.49609,-2.07031 -26.88672,-5.38281 -47.14062,-29.14453 -47.14062,-57.59766 0,-0.26562 0,-0.5039 0.008,-0.75 7.91797,4.40235 16.97266,7.05078 26.61328,7.34766 -15.77734,-10.52735 -26.14844,-28.52344 -26.14844,-48.91016 0,-10.76562 2.91016,-20.85156 7.95703,-29.53515 28.97657,35.55468 72.28125,58.9375 121.11719,61.39453 -1.00781,-4.30469 -1.52734,-8.78906 -1.52734,-13.39844 0,-32.4375 26.3164,-58.75391 58.76562,-58.75391 16.90235,0 32.16797,7.14454 42.89063,18.56641 13.38672,-2.64062 25.95703,-7.53125 37.3125,-14.26172 -4.39453,13.71485 -13.70703,25.22266 -25.83985,32.5 11.88672,-1.42187 23.21485,-4.57422 33.74219,-9.2539 -7.86328,11.78515 -17.83594,22.13671 -29.30859,30.42968 z"
     class="bg"
     id="path354" />
  <path
     d="m 372.88691,199.60157 c 0.11328,2.51953 0.16797,5.05078 0.16797,7.59376 0,77.64453 -59.10156,167.17969 -167.18359,167.18359 h 0.004 -0.004 c -33.18359,0 -64.0625,-9.72656 -90.06641,-26.39453 4.59766,0.54297 9.27735,0.8125 14.01563,0.8125 27.53125,0 52.86718,-9.39062 72.98047,-25.15235 -25.72266,-0.47656 -47.41016,-17.46484 -54.89454,-40.8125 3.58203,0.6875 7.26563,1.0625 11.04297,1.0625 5.36328,0 10.5586,-0.72265 15.4961,-2.07031 -26.88672,-5.38281 -47.14063,-29.14453 -47.14063,-57.59766 0,-0.26562 0,-0.50391 0.008,-0.75 7.91797,4.40235 16.97266,7.05078 26.61328,7.34766 -15.77734,-10.52734 -26.14844,-28.52345 -26.14844,-48.91016 0,-10.76562 2.91016,-20.85156 7.95704,-29.53516 28.97656,35.55469 72.28125,58.93751 121.11718,61.39454 -1.00781,-4.30469 -1.52735,-8.78906 -1.52735,-13.39844 0,-32.4375 26.31641,-58.75391 58.76563,-58.75391 16.90235,0 32.16797,7.14453 42.89063,18.5664 13.38672,-2.64062 25.95702,-7.53124 37.3125,-14.26171 -4.39454,13.71484 -13.70703,25.22266 -25.83985,32.5 11.88672,-1.42188 23.21485,-4.57422 33.74219,-9.25391 -7.86328,11.78516 -17.83594,22.13672 -29.3086,30.42969 z"
     class="mn"
     id="path356" />
</svg>
